{
.appVersion = "913";
copyright = "Copyright (c) 2010 by Anton Koovit. Copyright (c) 2016 Cyreal";
customParameters = (
{
name = licenseURL;
value = anton.korkork.com/Arvo/OFL.htm;
},
{
name = description;
value = "Copyright (c) 2010 by Anton Koovit. \012All rights reserved under SIL openfont License 1.1 ";
},
{
name = trademark;
value = "Copyright (c) 2010 by Anton Koovit. ";
},
{
name = license;
value = "Arvo roman regular can be used under SIL openfont License 1.1 For conditions of use, modification and resale read carefully full Open Font License text. No warranty, no liabilty.";
},
{
name = openTypeOS2VendorID;
value = KORK;
},
{
name = glyphOrder;
value = (
space,
exclam,
quotedbl,
numbersign,
dollar,
percent,
ampersand,
quotesingle,
parenleft,
parenright,
asterisk,
plus,
comma,
hyphen,
period,
slash,
zero,
one,
two,
three,
four,
five,
six,
seven,
eight,
nine,
colon,
semicolon,
less,
equal,
greater,
question,
at,
A,
B,
C,
D,
E,
F,
G,
H,
I,
J,
K,
L,
M,
N,
O,
P,
Q,
R,
S,
T,
U,
V,
W,
X,
Y,
Z,
bracketleft,
backslash,
bracketright,
asciicircum,
underscore,
grave,
a,
b,
c,
d,
e,
f,
g,
h,
i,
j,
k,
l,
m,
n,
o,
p,
q,
r,
s,
t,
u,
v,
w,
x,
y,
z,
braceleft,
bar,
braceright,
asciitilde,
ellipsis,
guilsinglleft,
quoteleft,
quoteright,
quotedblleft,
quotedblright,
bullet,
endash,
emdash,
guilsinglright,
currency,
brokenbar,
section,
copyright,
guillemotleft,
logicalnot,
registered,
degree,
plusminus,
mu,
paragraph,
periodcentered,
guillemotright,
germandbls,
minus,
sterling,
cent,
multiply,
circumflex,
tilde,
macron,
breve,
cedilla,
hungarumlaut,
ogonek,
caron,
acute,
dieresis,
ring,
dotaccent,
dotlessi,
AE,
ae,
thorn,
Thorn,
onesuperior,
twosuperior,
threesuperior,
ordmasculine,
ordfeminine,
exclamdown,
questiondown,
fraction,
onequarter,
onehalf,
threequarters,
Oslash,
oslash,
Ccedilla,
Agrave,
Aacute,
Acircumflex,
Atilde,
Aring,
Adieresis,
Egrave,
Eacute,
Ecircumflex,
Edieresis,
Igrave,
Iacute,
Icircumflex,
Idieresis,
Eth,
Ntilde,
Ocircumflex,
Otilde,
Ograve,
Oacute,

glyphs = (
{
glyphname = exclam;
lastChange = "2016-08-14 21:02:13 +0000";
layers = (
{
components = (
{
name = dotaccent;
transform = "{1, 0, 0, 1, -16, -626}";
}
);
layerId = "EEC59083-BA83-4EFB-8B50-D01213A5FD15";
paths = (
{
closed = 1;
nodes = (
"139 200 LINE",
"226 200 LINE",
"378 770 LINE",
"251 770 LINE"
);
}
);
width = 411;
},
{
components = (
{
name = dotaccent;
transform = "{1, 0, 0, 1, 70, -598}";
}
);
layerId = "8956C7A5-95B5-4256-B2D2-E489185594C4";
paths = (
{
closed = 1;
nodes = (
"161 252 LINE",
"304 252 LINE",
"443 770 LINE",
"260 770 LINE"
);
}
);
width = 423;
}
);
unicode = 0021;
},
{
glyphname = quotedbl;
lastChange = "2016-08-14 21:02:13 +0000";
layers = (
{
layerId = "EEC59083-BA83-4EFB-8B50-D01213A5FD15";
paths = (
{
closed = 1;
nodes = (
"204 772 LINE",
"114 766 LINE",
"80 517 LINE",
"141 517 LINE"
);
},
{
closed = 1;
nodes = (
"343 772 LINE",
"254 766 LINE",
"220 517 LINE",
"280 517 LINE"
);
}
);
width = 364;
},
{
layerId = "8956C7A5-95B5-4256-B2D2-E489185594C4";
paths = (
{
closed = 1;
nodes = (
"296 778 LINE",
"155 770 LINE",
"120 517 LINE",
"227 517 LINE"
);
},
{
closed = 1;
nodes = (
"506 778 LINE",
"365 770 LINE",
"330 517 LINE",
"437 517 LINE"
);
}
);
width = 446;
}
);
unicode = 0022;
},
{
glyphname = numbersign;
lastChange = "2016-08-14 21:02:13 +0000";
layers = (
{
layerId = "EEC59083-BA83-4EFB-8B50-D01213A5FD15";
paths = (
{
closed = 1;
nodes = (
"139 494 LINE",
"264 494 LINE",
"169 274 LINE",
"62 274 LINE",
"17 190 LINE",
"133 190 LINE",
"52 0 LINE",
"153 0 LINE",
"233 190 LINE",
"408 190 LINE",
"327 0 LINE",
"426 0 LINE",
"506 190 LINE",
"618 190 LINE",
"661 274 LINE",
"542 274 LINE",
"636 494 LINE",
"738 494 LINE",
"782 578 LINE",
"671 578 LINE",
"737 731 LINE",
"639 731 LINE",
"573 578 LINE",
"398 578 LINE",
"464 731 LINE",
"366 731 LINE",
"300 578 LINE",
"183 578 LINE"
);
},
{
closed = 1;
nodes = (
"363 494 LINE",
"538 494 LINE",
"443 274 LINE",
"269 274 LINE"
);
}
);
width = 710;
},
{
layerId = "8956C7A5-95B5-4256-B2D2-E489185594C4";
paths = (
{
closed = 1;
nodes = (
"203 451 LINE",
"303 451 LINE",
"227 274 LINE",
"130 274 LINE",
"70 140 LINE",
"170 140 LINE",
"110 0 LINE",
"272 0 LINE",
"331 140 LINE",
"486 140 LINE",
"427 0 LINE",
"587 0 LINE",
"646 140 LINE",
"743 140 LINE",
"803 274 LINE",
"703 274 LINE",
"779 451 LINE",
"876 451 LINE",
"936 585 LINE",
"835 585 LINE",
"898 731 LINE",
"739 731 LINE",
"676 585 LINE",
"520 585 LINE",
"582 731 LINE",
"423 731 LINE",
"360 585 LINE",
"263 585 LINE"
);
},
{
closed = 1;
nodes = (
"463 451 LINE",
"619 451 LINE",
"543 274 LINE",
"388 274 LINE"
);
}
);
width = 896;
}
);
unicode = 0023;
},
{
glyphname = dollar;
lastChange = "2016-08-14 21:02:13 +0000";
layers = (
{
layerId = "EEC59083-BA83-4EFB-8B50-D01213A5FD15";
paths = (
{
closed = 1;
nodes = (
"284 -88 LINE",
"321 75 LINE",
"436 88 OFFCURVE",
"511 153 OFFCURVE",
"511 246 CURVE SMOOTH",
"511 309 OFFCURVE",
"475 347 OFFCURVE",
"401 370 CURVE",
"376 377 OFFCURVE",
"352 386 OFFCURVE",
"327 394 CURVE SMOOTH",
"293 404 OFFCURVE",
"250 412 OFFCURVE",
"250 454 CURVE SMOOTH",
"250 500 OFFCURVE",
"300 534 OFFCURVE",
"379 534 CURVE SMOOTH",
"437 534 OFFCURVE",
"484 508 OFFCURVE",
"472 461 CURVE SMOOTH",
"472 461 OFFCURVE",
"472 461 OFFCURVE",
"472 461 CURVE",
"471 458 OFFCURVE",
"471 455 OFFCURVE",
"470 452 CURVE",
"580 452 LINE",
"585 474 OFFCURVE",
"591 496 OFFCURVE",
"597 519 CURVE",
"557 519 LINE",
"544 559 OFFCURVE",
"504 591 OFFCURVE",
"443 603 CURVE",
"480 761 LINE",
"384 761 LINE",
"348 606 LINE",
"230 595 OFFCURVE",
"159 533 OFFCURVE",
"159 443 CURVE SMOOTH",
"159 381 OFFCURVE",
"198 339 OFFCURVE",
"266 321 CURVE SMOOTH",
"331 301 OFFCURVE",
"415 290 OFFCURVE",
"415 234 CURVE SMOOTH",
"415 184 OFFCURVE",
"363 147 OFFCURVE",
"289 147 CURVE SMOOTH",
"219 147 OFFCURVE",
"179 170 OFFCURVE",
"183 214 CURVE",
"186 224 OFFCURVE",
"188 234 OFFCURVE",
"191 244 CURVE",
"77 244 LINE",
"71 222 OFFCURVE",
"66 200 OFFCURVE",
"60 177 CURVE",
"99 177 LINE",
"106 127 OFFCURVE",
"144 87 OFFCURVE",
"225 75 CURVE",
"188 -88 LINE"
);
}
);
width = 624;
},
{
layerId = "8956C7A5-95B5-4256-B2D2-E489185594C4";
paths = (
{
closed = 1;
nodes = (
"337 -91 LINE",
"374 67 LINE",
"487 86 OFFCURVE",
"565 153 OFFCURVE",
"565 259 CURVE SMOOTH",
"565 333 OFFCURVE",
"530 370 OFFCURVE",
"448 396 CURVE",
"430 402 OFFCURVE",
"411 408 OFFCURVE",
"392 415 CURVE SMOOTH",
"362 424 OFFCURVE",
"327 437 OFFCURVE",
"327 459 CURVE SMOOTH",
"327 487 OFFCURVE",
"361 494 OFFCURVE",
"399 494 CURVE SMOOTH",
"440 494 OFFCURVE",
"470 474 OFFCURVE",
"464 440 CURVE SMOOTH",
"463 438 OFFCURVE",
"463 436 OFFCURVE",
"462 434 CURVE",
"462 426 OFFCURVE",
"458 417 OFFCURVE",
"457 410 CURVE",
"617 410 LINE",
"626 448 OFFCURVE",
"635 485 OFFCURVE",
"644 523 CURVE",
"596 523 LINE",
"597 555 OFFCURVE",
"560 589 OFFCURVE",
"500 606 CURVE",
"536 761 LINE",
"374 761 LINE",
"338 610 LINE",
"237 595 OFFCURVE",
"167 546 OFFCURVE",
"167 444 CURVE SMOOTH",
"167 378 OFFCURVE",
"214 325 OFFCURVE",
"271 307 CURVE SMOOTH",
"322 290 OFFCURVE",
"397 277 OFFCURVE",
"397 231 CURVE SMOOTH",
"397 206 OFFCURVE",
"371 187 OFFCURVE",
"322 187 CURVE SMOOTH",
"270 187 OFFCURVE",
"250 212 OFFCURVE",
"255 243 CURVE",
"257 254 OFFCURVE",
"260 265 OFFCURVE",
"262 275 CURVE",
"104 275 LINE",
"94 237 OFFCURVE",
"85 199 OFFCURVE",
"76 161 CURVE",
"124 161 LINE",
"132 119 OFFCURVE",
"167 90 OFFCURVE",
"213 74 CURVE",
"175 -91 LINE"
);
}
);
width = 631;
}
);
unicode = 0024;
},
{
glyphname = percent;
lastChange = "2016-08-14 21:02:13 +0000";
layers = (
{
layerId = "EEC59083-BA83-4EFB-8B50-D01213A5FD15";
paths = (
{
closed = 1;
nodes = (
"78 471 OFFCURVE",
"135 407 OFFCURVE",
"218 407 CURVE SMOOTH",
"334 407 OFFCURVE",
"421 498 OFFCURVE",
"421 597 CURVE SMOOTH",
"421 667 OFFCURVE",
"362 732 OFFCURVE",
"281 732 CURVE SMOOTH",
"169 732 OFFCURVE",
"78 644 OFFCURVE",
"78 541 CURVE SMOOTH"
);
},
{
closed = 1;
nodes = (
"308 652 OFFCURVE",
"335 624 OFFCURVE",
"335 586 CURVE SMOOTH",
"335 532 OFFCURVE",
"283 486 OFFCURVE",
"230 486 CURVE SMOOTH",
"189 486 OFFCURVE",
"163 515 OFFCURVE",
"163 555 CURVE SMOOTH",
"163 609 OFFCURVE",
"216 652 OFFCURVE",
"269 652 CURVE SMOOTH"
);
},
{
closed = 1;
nodes = (
"10 -8 LINE",
"120 -8 LINE",
"804 752 LINE",
"694 752 LINE"
);
},
{
closed = 1;
nodes = (
"412 53 OFFCURVE",
"469 -12 OFFCURVE",
"552 -12 CURVE SMOOTH",
"669 -12 OFFCURVE",
"755 80 OFFCURVE",
"755 179 CURVE SMOOTH",
"755 249 OFFCURVE",
"696 313 OFFCURVE",
"615 313 CURVE SMOOTH",
"503 313 OFFCURVE",
"412 226 OFFCURVE",
"412 123 CURVE SMOOTH"
);
},
{
closed = 1;
nodes = (
"642 233 OFFCURVE",
"669 205 OFFCURVE",
"669 167 CURVE SMOOTH",
"669 113 OFFCURVE",
"617 67 OFFCURVE",
"564 67 CURVE SMOOTH",
"523 67 OFFCURVE",
"498 96 OFFCURVE",
"498 136 CURVE SMOOTH",
"498 190 OFFCURVE",
"550 233 OFFCURVE",
"603 233 CURVE SMOOTH"
);
}
);
width = 816;
},
{
layerId = "8956C7A5-95B5-4256-B2D2-E489185594C4";
paths = (
{
closed = 1;
nodes = (
"82 457 OFFCURVE",
"149 378 OFFCURVE",
"249 378 CURVE SMOOTH",
"383 378 OFFCURVE",
"484 483 OFFCURVE",
"484 598 CURVE SMOOTH",
"484 685 OFFCURVE",
"416 762 OFFCURVE",
"317 762 CURVE SMOOTH",
"187 762 OFFCURVE",
"82 661 OFFCURVE",
"82 541 CURVE SMOOTH"
);
},
{
closed = 1;
nodes = (
"326 627 OFFCURVE",
"344 610 OFFCURVE",
"344 582 CURVE SMOOTH",
"344 543 OFFCURVE",
"307 512 OFFCURVE",
"270 512 CURVE SMOOTH",
"241 512 OFFCURVE",
"225 533 OFFCURVE",
"225 559 CURVE SMOOTH",
"225 599 OFFCURVE",
"258 627 OFFCURVE",
"296 627 CURVE SMOOTH"
);
},
{
closed = 1;
nodes = (
"80 -8 LINE",
"267 -8 LINE",
"951 752 LINE",
"764 752 LINE"
);
},
{
closed = 1;
nodes = (
"541 64 OFFCURVE",
"608 -12 OFFCURVE",
"708 -12 CURVE SMOOTH",
"843 -12 OFFCURVE",
"942 90 OFFCURVE",
"942 207 CURVE SMOOTH",
"942 294 OFFCURVE",
"875 372 OFFCURVE",
"776 372 CURVE SMOOTH",
"646 372 OFFCURVE",
"541 267 OFFCURVE",
"541 149 CURVE SMOOTH"
);
},
{
closed = 1;
nodes = (
"784 237 OFFCURVE",
"802 220 OFFCURVE",
"802 192 CURVE SMOOTH",
"802 153 OFFCURVE",
"767 122 OFFCURVE",
"729 122 CURVE SMOOTH",
"701 122 OFFCURVE",
"684 143 OFFCURVE",
"684 167 CURVE SMOOTH",
"684 209 OFFCURVE",
"716 237 OFFCURVE",
"754 237 CURVE SMOOTH"
);
}
);
width = 941;
}
);
unicode = 0025;
},
{
color = 5;
glyphname = ampersand;
lastChange = "2016-08-15 21:52:05 +0000";
layers = (
{
layerId = "EEC59083-BA83-4EFB-8B50-D01213A5FD15";
paths = (
{
closed = 1;
nodes = (
"606 47 LINE",
"511 167 LINE",
"557 231 OFFCURVE",
"592 304 OFFCURVE",
"617 369 CURVE",
"529 369 LINE",
"514 331 OFFCURVE",
"490 281 OFFCURVE",
"459 233 CURVE",
"349 374 LINE",
"375 386 OFFCURVE",
"401 400 OFFCURVE",
"425 416 CURVE SMOOTH",
"501 464 OFFCURVE",
"543 508 OFFCURVE",
"543 598 CURVE SMOOTH",
"543 680 OFFCURVE",
"478 754 OFFCURVE",
"377 754 CURVE SMOOTH",
"256 754 OFFCURVE",
"158 666 OFFCURVE",
"158 552 CURVE SMOOTH",
"158 479 OFFCURVE",
"195 435 OFFCURVE",
"220 401 CURVE",
"127 364 OFFCURVE",
"37 282 OFFCURVE",
"37 174 CURVE SMOOTH",
"37 69 OFFCURVE",
"114 -15 OFFCURVE",
"219 -15 CURVE SMOOTH",
"309 -15 OFFCURVE",
"386 29 OFFCURVE",
"450 94 CURVE",
"528 -10 LINE"
);
},
{
closed = 1;
nodes = (
"166 67 OFFCURVE",
"122 114 OFFCURVE",
"122 177 CURVE SMOOTH",
"122 262 OFFCURVE",
"181 304 OFFCURVE",
"267 338 CURVE",
"402 157 LINE",
"355 105 OFFCURVE",
"297 67 OFFCURVE",
"231 67 CURVE SMOOTH"
);
},
{
closed = 1;
nodes = (
"264 481 OFFCURVE",
"241 512 OFFCURVE",
"241 556 CURVE SMOOTH",
"241 622 OFFCURVE",
"297 675 OFFCURVE",
"369 675 CURVE SMOOTH",
"428 675 OFFCURVE",
"457 634 OFFCURVE",
"457 586 CURVE SMOOTH",
"457 551 OFFCURVE",
"435 520 OFFCURVE",
"410 498 CURVE SMOOTH",
"378 471 OFFCURVE",
"340 452 OFFCURVE",
"301 435 CURVE"
);
}
);
width = 675;
},
{
layerId = "8956C7A5-95B5-4256-B2D2-E489185594C4";
paths = (
{
closed = 1;
nodes = (
"628 67 LINE",
"547 169 LINE",
"587 231 OFFCURVE",
"613 302 OFFCURVE",
"628 373 CURVE",
"486 373 LINE",
"479 346 OFFCURVE",
"468 317 OFFCURVE",
"454 289 CURVE",
"389 371 LINE",
"401 378 OFFCURVE",
"414 385 OFFCURVE",
"426 393 CURVE SMOOTH",
"504 442 OFFCURVE",
"557 491 OFFCURVE",
"557 584 CURVE SMOOTH",
"557 669 OFFCURVE",
"479 754 OFFCURVE",
"369 754 CURVE SMOOTH",
"230 754 OFFCURVE",
"135 663 OFFCURVE",
"135 530 CURVE SMOOTH",
"135 478 OFFCURVE",
"151 438 OFFCURVE",
"178 400 CURVE",
"76 350 OFFCURVE",
"20 281 OFFCURVE",
"20 188 CURVE SMOOTH",
"20 81 OFFCURVE",
"106 -12 OFFCURVE",
"224 -12 CURVE SMOOTH",
"308 -12 OFFCURVE",
"378 12 OFFCURVE",
"436 52 CURVE",
"496 -29 LINE"
);
},
{
closed = 1;
nodes = (
"200 132 OFFCURVE",
"175 164 OFFCURVE",
"175 199 CURVE SMOOTH",
"175 246 OFFCURVE",
"205 271 OFFCURVE",
"254 298 CURVE",
"351 167 LINE",
"319 146 OFFCURVE",
"283 132 OFFCURVE",
"244 132 CURVE SMOOTH"
);
},
{
closed = 1;
nodes = (
"286 499 OFFCURVE",
"279 521 OFFCURVE",
"279 542 CURVE SMOOTH",
"279 590 OFFCURVE",
"318 624 OFFCURVE",
"363 624 CURVE SMOOTH",
"394 624 OFFCURVE",
"414 600 OFFCURVE",
"414 571 CURVE SMOOTH",
"414 540 OFFCURVE",
"401 519 OFFCURVE",
"370 499 CURVE SMOOTH",
"354 489 OFFCURVE",
"334 479 OFFCURVE",
"313 468 CURVE"
);
}
);
width = 635;
}
);
unicode = 0026;
},
{
glyphname = quotesingle;
lastChange = "2016-08-14 21:02:13 +0000";
layers = (
{
layerId = "EEC59083-BA83-4EFB-8B50-D01213A5FD15";
paths = (
{
closed = 1;
nodes = (
"197 772 LINE",
"108 766 LINE",
"73 517 LINE",
"134 517 LINE"
);
}
);
width = 202;
},
{
layerId = "8956C7A5-95B5-4256-B2D2-E489185594C4";
paths = (
{
closed = 1;
nodes = (
"296 778 LINE",
"155 770 LINE",
"120 517 LINE",
"227 517 LINE"
);
}
);
width = 236;
}
);
unicode = 0027;
},
{
glyphname = parenleft;
lastChange = "2016-08-14 21:02:13 +0000";
layers = (
{
layerId = "EEC59083-BA83-4EFB-8B50-D01213A5FD15";
paths = (
{
closed = 1;
nodes = (
"291 -126 LINE",
"241 -39 OFFCURVE",
"216 78 OFFCURVE",
"216 198 CURVE SMOOTH",
"216 418 OFFCURVE",
"326 612 OFFCURVE",
"500 782 CURVE",
"446 836 LINE",
"248 647 OFFCURVE",
"117 445 OFFCURVE",
"117 194 CURVE SMOOTH",
"117 59 OFFCURVE",
"152 -78 OFFCURVE",
"211 -180 CURVE"
);
}
);
width = 403;
},
{
layerId = "8956C7A5-95B5-4256-B2D2-E489185594C4";
paths = (
{
closed = 1;
nodes = (
"312 -150 LINE",
"267 -63 OFFCURVE",
"242 67 OFFCURVE",
"242 179 CURVE SMOOTH",
"242 402 OFFCURVE",
"358 610 OFFCURVE",
"527 780 CURVE",
"426 864 LINE",
"207 655 OFFCURVE",
"80 416 OFFCURVE",
"80 160 CURVE SMOOTH",
"80 26 OFFCURVE",
"112 -123 OFFCURVE",
"173 -228 CURVE"
);
}
);
width = 427;
}
);
unicode = 0028;
},
{
glyphname = parenright;
lastChange = "2016-08-14 21:02:13 +0000";
layers = (
{
layerId = "EEC59083-BA83-4EFB-8B50-D01213A5FD15";
paths = (
{
closed = 1;
nodes = (
"156 782 LINE",
"206 695 OFFCURVE",
"231 578 OFFCURVE",
"231 458 CURVE SMOOTH",
"231 238 OFFCURVE",
"121 44 OFFCURVE",
"-53 -126 CURVE",
"1 -180 LINE",
"199 9 OFFCURVE",
"330 211 OFFCURVE",
"330 462 CURVE SMOOTH",
"330 597 OFFCURVE",
"295 734 OFFCURVE",
"236 836 CURVE"
);
}
);
width = 463;
},
{
layerId = "8956C7A5-95B5-4256-B2D2-E489185594C4";
paths = (
{
closed = 1;
nodes = (
"165 786 LINE",
"210 699 OFFCURVE",
"235 569 OFFCURVE",
"235 457 CURVE SMOOTH",
"235 234 OFFCURVE",
"119 26 OFFCURVE",
"-50 -144 CURVE",
"51 -228 LINE",
"270 -19 OFFCURVE",
"397 220 OFFCURVE",
"397 476 CURVE SMOOTH",
"397 610 OFFCURVE",
"365 759 OFFCURVE",
"304 864 CURVE"
);
}
);
width = 427;
}
);
unicode = 0029;
},
{
glyphname = asterisk;
lastChange = "2016-08-14 21:02:13 +0000";
layers = (
{
layerId = "EEC59083-BA83-4EFB-8B50-D01213A5FD15";
paths = (
{
closed = 1;
nodes = (
"290 755 LINE",
"218 755 LINE",
"191 636 LINE",
"82 675 LINE",
"49 615 LINE",
"159 577 LINE",
"66 480 LINE",
"120 440 LINE",
"209 535 LINE",
"257 436 LINE",
"318 470 LINE",
"269 569 LINE",
"395 606 LINE",
"389 673 LINE",
"262 635 LINE"
);
}
);
width = 395;
},
{
layerId = "8956C7A5-95B5-4256-B2D2-E489185594C4";
paths = (
{
closed = 1;
nodes = (
"373 789 LINE",
"244 789 LINE",
"217 670 LINE",
"115 706 LINE",
"50 588 LINE",
"151 553 LINE",
"63 459 LINE",
"154 376 LINE",
"244 471 LINE",
"289 378 LINE",
"405 450 LINE",
"359 544 LINE",
"480 580 LINE",
"469 705 LINE",
"346 668 LINE"
);
}
);
width = 480;
}
);
unicode = 002A;
},
{
glyphname = plus;
lastChange = "2016-08-14 21:02:13 +0000";
layers = (
{
layerId = "EEC59083-BA83-4EFB-8B50-D01213A5FD15";
paths = (
{
closed = 1;
nodes = (
"49 300 LINE",
"252 300 LINE",
"205 91 LINE",
"299 91 LINE",
"347 300 LINE",
"550 300 LINE",
"569 384 LINE",
"367 384 LINE",
"415 591 LINE",
"319 591 LINE",
"271 384 LINE",
"68 384 LINE"
);
}
);
width = 620;
},
{
layerId = "8956C7A5-95B5-4256-B2D2-E489185594C4";
paths = (
{
closed = 1;
nodes = (
"50 219 LINE",
"229 219 LINE",
"186 35 LINE",
"331 35 LINE",
"374 219 LINE",
"553 219 LINE",
"584 353 LINE",
"405 353 LINE",
"447 535 LINE",
"302 535 LINE",
"260 353 LINE",
"81 353 LINE"
);
}
);
width = 604;
}
);
unicode = 002B;
},
{
glyphname = comma;
lastChange = "2016-08-14 21:02:13 +0000";
layers = (
{
layerId = "EEC59083-BA83-4EFB-8B50-D01213A5FD15";
paths = (
{
closed = 1;
nodes = (
"-13 -140 LINE",
"59 -167 LINE",
"186 96 LINE",
"77 138 LINE"
);
}
);
width = 259;
},
{
layerId = "8956C7A5-95B5-4256-B2D2-E489185594C4";
paths = (
{
closed = 1;
nodes = (
"0 -140 LINE",
"100 -178 LINE",
"239 86 LINE",
"90 138 LINE"
);
}
);
width = 269;
}
);
unicode = 002C;
},
{
glyphname = hyphen;
lastChange = "2016-08-14 21:02:13 +0000";
layers = (
{
layerId = "EEC59083-BA83-4EFB-8B50-D01213A5FD15";
paths = (
{
closed = 1;
nodes = (
"346 242 LINE",
"365 326 LINE",
"86 326 LINE",
"67 242 LINE"
);
}
);
width = 418;
},
{
layerId = "8956C7A5-95B5-4256-B2D2-E489185594C4";
paths = (
{
closed = 1;
nodes = (
"376 219 LINE",
"407 353 LINE",
"101 353 LINE",
"70 219 LINE"
);
}
);
width = 406;
}
);
unicode = 002D;
},
{
glyphname = slash;
lastChange = "2016-08-14 21:02:13 +0000";
layers = (
{
layerId = "EEC59083-BA83-4EFB-8B50-D01213A5FD15";
paths = (
{
closed = 1;
nodes = (
"-38 0 LINE",
"59 0 LINE",
"458 760 LINE",
"361 760 LINE"
);
}
);
width = 421;
},
{
layerId = "8956C7A5-95B5-4256-B2D2-E489185594C4";
paths = (
{
closed = 1;
nodes = (
"15 0 LINE",
"153 0 LINE",
"555 760 LINE",
"420 760 LINE"
);
}
);
width = 480;
}
);
unicode = 002F;
},
{
glyphname = zero;
lastChange = "2016-08-14 21:02:13 +0000";
layers = (
{
layerId = "EEC59083-BA83-4EFB-8B50-D01213A5FD15";
paths = (
{
closed = 1;
nodes = (
"523 -9 OFFCURVE",
"668 276 OFFCURVE",
"668 500 CURVE SMOOTH",
"668 636 OFFCURVE",
"605 752 OFFCURVE",
"448 752 CURVE SMOOTH",
"210 752 OFFCURVE",
"70 456 OFFCURVE",
"70 240 CURVE SMOOTH",
"70 99 OFFCURVE",
"136 -9 OFFCURVE",
"290 -9 CURVE SMOOTH"
);
},
{
closed = 1;
nodes = (
"204 81 OFFCURVE",
"172 155 OFFCURVE",
"172 246 CURVE SMOOTH",
"172 400 OFFCURVE",
"286 665 OFFCURVE",
"437 665 CURVE SMOOTH",
"534 665 OFFCURVE",
"566 585 OFFCURVE",
"566 492 CURVE SMOOTH",
"566 333 OFFCURVE",
"453 81 OFFCURVE",
"301 81 CURVE SMOOTH"
);
}
);
width = 688;
},
{
layerId = "8956C7A5-95B5-4256-B2D2-E489185594C4";
paths = (
{
closed = 1;
nodes = (
"522 -7 OFFCURVE",
"664 259 OFFCURVE",
"664 491 CURVE SMOOTH",
"664 635 OFFCURVE",
"604 749 OFFCURVE",
"445 749 CURVE SMOOTH",
"186 749 OFFCURVE",
"50 466 OFFCURVE",
"50 250 CURVE SMOOTH",
"50 104 OFFCURVE",
"112 -7 OFFCURVE",
"269 -7 CURVE SMOOTH"
);
},
{
closed = 1;
nodes = (
"231 143 OFFCURVE",
"208 196 OFFCURVE",
"208 267 CURVE SMOOTH",
"208 396 OFFCURVE",
"295 601 OFFCURVE",
"411 601 CURVE SMOOTH",
"483 601 OFFCURVE",
"506 547 OFFCURVE",
"506 477 CURVE SMOOTH",
"506 345 OFFCURVE",
"420 143 OFFCURVE",
"304 143 CURVE SMOOTH"
);
}
);
width = 664;
}
);
unicode = 0030;
},
{
glyphname = one;
lastChange = "2016-08-14 21:02:13 +0000";
layers = (
{
layerId = "EEC59083-BA83-4EFB-8B50-D01213A5FD15";
paths = (
{
closed = 1;
nodes = (
"70 0 LINE",
"310 0 LINE",
"329 84 LINE",
"256 84 LINE",
"412 761 LINE",
"373 761 LINE",
"140 646 LINE",
"117 544 LINE",
"285 625 LINE",
"161 84 LINE",
"89 84 LINE"
);
}
);
width = 412;
},
{
layerId = "8956C7A5-95B5-4256-B2D2-E489185594C4";
paths = (
{
closed = 1;
nodes = (
"10 0 LINE",
"340 0 LINE",
"371 134 LINE",
"287 134 LINE",
"427 741 LINE",
"356 742 LINE",
"125 622 LINE",
"85 452 LINE",
"215 521 LINE",
"126 134 LINE",
"41 134 LINE"
);
}
);
width = 397;
}
);
unicode = 0031;
},
{
glyphname = two;
lastChange = "2016-08-14 21:02:13 +0000";
layers = (
{
layerId = "EEC59083-BA83-4EFB-8B50-D01213A5FD15";
paths = (
{
closed = 1;
nodes = (
"-10 0 LINE",
"426 0 LINE",
"445 84 LINE",
"142 84 LINE",
"435 358 LINE SMOOTH",
"536 453 OFFCURVE",
"558 501 OFFCURVE",
"558 577 CURVE SMOOTH",
"558 674 OFFCURVE",
"483 753 OFFCURVE",
"372 753 CURVE SMOOTH",
"252 753 OFFCURVE",
"140 673 OFFCURVE",
"109 538 CURVE",
"210 538 LINE",
"231 617 OFFCURVE",
"290 660 OFFCURVE",
"357 660 CURVE SMOOTH",
"421 660 OFFCURVE",
"461 618 OFFCURVE",
"461 565 CURVE SMOOTH",
"461 495 OFFCURVE",
"390 435 OFFCURVE",
"339 387 CURVE",
"7 75 LINE"
);
}
);
width = 558;
},
{
layerId = "8956C7A5-95B5-4256-B2D2-E489185594C4";
paths = (
{
closed = 1;
nodes = (
"-20 0 LINE",
"463 0 LINE",
"498 150 LINE",
"255 150 LINE",
"507 367 LINE SMOOTH",
"575 426 OFFCURVE",
"595 484 OFFCURVE",
"595 550 CURVE SMOOTH",
"595 660 OFFCURVE",
"509 752 OFFCURVE",
"381 752 CURVE SMOOTH",
"236 752 OFFCURVE",
"129 664 OFFCURVE",
"94 510 CURVE",
"255 510 LINE",
"269 562 OFFCURVE",
"296 606 OFFCURVE",
"360 606 CURVE SMOOTH",
"406 606 OFFCURVE",
"429 575 OFFCURVE",
"429 542 CURVE SMOOTH",
"429 493 OFFCURVE",
"399 456 OFFCURVE",
"328 399 CURVE",
"9 127 LINE"
);
}
);
width = 555;
}
);
unicode = 0032;
},
{
glyphname = three;
lastChange = "2016-08-14 21:02:13 +0000";
layers = (
{
layerId = "EEC59083-BA83-4EFB-8B50-D01213A5FD15";
paths = (
{
closed = 1;
nodes = (
"458 490 OFFCURVE",
"390 426 OFFCURVE",
"292 426 CURVE SMOOTH",
"256 426 LINE",
"239 349 LINE",
"282 349 LINE SMOOTH",
"347 349 OFFCURVE",
"393 306 OFFCURVE",
"393 242 CURVE SMOOTH",
"393 147 OFFCURVE",
"323 69 OFFCURVE",
"227 69 CURVE SMOOTH",
"153 69 OFFCURVE",
"110 119 OFFCURVE",
"109 181 CURVE",
"11 181 LINE",
"10 161 OFFCURVE",
"12 143 OFFCURVE",
"16 126 CURVE",
"33 40 OFFCURVE",
"122 -15 OFFCURVE",
"215 -15 CURVE SMOOTH",
"376 -15 OFFCURVE",
"494 99 OFFCURVE",
"494 251 CURVE SMOOTH",
"494 314 OFFCURVE",
"462 365 OFFCURVE",
"418 386 CURVE",
"521 422 OFFCURVE",
"559 498 OFFCURVE",
"559 577 CURVE SMOOTH",
"559 686 OFFCURVE",
"471 755 OFFCURVE",
"357 755 CURVE SMOOTH",
"229 755 OFFCURVE",
"125 680 OFFCURVE",
"105 561 CURVE",
"203 560 LINE",
"206 572 OFFCURVE",
"206 571 OFFCURVE",
"208 577 CURVE SMOOTH",
"223 625 OFFCURVE",
"268 671 OFFCURVE",
"348 671 CURVE SMOOTH",
"413 671 OFFCURVE",
"458 618 OFFCURVE",
"458 562 CURVE SMOOTH"
);
}
);
width = 549;
},
{
layerId = "8956C7A5-95B5-4256-B2D2-E489185594C4";
paths = (
{
closed = 1;
nodes = (
"443 493 OFFCURVE",
"400 451 OFFCURVE",
"332 451 CURVE SMOOTH",
"263 451 LINE",
"232 318 LINE",
"300 318 LINE SMOOTH",
"354 318 OFFCURVE",
"384 292 OFFCURVE",
"384 245 CURVE SMOOTH",
"384 186 OFFCURVE",
"325 138 OFFCURVE",
"262 138 CURVE SMOOTH",
"212 138 OFFCURVE",
"182 170 OFFCURVE",
"194 238 CURVE",
"27 238 LINE",
"23 223 OFFCURVE",
"24 212 OFFCURVE",
"23 203 CURVE",
"5 87 OFFCURVE",
"90 -9 OFFCURVE",
"226 -9 CURVE SMOOTH",
"414 -9 OFFCURVE",
"559 114 OFFCURVE",
"559 267 CURVE SMOOTH",
"559 320 OFFCURVE",
"538 367 OFFCURVE",
"507 388 CURVE",
"574 422 OFFCURVE",
"618 483 OFFCURVE",
"618 573 CURVE SMOOTH",
"618 673 OFFCURVE",
"526 757 OFFCURVE",
"400 757 CURVE SMOOTH",
"238 757 OFFCURVE",
"121 657 OFFCURVE",
"94 520 CURVE",
"269 519 LINE",
"270 526 OFFCURVE",
"271 529 OFFCURVE",
"273 536 CURVE SMOOTH",
"282 576 OFFCURVE",
"318 611 OFFCURVE",
"366 611 CURVE SMOOTH",
"416 611 OFFCURVE",
"443 576 OFFCURVE",
"443 541 CURVE SMOOTH"
);
}
);
width = 588;
}
);
unicode = 0033;
},
{
glyphname = four;
lastChange = "2016-08-14 21:02:13 +0000";
layers = (
{
layerId = "EEC59083-BA83-4EFB-8B50-D01213A5FD15";
paths = (
{
closed = 1;
nodes = (
"10 214 LINE",
"317 214 LINE",
"287 84 LINE",
"214 84 LINE",
"195 0 LINE",
"435 0 LINE",
"454 84 LINE",
"383 84 LINE",
"414 214 LINE",
"523 214 LINE",
"543 298 LINE",
"433 298 LINE",
"463 427 LINE",
"365 420 LINE",
"337 298 LINE",
"146 298 LINE",
"509 740 LINE",
"396 740 LINE",
"29 291 LINE"
);
}
);
width = 563;
},
{
layerId = "8956C7A5-95B5-4256-B2D2-E489185594C4";
paths = (
{
closed = 1;
nodes = (
"10 202 LINE",
"336 202 LINE",
"320 134 LINE",
"235 134 LINE",
"204 0 LINE",
"534 0 LINE",
"565 134 LINE",
"474 134 LINE",
"490 202 LINE",
"593 202 LINE",
"621 326 LINE",
"518 326 LINE",
"552 471 LINE",
"398 469 LINE",
"365 326 LINE",
"219 326 LINE",
"574 740 LINE",
"397 740 LINE",
"37 327 LINE"
);
}
);
width = 611;
}
);
unicode = 0034;
},
{
glyphname = five;
lastChange = "2016-08-14 21:02:13 +0000";
layers = (
{
layerId = "EEC59083-BA83-4EFB-8B50-D01213A5FD15";
paths = (
{
closed = 1;
nodes = (
"252 656 LINE",
"582 656 LINE",
"602 740 LINE",
"180 740 LINE",
"90 356 LINE",
"165 342 LINE",
"201 372 OFFCURVE",
"251 392 OFFCURVE",
"303 392 CURVE SMOOTH",
"381 392 OFFCURVE",
"433 336 OFFCURVE",
"433 263 CURVE SMOOTH",
"433 140 OFFCURVE",
"335 72 OFFCURVE",
"244 72 CURVE SMOOTH",
"160 72 OFFCURVE",
"114 125 OFFCURVE",
"99 183 CURVE",
"10 145 LINE",
"29 54 OFFCURVE",
"114 -15 OFFCURVE",
"235 -15 CURVE SMOOTH",
"381 -15 OFFCURVE",
"532 82 OFFCURVE",
"532 269 CURVE SMOOTH",
"532 393 OFFCURVE",
"441 475 OFFCURVE",
"322 475 CURVE SMOOTH",
"274 475 OFFCURVE",
"239 465 OFFCURVE",
"203 444 CURVE"
);
}
);
width = 582;
},
{
layerId = "8956C7A5-95B5-4256-B2D2-E489185594C4";
paths = (
{
closed = 1;
nodes = (
"276 591 LINE",
"593 591 LINE",
"628 740 LINE",
"158 740 LINE",
"67 346 LINE",
"193 322 LINE",
"229 337 OFFCURVE",
"257 345 OFFCURVE",
"299 345 CURVE SMOOTH",
"356 345 OFFCURVE",
"390 304 OFFCURVE",
"390 259 CURVE SMOOTH",
"390 191 OFFCURVE",
"335 127 OFFCURVE",
"259 127 CURVE SMOOTH",
"203 127 OFFCURVE",
"166 164 OFFCURVE",
"172 225 CURVE",
"11 184 LINE",
"5 60 OFFCURVE",
"105 -15 OFFCURVE",
"224 -15 CURVE SMOOTH",
"405 -15 OFFCURVE",
"551 106 OFFCURVE",
"551 287 CURVE SMOOTH",
"551 407 OFFCURVE",
"459 473 OFFCURVE",
"346 473 CURVE SMOOTH",
"306 473 OFFCURVE",
"273 467 OFFCURVE",
"245 458 CURVE"
);
}
);
width = 568;
}
);
unicode = 0035;
},
{
glyphname = six;
lastChange = "2016-08-14 21:02:13 +0000";
layers = (
{
layerId = "EEC59083-BA83-4EFB-8B50-D01213A5FD15";
paths = (
{
closed = 1;
nodes = (
"404 740 LINE",
"170 449 LINE SMOOTH",
"90 349 OFFCURVE",
"61 275 OFFCURVE",
"61 203 CURVE SMOOTH",
"61 90 OFFCURVE",
"147 -5 OFFCURVE",
"284 -5 CURVE SMOOTH",
"436 -5 OFFCURVE",
"578 106 OFFCURVE",
"578 277 CURVE SMOOTH",
"578 395 OFFCURVE",
"487 485 OFFCURVE",
"362 485 CURVE SMOOTH",
"348 485 OFFCURVE",
"330 484 OFFCURVE",
"306 477 CURVE",
"523 740 LINE"
);
},
{
closed = 1;
nodes = (
"415 410 OFFCURVE",
"480 358 OFFCURVE",
"480 274 CURVE SMOOTH",
"480 154 OFFCURVE",
"391 77 OFFCURVE",
"294 77 CURVE SMOOTH",
"209 77 OFFCURVE",
"158 134 OFFCURVE",
"158 208 CURVE SMOOTH",
"158 236 OFFCURVE",
"162 264 OFFCURVE",
"171 290 CURVE",
"209 371 OFFCURVE",
"265 410 OFFCURVE",
"343 410 CURVE SMOOTH"
);
}
);
width = 612;
},
{
layerId = "8956C7A5-95B5-4256-B2D2-E489185594C4";
paths = (
{
closed = 1;
nodes = (
"369 740 LINE",
"111 413 LINE SMOOTH",
"70 361 OFFCURVE",
"30 293 OFFCURVE",
"30 214 CURVE SMOOTH",
"30 124 OFFCURVE",
"80 -5 OFFCURVE",
"261 -5 CURVE SMOOTH",
"409 -5 OFFCURVE",
"542 117 OFFCURVE",
"542 266 CURVE SMOOTH",
"542 370 OFFCURVE",
"468 476 OFFCURVE",
"347 476 CURVE SMOOTH",
"346 476 OFFCURVE",
"344 476 OFFCURVE",
"341 476 CURVE",
"558 740 LINE"
);
},
{
closed = 1;
nodes = (
"355 351 OFFCURVE",
"387 316 OFFCURVE",
"387 262 CURVE SMOOTH",
"387 188 OFFCURVE",
"327 130 OFFCURVE",
"261 130 CURVE SMOOTH",
"200 130 OFFCURVE",
"172 174 OFFCURVE",
"172 221 CURVE SMOOTH",
"172 253 OFFCURVE",
"184 279 OFFCURVE",
"197 299 CURVE",
"223 333 OFFCURVE",
"255 351 OFFCURVE",
"291 351 CURVE SMOOTH"
);
}
);
width = 553;
}
);
unicode = 0036;
},
{
glyphname = seven;
lastChange = "2016-08-14 21:02:13 +0000";
layers = (
{
layerId = "EEC59083-BA83-4EFB-8B50-D01213A5FD15";
paths = (
{
closed = 1;
nodes = (
"30 0 LINE",
"270 0 LINE",
"289 84 LINE",
"218 84 LINE",
"334 283 OFFCURVE",
"489 498 OFFCURVE",
"615 667 CURVE",
"632 740 LINE",
"143 740 LINE",
"108 589 LINE",
"203 589 LINE",
"219 656 LINE",
"499 656 LINE",
"396 514 OFFCURVE",
"236 290 OFFCURVE",
"116 84 CURVE",
"49 84 LINE"
);
}
);
width = 592;
},
{
layerId = "8956C7A5-95B5-4256-B2D2-E489185594C4";
paths = (
{
closed = 1;
nodes = (
"39 0 LINE",
"369 0 LINE",
"400 134 LINE",
"323 134 LINE",
"437 301 OFFCURVE",
"560 473 OFFCURVE",
"671 630 CURVE",
"697 740 LINE",
"136 740 LINE",
"81 504 LINE",
"241 504 LINE",
"261 588 LINE",
"452 588 LINE",
"360 454 OFFCURVE",
"246 288 OFFCURVE",
"143 134 CURVE",
"70 134 LINE"
);
}
);
width = 607;
}
);
unicode = 0037;
},
{
glyphname = eight;
lastChange = "2016-08-14 21:02:13 +0000";
layers = (
{
layerId = "EEC59083-BA83-4EFB-8B50-D01213A5FD15";
paths = (
{
closed = 1;
nodes = (
"279 754 OFFCURVE",
"161 655 OFFCURVE",
"161 533 CURVE SMOOTH",
"161 488 OFFCURVE",
"181 445 OFFCURVE",
"213 414 CURVE",
"118 373 OFFCURVE",
"50 288 OFFCURVE",
"50 187 CURVE SMOOTH",
"50 82 OFFCURVE",
"126 -8 OFFCURVE",
"253 -8 CURVE SMOOTH",
"418 -8 OFFCURVE",
"539 106 OFFCURVE",
"539 247 CURVE SMOOTH",
"539 305 OFFCURVE",
"510 359 OFFCURVE",
"465 395 CURVE",
"537 434 OFFCURVE",
"589 503 OFFCURVE",
"589 584 CURVE SMOOTH",
"589 680 OFFCURVE",
"514 754 OFFCURVE",
"412 754 CURVE SMOOTH"
);
},
{
closed = 1;
nodes = (
"145 281 OFFCURVE",
"229 355 OFFCURVE",
"327 355 CURVE SMOOTH",
"397 355 OFFCURVE",
"445 305 OFFCURVE",
"445 242 CURVE SMOOTH",
"445 158 OFFCURVE",
"375 80 OFFCURVE",
"264 80 CURVE SMOOTH",
"190 80 OFFCURVE",
"145 126 OFFCURVE",
"145 195 CURVE SMOOTH"
);
},
{
closed = 1;
nodes = (
"250 608 OFFCURVE",
"322 672 OFFCURVE",
"402 672 CURVE SMOOTH",
"462 672 OFFCURVE",
"499 632 OFFCURVE",
"499 576 CURVE SMOOTH",
"499 503 OFFCURVE",
"423 441 OFFCURVE",
"349 441 CURVE SMOOTH",
"289 441 OFFCURVE",
"250 483 OFFCURVE",
"250 536 CURVE SMOOTH"
);
}
);
width = 609;
},
{
layerId = "8956C7A5-95B5-4256-B2D2-E489185594C4";
paths = (
{
closed = 1;
nodes = (
"255 754 OFFCURVE",
"121 644 OFFCURVE",
"121 509 CURVE SMOOTH",
"121 467 OFFCURVE",
"138 426 OFFCURVE",
"168 394 CURVE",
"87 350 OFFCURVE",
"30 277 OFFCURVE",
"30 192 CURVE SMOOTH",
"30 87 OFFCURVE",
"116 -13 OFFCURVE",
"252 -13 CURVE SMOOTH",
"431 -13 OFFCURVE",
"568 108 OFFCURVE",
"568 244 CURVE SMOOTH",
"568 295 OFFCURVE",
"544 344 OFFCURVE",
"505 380 CURVE",
"575 422 OFFCURVE",
"624 487 OFFCURVE",
"624 561 CURVE SMOOTH",
"624 682 OFFCURVE",
"539 754 OFFCURVE",
"420 754 CURVE SMOOTH"
);
},
{
closed = 1;
nodes = (
"181 271 OFFCURVE",
"248 323 OFFCURVE",
"321 323 CURVE SMOOTH",
"377 323 OFFCURVE",
"415 287 OFFCURVE",
"415 242 CURVE SMOOTH",
"415 183 OFFCURVE",
"347 128 OFFCURVE",
"276 128 CURVE SMOOTH",
"219 128 OFFCURVE",
"181 166 OFFCURVE",
"181 211 CURVE SMOOTH"
);
},
{
closed = 1;
nodes = (
"269 565 OFFCURVE",
"326 613 OFFCURVE",
"388 613 CURVE SMOOTH",
"435 613 OFFCURVE",
"468 580 OFFCURVE",
"468 541 CURVE SMOOTH",
"468 491 OFFCURVE",
"409 446 OFFCURVE",
"349 446 CURVE SMOOTH",
"301 446 OFFCURVE",
"269 477 OFFCURVE",
"269 515 CURVE SMOOTH"
);
}
);
width = 584;
}
);
unicode = 0038;
},
{
glyphname = nine;
lastChange = "2016-08-14 21:02:13 +0000";
layers = (
{
layerId = "EEC59083-BA83-4EFB-8B50-D01213A5FD15";
paths = (
{
closed = 1;
nodes = (
"263 0 LINE",
"498 293 LINE SMOOTH",
"578 394 OFFCURVE",
"607 467 OFFCURVE",
"607 539 CURVE SMOOTH",
"607 652 OFFCURVE",
"521 747 OFFCURVE",
"384 747 CURVE SMOOTH",
"232 747 OFFCURVE",
"90 636 OFFCURVE",
"90 465 CURVE SMOOTH",
"90 348 OFFCURVE",
"181 257 OFFCURVE",
"306 257 CURVE SMOOTH",
"319 257 OFFCURVE",
"338 257 OFFCURVE",
"362 265 CURVE",
"144 0 LINE"
);
},
{
closed = 1;
nodes = (
"253 333 OFFCURVE",
"188 384 OFFCURVE",
"188 468 CURVE SMOOTH",
"188 588 OFFCURVE",
"277 665 OFFCURVE",
"374 665 CURVE SMOOTH",
"459 665 OFFCURVE",
"510 608 OFFCURVE",
"510 534 CURVE SMOOTH",
"510 506 OFFCURVE",
"506 479 OFFCURVE",
"498 454 CURVE",
"459 371 OFFCURVE",
"403 333 OFFCURVE",
"325 333 CURVE SMOOTH"
);
}
);
width = 632;
},
{
layerId = "8956C7A5-95B5-4256-B2D2-E489185594C4";
paths = (
{
closed = 1;
nodes = (
"234 0 LINE",
"493 331 LINE SMOOTH",
"534 384 OFFCURVE",
"574 451 OFFCURVE",
"574 530 CURVE SMOOTH",
"574 620 OFFCURVE",
"524 749 OFFCURVE",
"343 749 CURVE SMOOTH",
"195 749 OFFCURVE",
"62 627 OFFCURVE",
"62 478 CURVE SMOOTH",
"62 374 OFFCURVE",
"136 268 OFFCURVE",
"257 268 CURVE SMOOTH",
"258 268 OFFCURVE",
"261 268 OFFCURVE",
"264 268 CURVE",
"45 0 LINE"
);
},
{
closed = 1;
nodes = (
"249 393 OFFCURVE",
"217 428 OFFCURVE",
"217 482 CURVE SMOOTH",
"217 556 OFFCURVE",
"277 614 OFFCURVE",
"343 614 CURVE SMOOTH",
"404 614 OFFCURVE",
"432 570 OFFCURVE",
"432 523 CURVE SMOOTH",
"432 490 OFFCURVE",
"420 465 OFFCURVE",
"407 445 CURVE",
"381 410 OFFCURVE",
"349 393 OFFCURVE",
"313 393 CURVE SMOOTH"
);
}
);
width = 546;
}
);
unicode = 0039;
},
{
glyphname = less;
lastChange = "2016-08-14 21:02:13 +0000";
layers = (
{
layerId = "EEC59083-BA83-4EFB-8B50-D01213A5FD15";
paths = (
{
closed = 1;
nodes = (
"-3 248 LINE",
"344 99 LINE",
"362 179 LINE",
"107 278 LINE",
"406 372 LINE",
"428 463 LINE",
"13 319 LINE"
);
}
);
width = 521;
},
{
layerId = "8956C7A5-95B5-4256-B2D2-E489185594C4";
paths = (
{
closed = 1;
nodes = (
"50 227 LINE",
"385 88 LINE",
"413 212 LINE",
"221 275 LINE",
"441 336 LINE",
"474 476 LINE",
"77 344 LINE"
);
}
);
width = 474;
}
);
unicode = 003C;
},
{
glyphname = equal;
lastChange = "2016-08-14 21:02:13 +0000";
layers = (
{
layerId = "EEC59083-BA83-4EFB-8B50-D01213A5FD15";
paths = (
{
closed = 1;
nodes = (
"63 164 LINE",
"430 164 LINE",
"449 248 LINE",
"83 248 LINE"
);
},
{
closed = 1;
nodes = (
"104 344 LINE",
"471 344 LINE",
"490 428 LINE",
"124 428 LINE"
);
}
);
width = 514;
},
{
layerId = "8956C7A5-95B5-4256-B2D2-E489185594C4";
paths = (
{
closed = 1;
nodes = (
"50 123 LINE",
"476 123 LINE",
"507 257 LINE",
"81 257 LINE"
);
},
{
closed = 1;
nodes = (
"106 366 LINE",
"532 366 LINE",
"563 500 LINE",
"137 500 LINE"
);
}
);
width = 574;
}
);
unicode = 003D;
},
{
glyphname = greater;
lastChange = "2016-08-14 21:02:13 +0000";
layers = (
{
layerId = "EEC59083-BA83-4EFB-8B50-D01213A5FD15";
paths = (
{
closed = 1;
nodes = (
"398 314 LINE",
"51 463 LINE",
"33 383 LINE",
"287 284 LINE",
"-11 190 LINE",
"-33 99 LINE",
"382 243 LINE"
);
}
);
width = 521;
},
{
layerId = "8956C7A5-95B5-4256-B2D2-E489185594C4";
paths = (
{
closed = 1;
nodes = (
"444 337 LINE",
"109 476 LINE",
"81 352 LINE",
"272 288 LINE",
"53 228 LINE",
"20 88 LINE",
"417 220 LINE"
);
}
);
width = 474;
}
);
unicode = 003E;
},
{
glyphname = question;
lastChange = "2016-08-14 21:02:13 +0000";
layers = (
{
components = (
{
name = dotaccent;
transform = "{1, 0, 0, 1, 2, -623}";
}
);
layerId = "EEC59083-BA83-4EFB-8B50-D01213A5FD15";
paths = (
{
closed = 1;
nodes = (
"243 202 LINE",
"273 332 OFFCURVE",
"303 341 OFFCURVE",
"398 397 CURVE SMOOTH",
"488 452 OFFCURVE",
"538 507 OFFCURVE",
"538 600 CURVE SMOOTH",
"538 682 OFFCURVE",
"471 766 OFFCURVE",
"347 766 CURVE SMOOTH",
"222 766 OFFCURVE",
"127 687 OFFCURVE",
"97 564 CURVE",
"198 555 LINE",
"215 624 OFFCURVE",
"263 673 OFFCURVE",
"335 673 CURVE SMOOTH",
"397 673 OFFCURVE",
"435 635 OFFCURVE",
"435 588 CURVE SMOOTH",
"435 517 OFFCURVE",
"388 492 OFFCURVE",
"296 433 CURVE SMOOTH",
"200 371 OFFCURVE",
"174 338 OFFCURVE",
"146 202 CURVE"
);
}
);
width = 551;
},
{
components = (
{
name = dotaccent;
transform = "{1, 0, 0, 1, 67, -598}";
}
);
layerId = "8956C7A5-95B5-4256-B2D2-E489185594C4";
paths = (
{
closed = 1;
nodes = (
"305 230 LINE",
"324 309 OFFCURVE",
"372 324 OFFCURVE",
"446 372 CURVE SMOOTH",
"540 432 OFFCURVE",
"560 497 OFFCURVE",
"560 575 CURVE SMOOTH",
"560 681 OFFCURVE",
"470 758 OFFCURVE",
"356 758 CURVE SMOOTH",
"222 758 OFFCURVE",
"130 686 OFFCURVE",
"100 546 CURVE",
"261 530 LINE",
"274 595 OFFCURVE",
"309 610 OFFCURVE",
"337 610 CURVE SMOOTH",
"364 610 OFFCURVE",
"386 588 OFFCURVE",
"386 556 CURVE SMOOTH",
"386 517 OFFCURVE",
"374 482 OFFCURVE",
"309 439 CURVE SMOOTH",
"218 380 OFFCURVE",
"173 353 OFFCURVE",
"149 230 CURVE"
);
}
);
width = 530;
}
);
unicode = 003F;
},
{
glyphname = at;
lastChange = "2016-08-14 21:02:13 +0000";
layers = (
{
layerId = "EEC59083-BA83-4EFB-8B50-D01213A5FD15";
paths = (
{
closed = 1;
nodes = (
"731 467 LINE",
"721 422 LINE",
"688 449 OFFCURVE",
"644 464 OFFCURVE",
"594 464 CURVE SMOOTH",
"445 464 OFFCURVE",
"305 350 OFFCURVE",
"305 199 CURVE SMOOTH",
"305 95 OFFCURVE",
"382 4 OFFCURVE",
"498 4 CURVE SMOOTH",
"557 4 OFFCURVE",
"614 24 OFFCURVE",
"661 59 CURVE",
"675 19 OFFCURVE",
"711 -8 OFFCURVE",
"774 -8 CURVE SMOOTH",
"946 -8 OFFCURVE",
"1060 160 OFFCURVE",
"1060 337 CURVE SMOOTH",
"1060 550 OFFCURVE",
"899 728 OFFCURVE",
"648 728 CURVE SMOOTH",
"338 728 OFFCURVE",
"48 487 OFFCURVE",
"48 160 CURVE SMOOTH",
"48 -62 OFFCURVE",
"217 -247 OFFCURVE",
"449 -247 CURVE SMOOTH",
"541 -247 OFFCURVE",
"624 -221 OFFCURVE",
"707 -177 CURVE",
"679 -100 LINE",
"611 -136 OFFCURVE",
"535 -157 OFFCURVE",
"460 -157 CURVE SMOOTH",
"270 -157 OFFCURVE",
"145 -15 OFFCURVE",
"145 166 CURVE SMOOTH",
"145 433 OFFCURVE",
"389 638 OFFCURVE",
"643 638 CURVE SMOOTH",
"836 638 OFFCURVE",
"964 509 OFFCURVE",
"964 329 CURVE SMOOTH",
"964 203 OFFCURVE",
"894 73 OFFCURVE",
"785 73 CURVE SMOOTH",
"744 73 OFFCURVE",
"740 103 OFFCURVE",
"746 143 CURVE",
"821 467 LINE"
);
},
{
closed = 1;
nodes = (
"442 94 OFFCURVE",
"400 144 OFFCURVE",
"400 207 CURVE SMOOTH",
"400 295 OFFCURVE",
"486 376 OFFCURVE",
"580 376 CURVE SMOOTH",
"638 376 OFFCURVE",
"680 348 OFFCURVE",
"693 305 CURVE",
"662 172 LINE",
"630 126 OFFCURVE",
"577 94 OFFCURVE",
"516 94 CURVE SMOOTH"
);
}
);
width = 1148;
},
{
layerId = "8956C7A5-95B5-4256-B2D2-E489185594C4";
paths = (
{
closed = 1;
nodes = (
"679 467 LINE",
"673 441 LINE",
"645 460 OFFCURVE",
"611 473 OFFCURVE",
"563 473 CURVE SMOOTH",
"434 473 OFFCURVE",
"278 373 OFFCURVE",
"278 192 CURVE SMOOTH",
"278 84 OFFCURVE",
"356 -8 OFFCURVE",
"479 -8 CURVE SMOOTH",
"531 -8 OFFCURVE",
"583 11 OFFCURVE",
"624 45 CURVE",
"646 11 OFFCURVE",
"684 -9 OFFCURVE",
"737 -9 CURVE SMOOTH",
"911 -9 OFFCURVE",
"1025 149 OFFCURVE",
"1025 332 CURVE SMOOTH",
"1025 533 OFFCURVE",
"864 707 OFFCURVE",
"625 707 CURVE SMOOTH",
"310 707 OFFCURVE",
"60 473 OFFCURVE",
"60 169 CURVE SMOOTH",
"60 -53 OFFCURVE",
"221 -226 OFFCURVE",
"443 -226 CURVE SMOOTH",
"530 -226 OFFCURVE",
"616 -198 OFFCURVE",
"707 -150 CURVE",
"666 -39 LINE",
"597 -75 OFFCURVE",
"527 -97 OFFCURVE",
"463 -97 CURVE SMOOTH",
"302 -97 OFFCURVE",
"195 13 OFFCURVE",
"195 181 CURVE SMOOTH",
"195 406 OFFCURVE",
"389 578 OFFCURVE",
"618 578 CURVE SMOOTH",
"783 578 OFFCURVE",
"892 459 OFFCURVE",
"892 316 CURVE SMOOTH",
"892 275 OFFCURVE",
"864 103 OFFCURVE",
"768 103 CURVE SMOOTH",
"746 103 OFFCURVE",
"739 123 OFFCURVE",
"746 151 CURVE",
"819 467 LINE"
);
},
{
closed = 1;
nodes = (
"462 135 OFFCURVE",
"429 165 OFFCURVE",
"429 212 CURVE SMOOTH",
"429 278 OFFCURVE",
"492 335 OFFCURVE",
"554 335 CURVE SMOOTH",
"593 335 OFFCURVE",
"625 309 OFFCURVE",
"633 271 CURVE",
"615 192 LINE",
"586 156 OFFCURVE",
"547 135 OFFCURVE",
"509 135 CURVE SMOOTH"
);
}
);
width = 1045;
}
);
unicode = 0040;
},
{
glyphname = A;
lastChange = "2016-09-13 23:37:15 +0000";
layers = (
{
anchors = (
{
name = bottom;
position = "{298, 0}";
},
{
name = ogonek;
position = "{583, 10}";
},
{
name = top;
position = "{459, 740}";
}
);
layerId = "EEC59083-BA83-4EFB-8B50-D01213A5FD15";
paths = (
{
closed = 1;
nodes = (
"430 0 LINE",
"670 0 LINE",
"689 84 LINE",
"616 84 LINE",
"539 740 LINE",
"381 740 LINE",
"10 84 LINE",
"-54 84 LINE",
"-73 0 LINE",
"167 0 LINE",
"186 84 LINE",
"119 84 LINE",
"212 251 LINE",
"493 251 LINE",
"511 84 LINE",
"449 84 LINE"
);
},
{
closed = 1;
nodes = (
"447 671 LINE",
"483 335 LINE",
"259 335 LINE"
);
}
);
width = 712;
},
{
anchors = (
{
name = bottom;
position = "{303, 0}";
},
{
name = ogonek;
position = "{592, 10}";
},
{
name = top;
position = "{477, 740}";
}
);
layerId = "8956C7A5-95B5-4256-B2D2-E489185594C4";
paths = (
{
closed = 1;
nodes = (
"412 0 LINE",
"711 0 LINE",
"742 134 LINE",
"648 134 LINE",
"593 740 LINE",
"380 740 LINE",
"43 134 LINE",
"-19 134 LINE",
"-50 0 LINE",
"249 0 LINE",
"280 134 LINE",
"218 134 LINE",
"272 236 LINE",
"476 236 LINE",
"484 134 LINE",
"443 134 LINE"
);
},
{
closed = 1;
nodes = (
"451 573 LINE",
"466 377 LINE",
"347 377 LINE"
);
}
);
width = 722;
}
);
unicode = 0041;
},
{
glyphname = B;
lastChange = "2016-08-14 21:02:13 +0000";
layers = (
{
anchors = (
{
name = top;
position = "{309, 700}";
}
);
layerId = "EEC59083-BA83-4EFB-8B50-D01213A5FD15";
paths = (
{
closed = 1;
nodes = (
"37 0 LINE",
"373 0 LINE SMOOTH",
"520 0 OFFCURVE",
"638 90 OFFCURVE",
"638 227 CURVE SMOOTH",
"638 287 OFFCURVE",
"613 336 OFFCURVE",
"571 368 CURVE",
"656 401 OFFCURVE",
"706 470 OFFCURVE",
"706 562 CURVE SMOOTH",
"706 666 OFFCURVE",
"643 740 OFFCURVE",
"532 740 CURVE SMOOTH",
"201 740 LINE",
"181 656 LINE",
"253 656 LINE",
"121 84 LINE",
"56 84 LINE"
);
},
{
closed = 1;
nodes = (
"444 329 LINE",
"497 329 OFFCURVE",
"532 285 OFFCURVE",
"532 219 CURVE SMOOTH",
"532 143 OFFCURVE",
"475 84 OFFCURVE",
"387 84 CURVE SMOOTH",
"223 84 LINE",
"279 329 LINE"
);
},
{
closed = 1;
nodes = (
"512 656 LINE",
"571 656 OFFCURVE",
"600 608 OFFCURVE",
"600 547 CURVE SMOOTH",
"600 468 OFFCURVE",
"538 414 OFFCURVE",
"460 414 CURVE SMOOTH",
"299 414 LINE",
"354 656 LINE"
);
}
);
width = 709;
},
{
anchors = (
{
name = top;
position = "{342, 700}";
}
);
layerId = "8956C7A5-95B5-4256-B2D2-E489185594C4";
paths = (
{
closed = 1;
nodes = (
"30 0 LINE",
"420 0 LINE SMOOTH",
"591 0 OFFCURVE",
"700 81 OFFCURVE",
"700 242 CURVE SMOOTH",
"700 291 OFFCURVE",
"681 333 OFFCURVE",
"643 365 CURVE",
"729 405 OFFCURVE",
"760 478 OFFCURVE",
"760 553 CURVE SMOOTH",
"760 660 OFFCURVE",
"691 740 OFFCURVE",
"566 740 CURVE SMOOTH",
"192 740 LINE",
"161 606 LINE",
"245 606 LINE",
"136 134 LINE",
"61 134 LINE"
);
},
{
closed = 1;
nodes = (
"467 306 LINE",
"511 306 OFFCURVE",
"534 277 OFFCURVE",
"534 239 CURVE SMOOTH",
"534 177 OFFCURVE",
"496 134 OFFCURVE",
"428 134 CURVE SMOOTH",
"307 134 LINE",
"347 306 LINE"
);
},
{
closed = 1;
nodes = (
"524 606 LINE",
"571 606 OFFCURVE",
"595 573 OFFCURVE",
"595 534 CURVE SMOOTH",
"595 477 OFFCURVE",
"550 440 OFFCURVE",
"491 440 CURVE SMOOTH",
"378 440 LINE",
"417 606 LINE"
);
}
);
width = 740;
}
);
unicode = 0042;
},
{
glyphname = C;
lastChange = "2016-08-14 21:02:13 +0000";
layers = (
{
anchors = (
{
name = bottom;
position = "{313, 0}";
},
{
name = top;
position = "{466, 740}";
}
);
layerId = "EEC59083-BA83-4EFB-8B50-D01213A5FD15";
paths = (
{
closed = 1;
nodes = (
"587 207 LINE",
"531 126 OFFCURVE",
"457 85 OFFCURVE",
"359 85 CURVE SMOOTH",
"247 85 OFFCURVE",
"146 178 OFFCURVE",
"146 328 CURVE SMOOTH",
"146 508 OFFCURVE",
"273 657 OFFCURVE",
"445 657 CURVE SMOOTH",
"535 657 OFFCURVE",
"603 611 OFFCURVE",
"631 544 CURVE",
"766 544 LINE",
"786 628 LINE",
"709 628 LINE",
"655 706 OFFCURVE",
"565 754 OFFCURVE",
"456 754 CURVE SMOOTH",
"215 754 OFFCURVE",
"37 565 OFFCURVE",
"37 320 CURVE SMOOTH",
"37 130 OFFCURVE",
"170 -12 OFFCURVE",
"348 -12 CURVE SMOOTH",
"497 -12 OFFCURVE",
"605 51 OFFCURVE",
"681 157 CURVE"
);
}
);
width = 717;
},
{
anchors = (
{
name = bottom;
position = "{336, 0}";
},
{
name = top;
position = "{495, 740}";
}
);
layerId = "8956C7A5-95B5-4256-B2D2-E489185594C4";
paths = (
{
closed = 1;
nodes = (
"535 244 LINE",
"499 191 OFFCURVE",
"446 149 OFFCURVE",
"374 149 CURVE SMOOTH",
"284 149 OFFCURVE",
"227 216 OFFCURVE",
"227 313 CURVE SMOOTH",
"227 457 OFFCURVE",
"341 590 OFFCURVE",
"474 590 CURVE SMOOTH",
"537 590 OFFCURVE",
"581 559 OFFCURVE",
"598 515 CURVE",
"788 515 LINE",
"819 649 LINE",
"726 649 LINE",
"677 713 OFFCURVE",
"600 754 OFFCURVE",
"495 754 CURVE SMOOTH",
"273 754 OFFCURVE",
"50 574 OFFCURVE",
"50 297 CURVE SMOOTH",
"50 111 OFFCURVE",
"178 -15 OFFCURVE",
"355 -15 CURVE SMOOTH",
"502 -15 OFFCURVE",
"616 51 OFFCURVE",
"690 167 CURVE"
);
}
);
width = 729;
}
);
unicode = 0043;
},
{
glyphname = D;
lastChange = "2016-08-14 21:02:13 +0000";
layers = (
{
anchors = (
{
name = top;
position = "{305, 700}";
}
);
layerId = "EEC59083-BA83-4EFB-8B50-D01213A5FD15";
paths = (
{
closed = 1;
nodes = (
"188 656 LINE",
"252 656 LINE",
"120 84 LINE",
"56 84 LINE",
"37 0 LINE",
"319 0 LINE SMOOTH",
"567 0 OFFCURVE",
"759 171 OFFCURVE",
"759 427 CURVE SMOOTH",
"759 599 OFFCURVE",
"649 740 OFFCURVE",
"476 740 CURVE SMOOTH",
"208 740 LINE"
);
},
{
closed = 1;
nodes = (
"463 656 LINE",
"578 656 OFFCURVE",
"652 545 OFFCURVE",
"652 419 CURVE SMOOTH",
"652 217 OFFCURVE",
"492 84 OFFCURVE",
"330 84 CURVE SMOOTH",
"222 84 LINE",
"353 656 LINE"
);
}
);
width = 762;
},
{
anchors = (
{
name = top;
position = "{354, 700}";
}
);
layerId = "8956C7A5-95B5-4256-B2D2-E489185594C4";
paths = (
{
closed = 1;
nodes = (
"170 606 LINE",
"246 606 LINE",
"137 134 LINE",
"61 134 LINE",
"30 0 LINE",
"338 0 LINE SMOOTH",
"632 0 OFFCURVE",
"804 193 OFFCURVE",
"804 436 CURVE SMOOTH",
"804 629 OFFCURVE",
"677 740 OFFCURVE",
"498 740 CURVE SMOOTH",
"201 740 LINE"
);
},
{
closed = 1;
nodes = (
"469 606 LINE",
"551 606 OFFCURVE",
"626 558 OFFCURVE",
"626 422 CURVE SMOOTH",
"626 264 OFFCURVE",
"502 134 OFFCURVE",
"360 134 CURVE SMOOTH",
"308 134 LINE",
"417 606 LINE"
);
}
);
width = 774;
}
);
unicode = 0044;
},
{
glyphname = E;
lastChange = "2016-09-13 23:37:15 +0000";
layers = (
{
anchors = (
{
name = bottom;
position = "{288, 0}";
},
{
name = ogonek;
position = "{564, 10}";
},
{
name = top;
position = "{503, 740}";
},
{
name = topleft;
position = "{132, 740}";
}
);
layerId = "EEC59083-BA83-4EFB-8B50-D01213A5FD15";
paths = (
{
closed = 1;
nodes = (
"181 656 LINE",
"253 656 LINE",
"121 84 LINE",
"56 84 LINE",
"37 0 LINE",
"567 0 LINE",
"616 212 LINE",
"514 212 LINE",
"484 84 LINE",
"223 84 LINE",
"281 335 LINE",
"497 335 LINE",
"518 419 LINE",
"300 419 LINE",
"354 656 LINE",
"618 656 LINE",
"588 529 LINE",
"689 529 LINE",
"738 740 LINE",
"201 740 LINE"
);
}
);
width = 691;
},
{
anchors = (
{
name = bottom;
position = "{310, 0}";
},
{
name = ogonek;
position = "{603, 10}";
},
{
name = top;
position = "{522, 740}";
},
{
name = topleft;
position = "{132, 740}";
}
);
layerId = "8956C7A5-95B5-4256-B2D2-E489185594C4";
paths = (
{
closed = 1;
nodes = (
"161 606 LINE",
"246 606 LINE",
"137 134 LINE",
"61 134 LINE",
"30 0 LINE",
"641 0 LINE",
"702 265 LINE",
"531 265 LINE",
"501 134 LINE",
"308 134 LINE",
"348 305 LINE",
"512 305 LINE",
"545 447 LINE",
"380 447 LINE",
"417 606 LINE",
"623 606 LINE",
"596 488 LINE",
"767 488 LINE",
"825 740 LINE",
"192 740 LINE"
);
}
);
width = 735;
}
);
unicode = 0045;
},
{
glyphname = F;
lastChange = "2016-08-14 21:02:13 +0000";
layers = (
{
anchors = (
{
name = top;
position = "{299, 700}";
}
);
layerId = "EEC59083-BA83-4EFB-8B50-D01213A5FD15";
paths = (
{
closed = 1;
nodes = (
"179 656 LINE",
"251 656 LINE",
"119 84 LINE",
"56 84 LINE",
"37 0 LINE",
"277 0 LINE",
"296 84 LINE",
"221 84 LINE",
"278 334 LINE",
"534 334 LINE",
"553 418 LINE",
"298 418 LINE",
"352 656 LINE",
"621 656 LINE",
"593 531 LINE",
"689 531 LINE",
"737 740 LINE",
"199 740 LINE"
);
}
);
width = 650;
},
{
anchors = (
{
name = top;
position = "{319, 700}";
}
);
layerId = "8956C7A5-95B5-4256-B2D2-E489185594C4";
paths = (
{
closed = 1;
nodes = (
"139 606 LINE",
"244 606 LINE",
"135 134 LINE",
"61 134 LINE",
"30 0 LINE",
"360 0 LINE",
"391 134 LINE",
"306 134 LINE",
"343 294 LINE",
"520 294 LINE",
"553 436 LINE",
"376 436 LINE",
"416 606 LINE",
"606 606 LINE",
"579 488 LINE",
"749 488 LINE",
"807 740 LINE",
"170 740 LINE"
);
}
);
width = 667;
}
);
unicode = 0046;
},
{
glyphname = G;
lastChange = "2016-08-14 21:02:13 +0000";
layers = (
{
anchors = (
{
name = top;
position = "{324, 700}";
}
);
layerId = "EEC59083-BA83-4EFB-8B50-D01213A5FD15";
paths = (
{
closed = 1;
nodes = (
"662 0 LINE",
"742 354 LINE",
"428 354 LINE",
"408 268 LINE",
"614 268 LINE",
"570 153 OFFCURVE",
"478 85 OFFCURVE",
"359 85 CURVE SMOOTH",
"242 85 OFFCURVE",
"146 186 OFFCURVE",
"146 328 CURVE SMOOTH",
"146 509 OFFCURVE",
"270 657 OFFCURVE",
"445 657 CURVE SMOOTH",
"535 657 OFFCURVE",
"603 611 OFFCURVE",
"631 544 CURVE",
"766 544 LINE",
"786 628 LINE",
"709 628 LINE",
"667 691 OFFCURVE",
"580 754 OFFCURVE",
"456 754 CURVE SMOOTH",
"213 754 OFFCURVE",
"37 562 OFFCURVE",
"37 320 CURVE SMOOTH",
"37 134 OFFCURVE",
"169 -12 OFFCURVE",
"348 -12 CURVE SMOOTH",
"443 -12 OFFCURVE",
"529 27 OFFCURVE",
"588 108 CURVE",
"564 0 LINE"
);
}
);
width = 789;
},
{
anchors = (
{
name = top;
position = "{354, 700}";
}
);
layerId = "8956C7A5-95B5-4256-B2D2-E489185594C4";
paths = (
{
closed = 1;
nodes = (
"699 0 LINE",
"791 395 LINE",
"447 395 LINE",
"416 261 LINE",
"572 261 LINE",
"544 194 OFFCURVE",
"464 144 OFFCURVE",
"383 144 CURVE SMOOTH",
"292 144 OFFCURVE",
"237 216 OFFCURVE",
"237 313 CURVE SMOOTH",
"237 457 OFFCURVE",
"351 593 OFFCURVE",
"484 593 CURVE SMOOTH",
"548 593 OFFCURVE",
"593 556 OFFCURVE",
"610 515 CURVE",
"800 515 LINE",
"831 649 LINE",
"744 649 LINE",
"696 711 OFFCURVE",
"605 754 OFFCURVE",
"505 754 CURVE SMOOTH",
"283 754 OFFCURVE",
"60 574 OFFCURVE",
"60 297 CURVE SMOOTH",
"60 111 OFFCURVE",
"190 -15 OFFCURVE",
"360 -15 CURVE SMOOTH",
"444 -15 OFFCURVE",
"527 29 OFFCURVE",
"579 111 CURVE",
"553 0 LINE"
);
}
);
width = 769;
}
);
unicode = 0047;
},
{
glyphname = H;
lastChange = "2016-08-14 21:12:47 +0000";
layers = (
{
layerId = "EEC59083-BA83-4EFB-8B50-D01213A5FD15";
paths = (
{
closed = 1;
nodes = (
"701 656 LINE",
"773 656 LINE",
"722 432 LINE",
"303 432 LINE",
"354 656 LINE",
"421 656 LINE",
"441 740 LINE",
"201 740 LINE",
"181 656 LINE",
"253 656 LINE",
"121 84 LINE",
"56 84 LINE",
"37 0 LINE",
"277 0 LINE",
"296 84 LINE",
"223 84 LINE",
"284 350 LINE",
"703 350 LINE",
"641 84 LINE",
"576 84 LINE",
"557 0 LINE",
"797 0 LINE",
"816 84 LINE",
"743 84 LINE",
"874 656 LINE",
"941 656 LINE",
"961 740 LINE",
"721 740 LINE"
);
}
);
width = 944;
},
{
guideLines = (
{
angle = 76.9965;
position = "{192, 370}";
}
);
layerId = "8956C7A5-95B5-4256-B2D2-E489185594C4";
paths = (
{
closed = 1;
nodes = (
"659 606 LINE",
"742 606 LINE",
"707 455 LINE",
"382 455 LINE",
"417 606 LINE",
"492 606 LINE",
"523 740 LINE",
"193 740 LINE",
"162 606 LINE",
"246 606 LINE",
"137 134 LINE",
"61 134 LINE",
"30 0 LINE",
"360 0 LINE",
"391 134 LINE",
"308 134 LINE",
"352 323 LINE",
"677 323 LINE",
"633 134 LINE",
"559 134 LINE",
"528 0 LINE",
"858 0 LINE",
"889 134 LINE",
"804 134 LINE",
"913 606 LINE",
"989 606 LINE",
"1020 740 LINE",
"690 740 LINE"
);
}
);
width = 950;
}
);
unicode = 0048;
},
{
glyphname = I;
lastChange = "2016-09-13 23:37:15 +0000";
layers = (
{
anchors = (
{
name = bottom;
position = "{158, 0}";
},
{
name = ogonek;
position = "{330, 10}";
},
{
name = top;
position = "{338, 740}";
},
{
name = topleft;
position = "{132, 740}";
}
);
layerId = "EEC59083-BA83-4EFB-8B50-D01213A5FD15";
paths = (
{
closed = 1;
nodes = (
"188 656 LINE",
"258 656 LINE",
"126 84 LINE",
"56 84 LINE",
"37 0 LINE",
"277 0 LINE",
"296 84 LINE",
"228 84 LINE",
"359 656 LINE",
"428 656 LINE",
"448 740 LINE",
"208 740 LINE"
);
}
);
width = 431;
},
{
anchors = (
{
name = bottom;
position = "{168, 0}";
},
{
name = ogonek;
position = "{349, 10}";
},
{
name = top;
position = "{352, 740}";
},
{
name = topleft;
position = "{132, 740}";
}
);
layerId = "8956C7A5-95B5-4256-B2D2-E489185594C4";
paths = (
{
closed = 1;
nodes = (
"161 606 LINE",
"246 606 LINE",
"137 134 LINE",
"61 134 LINE",
"30 0 LINE",
"360 0 LINE",
"391 134 LINE",
"308 134 LINE",
"417 606 LINE",
"491 606 LINE",
"522 740 LINE",
"192 740 LINE"
);
}
);
width = 452;
}
);
unicode = 0049;
},
{
glyphname = J;
lastChange = "2016-08-14 21:02:13 +0000";
layers = (
{
anchors = (
{
name = top;
position = "{23, 660}";
}
);
layerId = "EEC59083-BA83-4EFB-8B50-D01213A5FD15";
paths = (
{
closed = 1;
nodes = (
"169 656 LINE",
"242 656 LINE",
"114 100 LINE",
"102 46 OFFCURVE",
"-38 -109 OFFCURVE",
"-38 -109 CURVE",
"44 -116 LINE",
"44 -116 OFFCURVE",
"195 27 OFFCURVE",
"208 84 CURVE",
"340 656 LINE",
"409 656 LINE",
"429 740 LINE",
"189 740 LINE"
);
}
);
width = 372;
},
{
anchors = (
{
name = top;
position = "{61, 660}";
}
);
layerId = "8956C7A5-95B5-4256-B2D2-E489185594C4";
paths = (
{
closed = 1;
nodes = (
"141 606 LINE",
"229 606 LINE",
"112 100 LINE",
"100 46 OFFCURVE",
"-40 -109 OFFCURVE",
"-40 -109 CURVE",
"97 -120 LINE",
"97 -120 OFFCURVE",
"265 27 OFFCURVE",
"278 84 CURVE",
"398 606 LINE",
"471 606 LINE",
"502 740 LINE",
"172 740 LINE"
);
}
);
width = 382;
}
);
unicode = 004A;
},
{
glyphname = K;
lastChange = "2016-08-14 21:02:13 +0000";
layers = (
{
anchors = (
{
name = top;
position = "{351, 700}";
}
);
layerId = "EEC59083-BA83-4EFB-8B50-D01213A5FD15";
paths = (
{
closed = 1;
nodes = (
"292 378 LINE",
"521 84 LINE",
"502 0 LINE",
"701 0 LINE",
"720 84 LINE",
"643 84 LINE",
"414 368 LINE",
"823 656 LINE",
"869 656 LINE",
"889 740 LINE",
"699 740 LINE",
"679 656 LINE"
);
},
{
closed = 1;
nodes = (
"181 656 LINE",
"253 656 LINE",
"121 84 LINE",
"56 84 LINE",
"37 0 LINE",
"277 0 LINE",
"296 84 LINE",
"223 84 LINE",
"354 656 LINE",
"421 656 LINE",
"441 740 LINE",
"201 740 LINE"
);
}
);
width = 802;
},
{
anchors = (
{
name = top;
position = "{366, 700}";
}
);
layerId = "8956C7A5-95B5-4256-B2D2-E489185594C4";
paths = (
{
closed = 1;
nodes = (
"377 387 LINE",
"561 134 LINE",
"530 0 LINE",
"805 0 LINE",
"835 134 LINE",
"763 134 LINE",
"592 373 LINE",
"906 606 LINE",
"971 606 LINE",
"1002 740 LINE",
"700 740 LINE",
"669 607 LINE"
);
},
{
closed = 1;
nodes = (
"161 606 LINE",
"246 606 LINE",
"137 134 LINE",
"61 134 LINE",
"30 0 LINE",
"360 0 LINE",
"391 134 LINE",
"308 134 LINE",
"417 606 LINE",
"491 606 LINE",
"522 740 LINE",
"192 740 LINE"
);
}
);
width = 852;
}
);
unicode = 004B;
},
{
glyphname = L;
lastChange = "2016-08-14 21:02:13 +0000";
layers = (
{
anchors = (
{
name = top;
position = "{305, 700}";
}
);
layerId = "EEC59083-BA83-4EFB-8B50-D01213A5FD15";
paths = (
{
closed = 1;
nodes = (
"181 656 LINE",
"253 656 LINE",
"121 84 LINE",
"56 84 LINE",
"37 0 LINE",
"588 0 LINE",
"639 219 LINE",
"541 219 LINE",
"518 123 LINE",
"513 101 OFFCURVE",
"498 84 OFFCURVE",
"470 84 CURVE SMOOTH",
"223 84 LINE",
"354 656 LINE",
"421 656 LINE",
"441 740 LINE",
"201 740 LINE"
);
}
);
width = 672;
},
{
anchors = (
{
name = top;
position = "{330, 700}";
}
);
layerId = "8956C7A5-95B5-4256-B2D2-E489185594C4";
paths = (
{
closed = 1;
nodes = (
"161 606 LINE",
"245 606 LINE",
"136 134 LINE",
"61 134 LINE",
"30 0 LINE",
"621 0 LINE",
"683 272 LINE",
"518 272 LINE",
"494 174 LINE",
"488 151 OFFCURVE",
"470 134 OFFCURVE",
"447 134 CURVE SMOOTH",
"307 134 LINE",
"417 606 LINE",
"491 606 LINE",
"522 740 LINE",
"192 740 LINE"
);
}
);
width = 643;
}
);
unicode = 004C;
},
{
glyphname = M;
lastChange = "2016-08-14 21:02:13 +0000";
layers = (
{
anchors = (
{
name = top;
position = "{452, 700}";
}
);
layerId = "EEC59083-BA83-4EFB-8B50-D01213A5FD15";
paths = (
{
closed = 1;
nodes = (
"37 0 LINE",
"277 0 LINE",
"296 84 LINE",
"216 84 LINE",
"346 646 LINE",
"445 0 LINE",
"558 0 LINE",
"948 647 LINE",
"818 84 LINE",
"754 84 LINE",
"735 0 LINE",
"975 0 LINE",
"994 84 LINE",
"916 84 LINE",
"1048 656 LINE",
"1115 656 LINE",
"1135 740 LINE",
"904 740 LINE",
"521 105 LINE",
"425 740 LINE",
"201 740 LINE",
"181 656 LINE",
"254 656 LINE",
"122 84 LINE",
"56 84 LINE"
);
}
);
width = 1118;
},
{
anchors = (
{
name = top;
position = "{448, 700}";
}
);
layerId = "8956C7A5-95B5-4256-B2D2-E489185594C4";
paths = (
{
closed = 1;
nodes = (
"25 0 LINE",
"324 0 LINE",
"355 134 LINE",
"285 134 LINE",
"382 537 LINE",
"479 9 LINE",
"626 9 LINE",
"957 531 LINE",
"864 134 LINE",
"808 134 LINE",
"777 0 LINE",
"1076 0 LINE",
"1107 134 LINE",
"1034 134 LINE",
"1144 606 LINE",
"1219 606 LINE",
"1250 740 LINE",
"905 740 LINE",
"603 244 LINE",
"514 740 LINE",
"178 740 LINE",
"147 606 LINE",
"232 606 LINE",
"123 134 LINE",
"56 134 LINE"
);
}
);
width = 1175;
}
);
unicode = 004D;
},
{
glyphname = N;
lastChange = "2016-08-14 21:02:13 +0000";
layers = (
{
anchors = (
{
name = top;
position = "{554, 740}";
}
);
layerId = "EEC59083-BA83-4EFB-8B50-D01213A5FD15";
paths = (
{
closed = 1;
nodes = (
"650 656 LINE",
"722 656 LINE",
"602 132 LINE",
"403 740 LINE",
"200 740 LINE",
"180 656 LINE",
"253 656 LINE",
"121 84 LINE",
"56 84 LINE",
"37 0 LINE",
"277 0 LINE",
"296 84 LINE",
"222 84 LINE",
"343 613 LINE",
"545 0 LINE",
"673 0 LINE",
"823 656 LINE",
"890 656 LINE",
"909 740 LINE",
"669 740 LINE"
);
}
);
width = 872;
},
{
anchors = (
{
name = top;
position = "{567, 740}";
}
);
layerId = "8956C7A5-95B5-4256-B2D2-E489185594C4";
paths = (
{
closed = 1;
nodes = (
"632 606 LINE",
"697 606 LINE",
"622 283 LINE",
"439 740 LINE",
"187 740 LINE",
"156 606 LINE",
"236 606 LINE",
"127 134 LINE",
"61 134 LINE",
"30 0 LINE",
"329 0 LINE",
"360 134 LINE",
"297 134 LINE",
"372 457 LINE",
"560 0 LINE",
"728 0 LINE",
"868 606 LINE",
"931 606 LINE",
"962 740 LINE",
"663 740 LINE"
);
}
);
width = 872;
}
);
unicode = 004E;
},
{
glyphname = O;
lastChange = "2016-09-13 23:37:36 +0000";
layers = (
{
anchors = (
{
name = bottom;
position = "{327, 0}";
},
{
name = center;
position = "{412, 370}";
},
{
name = ogonek;
position = "{635, 10}";
},
{
name = top;
position = "{477, 740}";
},
{
name = topleft;
position = "{132, 740}";
},
{
name = topright;
position = "{624, 740}";
}
);
layerId = "EEC59083-BA83-4EFB-8B50-D01213A5FD15";
paths = (
{
closed = 1;
nodes = (
"585 -15 OFFCURVE",
"767 168 OFFCURVE",
"767 430 CURVE SMOOTH",
"767 635 OFFCURVE",
"623 754 OFFCURVE",
"456 754 CURVE SMOOTH",
"226 754 OFFCURVE",
"37 575 OFFCURVE",
"37 320 CURVE SMOOTH",
"37 117 OFFCURVE",
"181 -15 OFFCURVE",
"348 -15 CURVE SMOOTH"
);
},
{
closed = 1;
nodes = (
"235 84 OFFCURVE",
"146 189 OFFCURVE",
"146 328 CURVE SMOOTH",
"146 517 OFFCURVE",
"284 655 OFFCURVE",
"445 655 CURVE SMOOTH",
"569 655 OFFCURVE",
"658 564 OFFCURVE",
"658 422 CURVE SMOOTH",
"658 231 OFFCURVE",
"528 84 OFFCURVE",
"359 84 CURVE SMOOTH"
);
}
);
width = 770;
},
{
anchors = (
{
name = bottom;
position = "{332, 0}";
},
{
name = center;
position = "{417, 370}";
},
{
name = ogonek;
position = "{644, 10}";
},
{
name = top;
position = "{500, 740}";
},
{
name = topleft;
position = "{132, 740}";
},
{
name = topright;
position = "{695, 740}";
}
);
layerId = "8956C7A5-95B5-4256-B2D2-E489185594C4";
paths = (
{
closed = 1;
nodes = (
"603 -15 OFFCURVE",
"810 170 OFFCURVE",
"810 441 CURVE SMOOTH",
"810 626 OFFCURVE",
"690 754 OFFCURVE",
"505 754 CURVE SMOOTH",
"283 754 OFFCURVE",
"60 574 OFFCURVE",
"60 297 CURVE SMOOTH",
"60 111 OFFCURVE",
"188 -15 OFFCURVE",
"365 -15 CURVE SMOOTH"
);
},
{
closed = 1;
nodes = (
"294 149 OFFCURVE",
"237 216 OFFCURVE",
"237 313 CURVE SMOOTH",
"237 457 OFFCURVE",
"351 590 OFFCURVE",
"484 590 CURVE SMOOTH",
"575 590 OFFCURVE",
"631 523 OFFCURVE",
"631 426 CURVE SMOOTH",
"631 281 OFFCURVE",
"515 149 OFFCURVE",
"384 149 CURVE SMOOTH"
);
}
);
width = 780;
}
);
unicode = 004F;
},
{
glyphname = P;
lastChange = "2016-08-14 21:02:13 +0000";
layers = (
{
layerId = "EEC59083-BA83-4EFB-8B50-D01213A5FD15";
paths = (
{
closed = 1;
nodes = (
"180 656 LINE",
"252 656 LINE",
"120 84 LINE",
"56 84 LINE",
"37 0 LINE",
"277 0 LINE",
"296 84 LINE",
"222 84 LINE",
"276 321 LINE",
"397 321 LINE SMOOTH",
"585 321 OFFCURVE",
"688 421 OFFCURVE",
"688 555 CURVE SMOOTH",
"688 657 OFFCURVE",
"610 740 OFFCURVE",
"497 740 CURVE SMOOTH",
"200 740 LINE"
);
},
{
closed = 1;
nodes = (
"469 656 LINE",
"550 656 OFFCURVE",
"585 604 OFFCURVE",
"585 549 CURVE SMOOTH",
"585 456 OFFCURVE",
"514 405 OFFCURVE",
"408 405 CURVE SMOOTH",
"296 405 LINE",
"353 656 LINE"
);
}
);
width = 661;
},
{
layerId = "8956C7A5-95B5-4256-B2D2-E489185594C4";
paths = (
{
closed = 1;
nodes = (
"161 606 LINE",
"246 606 LINE",
"137 134 LINE",
"61 134 LINE",
"30 0 LINE",
"360 0 LINE",
"391 134 LINE",
"308 134 LINE",
"340 275 LINE",
"428 275 LINE SMOOTH",
"664 275 OFFCURVE",
"751 398 OFFCURVE",
"751 541 CURVE SMOOTH",
"751 653 OFFCURVE",
"672 740 OFFCURVE",
"536 740 CURVE SMOOTH",
"192 740 LINE"
);
},
{
closed = 1;
nodes = (
"469 606 LINE",
"536 606 OFFCURVE",
"570 574 OFFCURVE",
"570 525 CURVE SMOOTH",
"570 445 OFFCURVE",
"511 407 OFFCURVE",
"423 407 CURVE SMOOTH",
"371 407 LINE",
"417 606 LINE"
);
}
);
width = 661;
}
);
unicode = 0050;
},
{
glyphname = Q;
lastChange = "2016-08-14 21:02:13 +0000";
layers = (
{
anchors = (
{
name = top;
position = "{272, 700}";
}
);
layerId = "EEC59083-BA83-4EFB-8B50-D01213A5FD15";
paths = (
{
closed = 1;
nodes = (
"273 -99 LINE",
"279 -97 OFFCURVE",
"289 -95 OFFCURVE",
"298 -94 CURVE SMOOTH",
"372 -82 OFFCURVE",
"412 -159 OFFCURVE",
"509 -159 CURVE SMOOTH",
"571 -159 OFFCURVE",
"654 -122 OFFCURVE",
"687 -49 CURVE",
"621 -15 LINE",
"603 -53 OFFCURVE",
"566 -72 OFFCURVE",
"529 -72 CURVE",
"464 -72 OFFCURVE",
"438 -31 OFFCURVE",
"383 -14 CURVE",
"603 3 OFFCURVE",
"767 181 OFFCURVE",
"767 430 CURVE SMOOTH",
"767 635 OFFCURVE",
"623 754 OFFCURVE",
"456 754 CURVE SMOOTH",
"226 754 OFFCURVE",
"37 575 OFFCURVE",
"37 320 CURVE SMOOTH",
"37 139 OFFCURVE",
"151 15 OFFCURVE",
"293 -10 CURVE"
);
},
{
closed = 1;
nodes = (
"235 84 OFFCURVE",
"146 189 OFFCURVE",
"146 328 CURVE SMOOTH",
"146 517 OFFCURVE",
"284 655 OFFCURVE",
"445 655 CURVE SMOOTH",
"569 655 OFFCURVE",
"658 564 OFFCURVE",
"658 422 CURVE SMOOTH",
"658 231 OFFCURVE",
"528 84 OFFCURVE",
"359 84 CURVE SMOOTH"
);
}
);
width = 761;
},
{
anchors = (
{
name = top;
position = "{298, 700}";
}
);
layerId = "8956C7A5-95B5-4256-B2D2-E489185594C4";
paths = (
{
closed = 1;
nodes = (
"274 -129 LINE",
"290 -124 OFFCURVE",
"300 -123 OFFCURVE",
"316 -123 CURVE SMOOTH",
"391 -123 OFFCURVE",
"447 -193 OFFCURVE",
"521 -193 CURVE SMOOTH",
"616 -193 OFFCURVE",
"710 -131 OFFCURVE",
"743 -36 CURVE",
"646 18 LINE",
"627 -32 OFFCURVE",
"583 -52 OFFCURVE",
"543 -52 CURVE",
"500 -51 OFFCURVE",
"468 -26 OFFCURVE",
"430 -9 CURVE",
"635 25 OFFCURVE",
"800 199 OFFCURVE",
"800 441 CURVE SMOOTH",
"800 626 OFFCURVE",
"680 754 OFFCURVE",
"495 754 CURVE SMOOTH",
"273 754 OFFCURVE",
"50 574 OFFCURVE",
"50 297 CURVE SMOOTH",
"50 130 OFFCURVE",
"153 11 OFFCURVE",
"302 -11 CURVE"
);
},
{
closed = 1;
nodes = (
"284 149 OFFCURVE",
"227 216 OFFCURVE",
"227 313 CURVE SMOOTH",
"227 457 OFFCURVE",
"341 590 OFFCURVE",
"474 590 CURVE SMOOTH",
"565 590 OFFCURVE",
"621 523 OFFCURVE",
"621 426 CURVE SMOOTH",
"621 281 OFFCURVE",
"505 149 OFFCURVE",
"374 149 CURVE SMOOTH"
);
}
);
width = 760;
}
);
unicode = 0051;
},
{
glyphname = R;
lastChange = "2016-08-14 21:02:13 +0000";
layers = (
{
anchors = (
{
name = top;
position = "{285, 660}";
}
);
layerId = "EEC59083-BA83-4EFB-8B50-D01213A5FD15";
paths = (
{
closed = 1;
nodes = (
"180 656 LINE",
"253 656 LINE",
"121 84 LINE",
"56 84 LINE",
"37 0 LINE",
"277 0 LINE",
"296 84 LINE",
"223 84 LINE",
"282 343 LINE",
"362 343 LINE SMOOTH",
"434 343 OFFCURVE",
"470 306 OFFCURVE",
"471 225 CURVE SMOOTH",
"474 0 LINE",
"617 0 LINE",
"636 84 LINE",
"573 84 LINE",
"570 254 LINE SMOOTH",
"569 304 OFFCURVE",
"549 342 OFFCURVE",
"523 360 CURVE",
"612 388 OFFCURVE",
"689 461 OFFCURVE",
"689 567 CURVE SMOOTH",
"689 669 OFFCURVE",
"614 740 OFFCURVE",
"501 740 CURVE SMOOTH",
"200 740 LINE"
);
},
{
closed = 1;
nodes = (
"469 656 LINE",
"550 656 OFFCURVE",
"586 617 OFFCURVE",
"586 562 CURVE SMOOTH",
"586 469 OFFCURVE",
"515 425 OFFCURVE",
"417 425 CURVE SMOOTH",
"301 425 LINE",
"354 656 LINE"
);
}
);
width = 702;
},
{
anchors = (
{
name = top;
position = "{288, 660}";
}
);
layerId = "8956C7A5-95B5-4256-B2D2-E489185594C4";
paths = (
{
closed = 1;
nodes = (
"151 606 LINE",
"236 606 LINE",
"126 134 LINE",
"61 134 LINE",
"30 0 LINE",
"329 0 LINE",
"360 134 LINE",
"297 134 LINE",
"335 295 LINE",
"382 295 LINE SMOOTH",
"461 295 OFFCURVE",
"488 260 OFFCURVE",
"482 176 CURVE SMOOTH",
"470 0 LINE",
"690 0 LINE",
"721 134 LINE",
"651 134 LINE",
"648 240 LINE SMOOTH",
"646 287 OFFCURVE",
"632 318 OFFCURVE",
"611 337 CURVE",
"718 382 OFFCURVE",
"764 447 OFFCURVE",
"764 551 CURVE SMOOTH",
"764 644 OFFCURVE",
"707 740 OFFCURVE",
"576 740 CURVE SMOOTH",
"182 740 LINE"
);
},
{
closed = 1;
nodes = (
"504 606 LINE",
"567 606 OFFCURVE",
"592 576 OFFCURVE",
"592 530 CURVE SMOOTH",
"592 459 OFFCURVE",
"539 427 OFFCURVE",
"458 427 CURVE SMOOTH",
"365 427 LINE",
"407 606 LINE"
);
}
);
width = 724;
}
);
unicode = 0052;
},
{
glyphname = S;
lastChange = "2016-08-14 21:02:13 +0000";
layers = (
{
anchors = (
{
name = bottom;
position = "{245, 0}";
},
{
name = top;
position = "{419, 740}";
}
);
layerId = "EEC59083-BA83-4EFB-8B50-D01213A5FD15";
paths = (
{
closed = 1;
nodes = (
"525 546 LINE",
"652 546 LINE",
"671 624 LINE",
"622 624 LINE",
"599 700 OFFCURVE",
"523 751 OFFCURVE",
"413 751 CURVE SMOOTH",
"237 751 OFFCURVE",
"132 650 OFFCURVE",
"132 517 CURVE SMOOTH",
"132 431 OFFCURVE",
"179 376 OFFCURVE",
"267 348 CURVE",
"352 321 LINE",
"410 302 OFFCURVE",
"458 275 OFFCURVE",
"458 213 CURVE SMOOTH",
"458 132 OFFCURVE",
"387 74 OFFCURVE",
"290 74 CURVE SMOOTH",
"195 74 OFFCURVE",
"141 108 OFFCURVE",
"150 179 CURVE",
"159 215 LINE",
"26 215 LINE",
"7 137 LINE",
"53 137 LINE",
"62 57 OFFCURVE",
"119 -15 OFFCURVE",
"273 -15 CURVE SMOOTH",
"445 -15 OFFCURVE",
"562 83 OFFCURVE",
"562 228 CURVE SMOOTH",
"562 319 OFFCURVE",
"515 371 OFFCURVE",
"421 403 CURVE",
"330 436 LINE SMOOTH",
"287 451 OFFCURVE",
"232 463 OFFCURVE",
"232 528 CURVE SMOOTH",
"232 601 OFFCURVE",
"296 663 OFFCURVE",
"404 663 CURVE SMOOTH",
"479 663 OFFCURVE",
"542 624 OFFCURVE",
"527 555 CURVE"
);
}
);
width = 624;
},
{
anchors = (
{
name = bottom;
position = "{285, 0}";
},
{
name = top;
position = "{423, 740}";
}
);
layerId = "8956C7A5-95B5-4256-B2D2-E489185594C4";
paths = (
{
closed = 1;
nodes = (
"499 498 LINE",
"676 498 LINE",
"705 623 LINE",
"649 623 LINE",
"639 693 OFFCURVE",
"555 753 OFFCURVE",
"431 753 CURVE SMOOTH",
"253 753 OFFCURVE",
"127 673 OFFCURVE",
"127 512 CURVE SMOOTH",
"127 422 OFFCURVE",
"181 354 OFFCURVE",
"259 328 CURVE",
"343 299 LINE",
"388 284 OFFCURVE",
"427 267 OFFCURVE",
"427 224 CURVE SMOOTH",
"427 168 OFFCURVE",
"382 127 OFFCURVE",
"309 127 CURVE SMOOTH",
"232 127 OFFCURVE",
"199 165 OFFCURVE",
"208 223 CURVE",
"217 260 LINE",
"39 260 LINE",
"10 135 LINE",
"65 135 LINE",
"76 45 OFFCURVE",
"162 -12 OFFCURVE",
"286 -12 CURVE SMOOTH",
"470 -12 OFFCURVE",
"603 84 OFFCURVE",
"603 245 CURVE SMOOTH",
"603 332 OFFCURVE",
"566 394 OFFCURVE",
"483 424 CURVE",
"382 461 LINE SMOOTH",
"343 475 OFFCURVE",
"295 485 OFFCURVE",
"295 535 CURVE SMOOTH",
"295 593 OFFCURVE",
"349 617 OFFCURVE",
"413 617 CURVE SMOOTH",
"475 617 OFFCURVE",
"520 581 OFFCURVE",
"504 519 CURVE"
);
}
);
width = 619;
}
);
unicode = 0053;
},
{
glyphname = T;
lastChange = "2016-08-14 21:02:13 +0000";
layers = (
{
anchors = (
{
name = top;
position = "{272, 700}";
}
);
layerId = "EEC59083-BA83-4EFB-8B50-D01213A5FD15";
paths = (
{
closed = 1;
nodes = (
"152 0 LINE",
"392 0 LINE",
"411 84 LINE",
"341 84 LINE",
"473 660 LINE",
"653 660 LINE",
"627 545 LINE",
"727 545 LINE",
"772 740 LINE",
"112 740 LINE",
"67 545 LINE",
"167 545 LINE",
"193 660 LINE",
"372 660 LINE",
"239 84 LINE",
"171 84 LINE"
);
}
);
width = 675;
},
{
anchors = (
{
name = top;
position = "{296, 700}";
}
);
layerId = "8956C7A5-95B5-4256-B2D2-E489185594C4";
paths = (
{
closed = 1;
nodes = (
"136 0 LINE",
"466 0 LINE",
"497 134 LINE",
"415 134 LINE",
"524 606 LINE",
"619 606 LINE",
"598 515 LINE",
"766 515 LINE",
"818 740 LINE",
"122 740 LINE",
"70 515 LINE",
"238 515 LINE",
"259 606 LINE",
"354 606 LINE",
"244 134 LINE",
"167 134 LINE"
);
}
);
width = 668;
}
);
unicode = 0054;
},
{
glyphname = U;
lastChange = "2016-09-13 23:38:37 +0000";
layers = (
{
anchors = (
{
name = bottom;
position = "{328, 0}";
},
{
name = ogonek;
position = "{637, 10}";
},
{
name = top;
position = "{483, 740}";
},
{
name = topright;
position = "{808, 740}";
}
);
layerId = "EEC59083-BA83-4EFB-8B50-D01213A5FD15";
paths = (
{
closed = 1;
nodes = (
"118 656 LINE",
"188 656 LINE",
"109 312 LINE",
"102 280 OFFCURVE",
"98 251 OFFCURVE",
"98 222 CURVE SMOOTH",
"95 74 OFFCURVE",
"202 -12 OFFCURVE",
"344 -12 CURVE SMOOTH",
"505 -12 OFFCURVE",
"623 80 OFFCURVE",
"674 303 CURVE",
"755 656 LINE",
"820 656 LINE",
"839 740 LINE",
"599 740 LINE",
"580 656 LINE",
"654 656 LINE",
"575 312 LINE SMOOTH",
"536 143 OFFCURVE",
"461 86 OFFCURVE",
"353 86 CURVE SMOOTH",
"246 86 OFFCURVE",
"200 160 OFFCURVE",
"201 232 CURVE SMOOTH",
"201 264 OFFCURVE",
"206 289 OFFCURVE",
"211 312 CURVE SMOOTH",
"290 656 LINE",
"358 656 LINE",
"377 740 LINE",
"137 740 LINE"
);
}
);
width = 772;
},
{
anchors = (
{
name = bottom;
position = "{317, 0}";
},
{
name = ogonek;
position = "{616, 10}";
},
{
name = top;
position = "{495, 740}";
},
{
name = topright;
position = "{841, 740}";
}
);
layerId = "8956C7A5-95B5-4256-B2D2-E489185594C4";
paths = (
{
closed = 1;
nodes = (
"106 606 LINE",
"179 606 LINE",
"110 309 LINE",
"103 277 OFFCURVE",
"100 247 OFFCURVE",
"100 221 CURVE SMOOTH",
"100 74 OFFCURVE",
"205 -15 OFFCURVE",
"352 -15 CURVE SMOOTH",
"531 -15 OFFCURVE",
"642 71 OFFCURVE",
"689 277 CURVE",
"765 606 LINE",
"828 606 LINE",
"859 740 LINE",
"560 740 LINE",
"529 606 LINE",
"596 606 LINE",
"525 299 LINE SMOOTH",
"497 179 OFFCURVE",
"452 139 OFFCURVE",
"377 139 CURVE SMOOTH",
"299 139 OFFCURVE",
"271 190 OFFCURVE",
"271 247 CURVE SMOOTH",
"271 264 OFFCURVE",
"273 281 OFFCURVE",
"277 299 CURVE SMOOTH",
"348 606 LINE",
"405 606 LINE",
"436 740 LINE",
"137 740 LINE"
);
}
);
width = 749;
}
);
unicode = 0055;
},
{
glyphname = V;
lastChange = "2016-08-14 21:02:13 +0000";
layers = (
{
anchors = (
{
name = top;
position = "{302, 700}";
}
);
layerId = "EEC59083-BA83-4EFB-8B50-D01213A5FD15";
paths = (
{
closed = 1;
nodes = (
"556 656 LINE",
"622 656 LINE",
"307 85 LINE",
"258 656 LINE",
"327 656 LINE",
"346 740 LINE",
"106 740 LINE",
"87 656 LINE",
"155 656 LINE",
"218 0 LINE",
"367 0 LINE",
"731 656 LINE",
"796 656 LINE",
"815 740 LINE",
"575 740 LINE"
);
}
);
width = 718;
},
{
anchors = (
{
name = top;
position = "{305, 700}";
}
);
layerId = "8956C7A5-95B5-4256-B2D2-E489185594C4";
paths = (
{
closed = 1;
nodes = (
"513 606 LINE",
"570 606 LINE",
"354 223 LINE",
"324 606 LINE",
"379 606 LINE",
"410 740 LINE",
"111 740 LINE",
"80 606 LINE",
"156 606 LINE",
"208 0 LINE",
"407 0 LINE",
"753 606 LINE",
"812 606 LINE",
"843 740 LINE",
"544 740 LINE"
);
}
);
width = 683;
}
);
unicode = 0056;
},
{
glyphname = W;
lastChange = "2016-08-14 21:02:13 +0000";
layers = (
{
anchors = (
{
name = top;
position = "{522, 700}";
}
);
layerId = "EEC59083-BA83-4EFB-8B50-D01213A5FD15";
paths = (
{
closed = 1;
nodes = (
"967 656 LINE",
"1041 656 LINE",
"746 95 LINE",
"722 740 LINE",
"618 740 LINE",
"296 95 LINE",
"262 656 LINE",
"327 656 LINE",
"346 740 LINE",
"106 740 LINE",
"87 656 LINE",
"162 656 LINE",
"206 0 LINE",
"345 0 LINE",
"631 572 LINE",
"657 0 LINE",
"796 0 LINE",
"1139 656 LINE",
"1207 656 LINE",
"1226 740 LINE",
"986 740 LINE"
);
}
);
width = 1109;
},
{
anchors = (
{
name = top;
position = "{509, 700}";
}
);
layerId = "8956C7A5-95B5-4256-B2D2-E489185594C4";
paths = (
{
closed = 1;
nodes = (
"904 606 LINE",
"980 606 LINE",
"777 203 LINE",
"769 740 LINE",
"593 740 LINE",
"334 201 LINE",
"315 606 LINE",
"376 606 LINE",
"407 740 LINE",
"108 740 LINE",
"77 606 LINE",
"157 606 LINE",
"191 0 LINE",
"391 0 LINE",
"624 476 LINE",
"628 0 LINE",
"828 0 LINE",
"1145 606 LINE",
"1203 606 LINE",
"1234 740 LINE",
"935 740 LINE"
);
}
);
width = 999;
}
);
unicode = 0057;
},
{
glyphname = X;
lastChange = "2016-08-14 21:02:13 +0000";
layers = (
{
anchors = (
{
name = top;
position = "{278, 700}";
}
);
layerId = "EEC59083-BA83-4EFB-8B50-D01213A5FD15";
paths = (
{
closed = 1;
nodes = (
"523 656 LINE",
"588 656 LINE",
"401 459 LINE",
"307 656 LINE",
"371 656 LINE",
"391 740 LINE",
"151 740 LINE",
"131 656 LINE",
"202 656 LINE",
"333 387 LINE",
"45 84 LINE",
"-14 84 LINE",
"-33 0 LINE",
"207 0 LINE",
"226 84 LINE",
"168 84 LINE",
"375 302 LINE",
"481 84 LINE",
"415 84 LINE",
"396 0 LINE",
"636 0 LINE",
"655 84 LINE",
"582 84 LINE",
"443 373 LINE",
"712 656 LINE",
"763 656 LINE",
"783 740 LINE",
"543 740 LINE"
);
}
);
width = 726;
},
{
anchors = (
{
name = top;
position = "{360, 700}";
}
);
layerId = "8956C7A5-95B5-4256-B2D2-E489185594C4";
paths = (
{
closed = 1;
nodes = (
"559 606 LINE",
"608 606 LINE",
"475 489 LINE",
"399 606 LINE",
"456 606 LINE",
"487 740 LINE",
"157 740 LINE",
"126 606 LINE",
"210 606 LINE",
"355 384 LINE",
"70 134 LINE",
"11 134 LINE",
"-20 0 LINE",
"310 0 LINE",
"341 134 LINE",
"292 134 LINE",
"436 261 LINE",
"519 134 LINE",
"461 134 LINE",
"430 0 LINE",
"760 0 LINE",
"791 134 LINE",
"708 134 LINE",
"556 366 LINE",
"828 606 LINE",
"889 606 LINE",
"920 740 LINE",
"590 740 LINE"
);
}
);
width = 790;
}
);
unicode = 0058;
},
{
glyphname = Y;
lastChange = "2016-09-13 23:37:15 +0000";
layers = (
{
anchors = (
{
name = bottom;
position = "{265, 0}";
},
{
name = top;
position = "{430, 740}";
},
{
name = topleft;
position = "{132, 740}";
}
);
layerId = "EEC59083-BA83-4EFB-8B50-D01213A5FD15";
paths = (
{
closed = 1;
nodes = (
"87 656 LINE",
"159 656 LINE",
"285 337 LINE",
"227 84 LINE",
"158 84 LINE",
"139 0 LINE",
"379 0 LINE",
"398 84 LINE",
"329 84 LINE",
"388 335 LINE",
"674 656 LINE",
"734 656 LINE",
"753 740 LINE",
"513 740 LINE",
"494 656 LINE",
"553 656 LINE",
"353 425 LINE",
"267 656 LINE",
"327 656 LINE",
"346 740 LINE",
"106 740 LINE"
);
}
);
width = 646;
},
{
anchors = (
{
name = bottom;
position = "{282, 0}";
},
{
name = top;
position = "{479, 740}";
},
{
name = topleft;
position = "{132, 740}";
}
);
layerId = "8956C7A5-95B5-4256-B2D2-E489185594C4";
paths = (
{
closed = 1;
nodes = (
"90 606 LINE",
"155 606 LINE",
"292 310 LINE",
"252 134 LINE",
"174 134 LINE",
"143 0 LINE",
"473 0 LINE",
"504 134 LINE",
"421 134 LINE",
"459 300 LINE",
"750 606 LINE",
"799 606 LINE",
"830 740 LINE",
"531 740 LINE",
"500 606 LINE",
"543 606 LINE",
"403 446 LINE",
"338 606 LINE",
"389 606 LINE",
"420 740 LINE",
"121 740 LINE"
);
}
);
width = 680;
}
);
unicode = 0059;
},
{
glyphname = Z;
lastChange = "2016-08-14 21:02:13 +0000";
layers = (
{
anchors = (
{
name = top;
position = "{406, 740}";
}
);
layerId = "EEC59083-BA83-4EFB-8B50-D01213A5FD15";
paths = (
{
closed = 1;
nodes = (
"701 740 LINE",
"163 740 LINE",
"114 528 LINE",
"215 528 LINE",
"244 654 LINE",
"566 654 LINE",
"12 113 LINE",
"-13 0 LINE",
"529 0 LINE",
"577 210 LINE",
"476 210 LINE",
"448 87 LINE",
"115 87 LINE",
"678 634 LINE"
);
}
);
width = 634;
},
{
anchors = (
{
name = top;
position = "{432, 740}";
}
);
layerId = "8956C7A5-95B5-4256-B2D2-E489185594C4";
paths = (
{
closed = 1;
nodes = (
"731 740 LINE",
"163 740 LINE",
"102 478 LINE",
"270 478 LINE",
"299 606 LINE",
"497 606 LINE",
"30 153 LINE",
"-5 0 LINE",
"569 0 LINE",
"629 260 LINE",
"459 260 LINE",
"430 134 LINE",
"220 134 LINE",
"696 587 LINE"
);
}
);
width = 621;
}
);
unicode = 005A;
},
{
glyphname = bracketleft;
lastChange = "2016-08-14 21:02:13 +0000";
layers = (
{
layerId = "EEC59083-BA83-4EFB-8B50-D01213A5FD15";
paths = (
{
closed = 1;
nodes = (
"11 -104 LINE",
"218 -104 LINE",
"235 -30 LINE",
"128 -30 LINE",
"311 766 LINE",
"418 766 LINE",
"435 840 LINE",
"228 840 LINE"
);
}
);
width = 372;
},
{
layerId = "8956C7A5-95B5-4256-B2D2-E489185594C4";
paths = (
{
closed = 1;
nodes = (
"-20 -141 LINE",
"257 -141 LINE",
"285 -20 LINE",
"176 -20 LINE",
"360 776 LINE",
"469 776 LINE",
"497 896 LINE",
"220 896 LINE"
);
}
);
width = 377;
}
);
unicode = 005B;
},
{
glyphname = backslash;
lastChange = "2016-08-14 21:02:13 +0000";
layers = (
{
layerId = "EEC59083-BA83-4EFB-8B50-D01213A5FD15";
paths = (
{
closed = 1;
nodes = (
"212 -12 LINE",
"292 -12 LINE",
"128 772 LINE",
"49 772 LINE"
);
}
);
width = 342;
},
{
layerId = "8956C7A5-95B5-4256-B2D2-E489185594C4";
paths = (
{
closed = 1;
nodes = (
"167 -43 LINE",
"285 -43 LINE",
"195 776 LINE",
"80 776 LINE"
);
}
);
width = 405;
}
);
unicode = 005C;
},
{
glyphname = bracketright;
lastChange = "2016-08-14 21:02:13 +0000";
layers = (
{
layerId = "EEC59083-BA83-4EFB-8B50-D01213A5FD15";
paths = (
{
closed = 1;
nodes = (
"87 -30 LINE",
"-20 -30 LINE",
"-37 -104 LINE",
"170 -104 LINE",
"387 840 LINE",
"180 840 LINE",
"163 766 LINE",
"271 766 LINE"
);
}
);
width = 372;
},
{
layerId = "8956C7A5-95B5-4256-B2D2-E489185594C4";
paths = (
{
closed = 1;
nodes = (
"17 -20 LINE",
"-92 -20 LINE",
"-120 -141 LINE",
"157 -141 LINE",
"397 896 LINE",
"120 896 LINE",
"92 776 LINE",
"201 776 LINE"
);
}
);
width = 347;
}
);
unicode = 005D;
},
{
glyphname = asciicircum;
lastChange = "2016-08-14 21:02:13 +0000";
layers = (
{
layerId = "EEC59083-BA83-4EFB-8B50-D01213A5FD15";
paths = (
{
closed = 1;
nodes = (
"327 740 LINE",
"40 354 LINE",
"114 354 LINE",
"342 660 LINE",
"424 354 LINE",
"491 354 LINE",
"383 740 LINE"
);
}
);
width = 501;
},
{
layerId = "8956C7A5-95B5-4256-B2D2-E489185594C4";
paths = (
{
closed = 1;
nodes = (
"343 740 LINE",
"50 354 LINE",
"181 354 LINE",
"374 610 LINE",
"441 354 LINE",
"562 354 LINE",
"455 740 LINE"
);
}
);
width = 524;
}
);
unicode = 005E;
},
{
glyphname = underscore;
lastChange = "2016-08-14 21:02:13 +0000";
layers = (
{
layerId = "EEC59083-BA83-4EFB-8B50-D01213A5FD15";
paths = (
{
closed = 1;
nodes = (
"-57 -125 LINE",
"443 -125 LINE",
"455 -75 LINE",
"-45 -75 LINE"
);
}
);
width = 512;
},
{
layerId = "8956C7A5-95B5-4256-B2D2-E489185594C4";
paths = (
{
closed = 1;
nodes = (
"-40 -169 LINE",
"460 -169 LINE",
"489 -44 LINE",
"-11 -44 LINE"
);
}
);
width = 529;
}
);
unicode = 005F;
},
{
glyphname = grave;
lastChange = "2016-08-14 21:05:51 +0000";
layers = (
{
anchors = (
{
name = _top;
position = "{292, 506}";
}
);
layerId = "EEC59083-BA83-4EFB-8B50-D01213A5FD15";
paths = (
{
closed = 1;
nodes = (
"311 572 LINE",
"229 705 LINE",
"105 705 LINE",
"105 697 LINE",
"237 572 LINE"
);
}
);
width = 265;
},
{
anchors = (
{
name = _top;
position = "{246, 506}";
}
);
layerId = "8956C7A5-95B5-4256-B2D2-E489185594C4";
paths = (
{
closed = 1;
nodes = (
"309 594 LINE",
"209 753 LINE",
"50 753 LINE",
"50 741 LINE",
"197 594 LINE"
);
}
);
width = 359;
}
);
unicode = 0060;
},
{
glyphname = a;
lastChange = "2016-09-13 23:37:15 +0000";
layers = (
{
anchors = (
{
name = bottom;
position = "{267, 0}";
},
{
name = ogonek;
position = "{526, 10}";
},
{
name = top;
position = "{416, 506}";
}
);
layerId = "EEC59083-BA83-4EFB-8B50-D01213A5FD15";
paths = (
{
closed = 1;
nodes = (
"493 506 LINE",
"486 479 LINE",
"459 503 OFFCURVE",
"414 519 OFFCURVE",
"365 519 CURVE SMOOTH",
"194 519 OFFCURVE",
"52 387 OFFCURVE",
"52 198 CURVE SMOOTH",
"52 82 OFFCURVE",
"139 -9 OFFCURVE",
"250 -9 CURVE SMOOTH",
"296 -9 OFFCURVE",
"340 5 OFFCURVE",
"384 35 CURVE",
"376 0 LINE",
"553 0 LINE",
"572 84 LINE",
"493 84 LINE",
"591 506 LINE"
);
},
{
closed = 1;
nodes = (
"202 75 OFFCURVE",
"153 125 OFFCURVE",
"153 208 CURVE SMOOTH",
"153 351 OFFCURVE",
"258 435 OFFCURVE",
"358 435 CURVE SMOOTH",
"415 435 OFFCURVE",
"451 417 OFFCURVE",
"467 396 CURVE",
"405 125 LINE",
"374 100 OFFCURVE",
"322 75 OFFCURVE",
"273 75 CURVE SMOOTH"
);
}
);
width = 649;
},
{
anchors = (
{
name = bottom;
position = "{282, 0}";
},
{
name = ogonek;
position = "{553, 10}";
},
{
name = top;
position = "{438, 506}";
}
);
layerId = "8956C7A5-95B5-4256-B2D2-E489185594C4";
paths = (
{
closed = 1;
nodes = (
"492 506 LINE",
"486 481 LINE",
"461 501 OFFCURVE",
"411 518 OFFCURVE",
"364 518 CURVE SMOOTH",
"203 518 OFFCURVE",
"50 402 OFFCURVE",
"50 214 CURVE SMOOTH",
"50 69 OFFCURVE",
"156 -8 OFFCURVE",
"261 -8 CURVE SMOOTH",
"316 -8 OFFCURVE",
"359 13 OFFCURVE",
"384 39 CURVE",
"375 0 LINE",
"634 0 LINE",
"665 134 LINE",
"572 134 LINE",
"658 506 LINE"
);
},
{
closed = 1;
nodes = (
"257 143 OFFCURVE",
"215 175 OFFCURVE",
"215 237 CURVE SMOOTH",
"215 311 OFFCURVE",
"276 370 OFFCURVE",
"346 370 CURVE SMOOTH",
"389 370 OFFCURVE",
"431 350 OFFCURVE",
"448 314 CURVE",
"423 208 LINE",
"396 164 OFFCURVE",
"349 143 OFFCURVE",
"307 143 CURVE SMOOTH"
);
}
);
width = 679;
}
);
unicode = 0061;
},
{
glyphname = b;
lastChange = "2016-08-14 21:02:13 +0000";
layers = (
{
anchors = (
{
name = top;
position = "{171, 506}";
}
);
layerId = "EEC59083-BA83-4EFB-8B50-D01213A5FD15";
paths = (
{
closed = 1;
nodes = (
"104 676 LINE",
"197 676 LINE",
"42 0 LINE",
"140 0 LINE",
"147 31 LINE",
"174 8 OFFCURVE",
"220 -9 OFFCURVE",
"270 -9 CURVE SMOOTH",
"441 -9 OFFCURVE",
"583 123 OFFCURVE",
"583 312 CURVE SMOOTH",
"583 428 OFFCURVE",
"496 519 OFFCURVE",
"385 519 CURVE SMOOTH",
"337 519 OFFCURVE",
"293 504 OFFCURVE",
"249 474 CURVE",
"315 760 LINE",
"124 760 LINE"
);
},
{
closed = 1;
nodes = (
"433 435 OFFCURVE",
"482 385 OFFCURVE",
"482 302 CURVE SMOOTH",
"482 159 OFFCURVE",
"377 75 OFFCURVE",
"277 75 CURVE SMOOTH",
"219 75 OFFCURVE",
"183 93 OFFCURVE",
"166 115 CURVE",
"228 383 LINE",
"267 415 OFFCURVE",
"316 435 OFFCURVE",
"362 435 CURVE SMOOTH"
);
}
);
width = 621;
},
{
anchors = (
{
name = top;
position = "{225, 506}";
}
);
layerId = "8956C7A5-95B5-4256-B2D2-E489185594C4";
paths = (
{
closed = 1;
nodes = (
"98 626 LINE",
"194 626 LINE",
"50 0 LINE",
"216 0 LINE",
"222 28 LINE",
"248 8 OFFCURVE",
"297 -8 OFFCURVE",
"344 -8 CURVE SMOOTH",
"518 -8 OFFCURVE",
"658 117 OFFCURVE",
"658 296 CURVE SMOOTH",
"658 441 OFFCURVE",
"557 518 OFFCURVE",
"447 518 CURVE SMOOTH",
"392 518 OFFCURVE",
"350 498 OFFCURVE",
"325 472 CURVE",
"391 760 LINE",
"129 760 LINE"
);
},
{
closed = 1;
nodes = (
"451 367 OFFCURVE",
"493 335 OFFCURVE",
"493 273 CURVE SMOOTH",
"493 199 OFFCURVE",
"432 140 OFFCURVE",
"362 140 CURVE SMOOTH",
"319 140 OFFCURVE",
"278 159 OFFCURVE",
"261 195 CURVE",
"286 303 LINE",
"313 347 OFFCURVE",
"360 367 OFFCURVE",
"401 367 CURVE SMOOTH"
);
}
);
width = 648;
}
);
unicode = 0062;
},
{
glyphname = c;
lastChange = "2016-08-14 21:02:13 +0000";
layers = (
{
anchors = (
{
name = bottom;
position = "{274, 0}";
},
{
name = top;
position = "{350, 506}";
}
);
layerId = "EEC59083-BA83-4EFB-8B50-D01213A5FD15";
paths = (
{
closed = 1;
nodes = (
"552 357 LINE",
"566 441 LINE",
"505 441 LINE",
"464 496 OFFCURVE",
"397 521 OFFCURVE",
"332 521 CURVE SMOOTH",
"193 521 OFFCURVE",
"47 396 OFFCURVE",
"47 219 CURVE SMOOTH",
"47 89 OFFCURVE",
"144 -12 OFFCURVE",
"277 -12 CURVE SMOOTH",
"350 -12 OFFCURVE",
"429 14 OFFCURVE",
"480 86 CURVE",
"409 139 LINE",
"371 91 OFFCURVE",
"333 75 OFFCURVE",
"281 75 CURVE SMOOTH",
"210 75 OFFCURVE",
"149 127 OFFCURVE",
"149 225 CURVE SMOOTH",
"149 359 OFFCURVE",
"252 435 OFFCURVE",
"323 435 CURVE SMOOTH",
"379 435 OFFCURVE",
"429 409 OFFCURVE",
"450 357 CURVE"
);
}
);
width = 564;
},
{
anchors = (
{
name = bottom;
position = "{272, 0}";
},
{
name = top;
position = "{355, 506}";
}
);
layerId = "8956C7A5-95B5-4256-B2D2-E489185594C4";
paths = (
{
closed = 1;
nodes = (
"577 326 LINE",
"608 460 LINE",
"514 460 LINE",
"475 497 OFFCURVE",
"422 521 OFFCURVE",
"359 521 CURVE SMOOTH",
"194 521 OFFCURVE",
"50 399 OFFCURVE",
"50 213 CURVE SMOOTH",
"50 89 OFFCURVE",
"148 -12 OFFCURVE",
"279 -12 CURVE SMOOTH",
"401 -12 OFFCURVE",
"499 51 OFFCURVE",
"540 132 CURVE",
"407 204 LINE",
"384 164 OFFCURVE",
"349 136 OFFCURVE",
"295 136 CURVE SMOOTH",
"249 136 OFFCURVE",
"209 173 OFFCURVE",
"209 231 CURVE SMOOTH",
"209 309 OFFCURVE",
"269 372 OFFCURVE",
"342 372 CURVE SMOOTH",
"374 372 OFFCURVE",
"406 353 OFFCURVE",
"416 326 CURVE"
);
}
);
width = 572;
}
);
unicode = 0063;
},
{
glyphname = d;
lastChange = "2016-08-14 21:02:13 +0000";
layers = (
{
anchors = (
{
name = top;
position = "{213, 506}";
}
);
layerId = "EEC59083-BA83-4EFB-8B50-D01213A5FD15";
paths = (
{
closed = 1;
nodes = (
"451 676 LINE",
"536 676 LINE",
"491 479 LINE",
"458 505 OFFCURVE",
"412 521 OFFCURVE",
"360 521 CURVE SMOOTH",
"194 521 OFFCURVE",
"57 387 OFFCURVE",
"57 208 CURVE SMOOTH",
"57 85 OFFCURVE",
"149 -10 OFFCURVE",
"264 -10 CURVE SMOOTH",
"311 -10 OFFCURVE",
"352 7 OFFCURVE",
"388 33 CURVE",
"381 0 LINE",
"563 0 LINE",
"582 84 LINE",
"498 84 LINE",
"654 760 LINE",
"471 760 LINE"
);
},
{
closed = 1;
nodes = (
"212 75 OFFCURVE",
"158 130 OFFCURVE",
"158 217 CURVE SMOOTH",
"158 350 OFFCURVE",
"256 435 OFFCURVE",
"354 435 CURVE SMOOTH",
"409 435 OFFCURVE",
"447 419 OFFCURVE",
"471 391 CURVE",
"411 129 LINE",
"375 94 OFFCURVE",
"328 75 OFFCURVE",
"287 75 CURVE SMOOTH"
);
}
);
width = 657;
},
{
anchors = (
{
name = top;
position = "{237, 506}";
}
);
layerId = "8956C7A5-95B5-4256-B2D2-E489185594C4";
paths = (
{
closed = 1;
nodes = (
"418 626 LINE",
"519 626 LINE",
"486 483 LINE",
"460 504 OFFCURVE",
"408 518 OFFCURVE",
"364 518 CURVE SMOOTH",
"203 518 OFFCURVE",
"50 402 OFFCURVE",
"50 214 CURVE SMOOTH",
"50 94 OFFCURVE",
"128 -9 OFFCURVE",
"261 -9 CURVE SMOOTH",
"317 -9 OFFCURVE",
"360 13 OFFCURVE",
"384 38 CURVE",
"375 0 LINE",
"634 0 LINE",
"665 134 LINE",
"572 134 LINE",
"716 760 LINE",
"449 760 LINE"
);
},
{
closed = 1;
nodes = (
"258 150 OFFCURVE",
"221 186 OFFCURVE",
"221 242 CURVE SMOOTH",
"221 316 OFFCURVE",
"279 373 OFFCURVE",
"349 373 CURVE SMOOTH",
"389 373 OFFCURVE",
"432 355 OFFCURVE",
"449 321 CURVE",
"423 211 LINE",
"396 173 OFFCURVE",
"351 150 OFFCURVE",
"306 150 CURVE SMOOTH"
);
}
);
width = 686;
}
);
unicode = 0064;
},
{
glyphname = e;
lastChange = "2016-09-13 23:42:05 +0000";
layers = (
{
anchors = (
{
name = bottom;
position = "{241, 0}";
},
{
name = ogonek;
position = "{479, 10}";
},
{
name = top;
position = "{361, 506}";
}
);
layerId = "EEC59083-BA83-4EFB-8B50-D01213A5FD15";
paths = (
{
closed = 1;
nodes = (
"545 236 LINE",
"550 262 OFFCURVE",
"554 294 OFFCURVE",
"554 327 CURVE SMOOTH",
"554 427 OFFCURVE",
"479 521 OFFCURVE",
"350 521 CURVE SMOOTH",
"183 521 OFFCURVE",
"57 385 OFFCURVE",
"57 217 CURVE SMOOTH",
"57 71 OFFCURVE",
"156 -15 OFFCURVE",
"281 -15 CURVE SMOOTH",
"369 -15 OFFCURVE",
"451 22 OFFCURVE",
"495 80 CURVE",
"471 98 OFFCURVE",
"447 115 OFFCURVE",
"423 133 CURVE",
"391 93 OFFCURVE",
"341 71 OFFCURVE",
"289 71 CURVE SMOOTH",
"211 71 OFFCURVE",
"155 133 OFFCURVE",
"155 215 CURVE SMOOTH",
"155 221 OFFCURVE",
"155 227 OFFCURVE",
"156 236 CURVE"
);
},
{
closed = 1;
nodes = (
"411 438 OFFCURVE",
"462 396 OFFCURVE",
"460 315 CURVE",
"171 315 LINE",
"198 385 OFFCURVE",
"259 438 OFFCURVE",
"337 438 CURVE SMOOTH"
);
}
);
width = 597;
},
{
anchors = (
{
name = bottom;
position = "{288, 0}";
},
{
name = ogonek;
position = "{459, 10}";
},
{
name = top;
position = "{355, 506}";
}
);
layerId = "8956C7A5-95B5-4256-B2D2-E489185594C4";
paths = (
{
closed = 1;
nodes = (
"570 215 LINE",
"579 243 OFFCURVE",
"585 285 OFFCURVE",
"585 311 CURVE SMOOTH",
"585 421 OFFCURVE",
"490 521 OFFCURVE",
"359 521 CURVE SMOOTH",
"194 521 OFFCURVE",
"50 397 OFFCURVE",
"50 211 CURVE SMOOTH",
"50 73 OFFCURVE",
"154 -13 OFFCURVE",
"281 -13 CURVE SMOOTH",
"379 -13 OFFCURVE",
"468 19 OFFCURVE",
"533 89 CURVE",
"498 120 OFFCURVE",
"461 152 OFFCURVE",
"426 183 CURVE",
"390 152 OFFCURVE",
"356 130 OFFCURVE",
"304 130 CURVE SMOOTH",
"262 130 OFFCURVE",
"235 146 OFFCURVE",
"221 171 CURVE SMOOTH",
"214 184 OFFCURVE",
"210 199 OFFCURVE",
"209 215 CURVE"
);
},
{
closed = 1;
nodes = (
"397 395 OFFCURVE",
"435 360 OFFCURVE",
"438 325 CURVE",
"227 325 LINE",
"245 370 OFFCURVE",
"291 395 OFFCURVE",
"343 395 CURVE SMOOTH"
);
}
);
width = 575;
}
);
unicode = 0065;
},
{
glyphname = f;
lastChange = "2016-08-14 21:02:13 +0000";
layers = (
{
anchors = (
{
name = top;
position = "{57, 506}";
}
);
layerId = "EEC59083-BA83-4EFB-8B50-D01213A5FD15";
paths = (
{
closed = 1;
nodes = (
"62 422 LINE",
"166 422 LINE",
"17 -230 LINE",
"116 -230 LINE",
"265 422 LINE",
"402 422 LINE",
"422 506 LINE",
"284 506 LINE",
"304 590 LINE SMOOTH",
"320 660 OFFCURVE",
"358 686 OFFCURVE",
"410 686 CURVE SMOOTH",
"444 686 OFFCURVE",
"476 676 OFFCURVE",
"493 665 CURVE",
"543 740 LINE",
"520 753 OFFCURVE",
"476 770 OFFCURVE",
"414 770 CURVE SMOOTH",
"311 770 OFFCURVE",
"235 720 OFFCURVE",
"206 595 CURVE",
"185 506 LINE",
"82 506 LINE"
);
}
);
width = 396;
},
{
anchors = (
{
name = top;
position = "{126, 506}";
}
);
layerId = "8956C7A5-95B5-4256-B2D2-E489185594C4";
paths = (
{
closed = 1;
nodes = (
"56 363 LINE",
"154 363 LINE",
"15 -230 LINE",
"180 -230 LINE",
"318 363 LINE",
"427 363 LINE",
"460 506 LINE",
"352 506 LINE",
"367 571 LINE SMOOTH",
"376 609 OFFCURVE",
"405 629 OFFCURVE",
"434 629 CURVE SMOOTH",
"459 629 OFFCURVE",
"470 623 OFFCURVE",
"481 612 CURVE",
"571 725 LINE",
"560 743 OFFCURVE",
"512 771 OFFCURVE",
"437 771 CURVE SMOOTH",
"327 771 OFFCURVE",
"236 716 OFFCURVE",
"207 589 CURVE",
"188 506 LINE",
"89 506 LINE"
);
}
);
width = 391;
}
);
unicode = 0066;
},
{
glyphname = g;
lastChange = "2016-08-14 21:02:13 +0000";
layers = (
{
layerId = "EEC59083-BA83-4EFB-8B50-D01213A5FD15";
paths = (
{
closed = 1;
nodes = (
"380 22 LINE",
"350 -109 OFFCURVE",
"291 -144 OFFCURVE",
"197 -144 CURVE SMOOTH",
"136 -144 OFFCURVE",
"76 -119 OFFCURVE",
"45 -86 CURVE",
"-18 -157 LINE",
"31 -207 OFFCURVE",
"117 -230 OFFCURVE",
"189 -230 CURVE SMOOTH",
"346 -230 OFFCURVE",
"436 -163 OFFCURVE",
"475 6 CURVE SMOOTH",
"591 506 LINE",
"492 506 LINE",
"485 479 LINE",
"458 503 OFFCURVE",
"413 519 OFFCURVE",
"364 519 CURVE SMOOTH",
"193 519 OFFCURVE",
"51 387 OFFCURVE",
"51 198 CURVE SMOOTH",
"51 82 OFFCURVE",
"138 -9 OFFCURVE",
"249 -9 CURVE SMOOTH",
"299 -9 OFFCURVE",
"341 3 OFFCURVE",
"382 31 CURVE"
);
},
{
closed = 1;
nodes = (
"201 75 OFFCURVE",
"152 125 OFFCURVE",
"152 208 CURVE SMOOTH",
"152 351 OFFCURVE",
"257 435 OFFCURVE",
"357 435 CURVE SMOOTH",
"414 435 OFFCURVE",
"450 417 OFFCURVE",
"466 396 CURVE",
"404 125 LINE",
"366 94 OFFCURVE",
"321 75 OFFCURVE",
"272 75 CURVE SMOOTH"
);
}
);
width = 624;
},
{
layerId = "8956C7A5-95B5-4256-B2D2-E489185594C4";
paths = (
{
closed = 1;
nodes = (
"376 24 LINE",
"355 -65 OFFCURVE",
"292 -85 OFFCURVE",
"226 -85 CURVE SMOOTH",
"167 -85 OFFCURVE",
"115 -64 OFFCURVE",
"76 -36 CURVE",
"-10 -165 LINE",
"40 -204 OFFCURVE",
"116 -230 OFFCURVE",
"219 -230 CURVE SMOOTH",
"376 -230 OFFCURVE",
"495 -178 OFFCURVE",
"541 21 CURVE SMOOTH",
"656 518 LINE",
"490 518 LINE",
"482 483 LINE",
"458 501 OFFCURVE",
"408 518 OFFCURVE",
"360 518 CURVE SMOOTH",
"183 518 OFFCURVE",
"46 388 OFFCURVE",
"46 214 CURVE SMOOTH",
"46 73 OFFCURVE",
"154 0 OFFCURVE",
"257 0 CURVE SMOOTH",
"309 0 OFFCURVE",
"354 17 OFFCURVE",
"379 39 CURVE"
);
},
{
closed = 1;
nodes = (
"256 146 OFFCURVE",
"214 178 OFFCURVE",
"214 240 CURVE SMOOTH",
"214 314 OFFCURVE",
"275 373 OFFCURVE",
"345 373 CURVE SMOOTH",
"385 373 OFFCURVE",
"427 355 OFFCURVE",
"445 322 CURVE",
"418 208 LINE",
"391 166 OFFCURVE",
"347 146 OFFCURVE",
"306 146 CURVE SMOOTH"
);
}
);
width = 636;
}
);
unicode = 0067;
},
{
glyphname = h;
lastChange = "2016-08-14 21:02:13 +0000";
layers = (
{
anchors = (
{
name = top;
position = "{191, 506}";
}
);
layerId = "EEC59083-BA83-4EFB-8B50-D01213A5FD15";
paths = (
{
closed = 1;
nodes = (
"385 0 LINE",
"556 0 LINE",
"575 84 LINE",
"503 84 LINE",
"559 325 LINE SMOOTH",
"588 452 OFFCURVE",
"519 515 OFFCURVE",
"415 515 CURVE SMOOTH",
"358 515 OFFCURVE",
"303 491 OFFCURVE",
"255 455 CURVE",
"326 760 LINE",
"130 760 LINE",
"110 676 LINE",
"207 676 LINE",
"52 0 LINE",
"151 0 LINE",
"238 377 LINE",
"280 408 OFFCURVE",
"329 429 OFFCURVE",
"373 429 CURVE SMOOTH",
"444 429 OFFCURVE",
"476 389 OFFCURVE",
"458 313 CURVE"
);
}
);
width = 648;
},
{
anchors = (
{
name = top;
position = "{244, 506}";
}
);
layerId = "8956C7A5-95B5-4256-B2D2-E489185594C4";
paths = (
{
closed = 1;
nodes = (
"373 0 LINE",
"633 0 LINE",
"664 134 LINE",
"571 134 LINE",
"612 312 LINE SMOOTH",
"642 442 OFFCURVE",
"583 521 OFFCURVE",
"469 521 CURVE SMOOTH",
"416 521 OFFCURVE",
"367 499 OFFCURVE",
"324 465 CURVE",
"392 760 LINE",
"130 760 LINE",
"99 626 LINE",
"194 626 LINE",
"50 0 LINE",
"217 0 LINE",
"288 310 LINE",
"329 340 OFFCURVE",
"365 355 OFFCURVE",
"390 355 CURVE SMOOTH",
"426 355 OFFCURVE",
"447 322 OFFCURVE",
"436 272 CURVE"
);
}
);
width = 669;
}
);
unicode = 0068;
},
{
glyphname = i;
lastChange = "2016-09-13 23:37:15 +0000";
layers = (
{
anchors = (
{
name = bottom;
position = "{119, 0}";
}
);
layerId = "EEC59083-BA83-4EFB-8B50-D01213A5FD15";
paths = (
{
closed = 1;
nodes = (
"79 422 LINE",
"169 422 LINE",
"72 0 LINE",
"252 0 LINE",
"271 84 LINE",
"190 84 LINE",
"288 506 LINE",
"99 506 LINE"
);
},
{
closed = 1;
nodes = (
"192 649 OFFCURVE",
"221 618 OFFCURVE",
"257 618 CURVE SMOOTH",
"292 618 OFFCURVE",
"321 649 OFFCURVE",
"321 684 CURVE SMOOTH",
"321 719 OFFCURVE",
"292 748 OFFCURVE",
"257 748 CURVE SMOOTH",
"221 748 OFFCURVE",
"192 719 OFFCURVE",
"192 684 CURVE SMOOTH"
);
}
);
width = 354;
},
{
anchors = (
{
name = bottom;
position = "{132, 0}";
}
);
layerId = "8956C7A5-95B5-4256-B2D2-E489185594C4";
paths = (
{
closed = 1;
nodes = (
"70 372 LINE",
"163 372 LINE",
"77 0 LINE",
"337 0 LINE",
"368 134 LINE",
"275 134 LINE",
"361 506 LINE",
"101 506 LINE"
);
},
{
closed = 1;
nodes = (
"212 621 OFFCURVE",
"250 582 OFFCURVE",
"299 582 CURVE SMOOTH",
"346 582 OFFCURVE",
"385 621 OFFCURVE",
"385 669 CURVE SMOOTH",
"385 717 OFFCURVE",
"346 756 OFFCURVE",
"299 756 CURVE SMOOTH",
"250 756 OFFCURVE",
"212 717 OFFCURVE",
"212 669 CURVE SMOOTH"
);
}
);
width = 380;
}
);
unicode = 0069;
},
{
glyphname = j;
lastChange = "2016-08-14 21:02:13 +0000";
layers = (
{
anchors = (
{
name = top;
position = "{3, 506}";
}
);
layerId = "EEC59083-BA83-4EFB-8B50-D01213A5FD15";
paths = (
{
closed = 1;
nodes = (
"71 422 LINE",
"170 422 LINE",
"66 -28 LINE",
"49 -103 OFFCURVE",
"13 -151 OFFCURVE",
"-45 -159 CURVE",
"-53 -230 LINE",
"56 -227 OFFCURVE",
"136 -156 OFFCURVE",
"163 -37 CURVE SMOOTH",
"289 506 LINE",
"91 506 LINE"
);
},
{
closed = 1;
nodes = (
"194 649 OFFCURVE",
"223 618 OFFCURVE",
"259 618 CURVE SMOOTH",
"294 618 OFFCURVE",
"323 649 OFFCURVE",
"323 684 CURVE SMOOTH",
"323 719 OFFCURVE",
"294 748 OFFCURVE",
"259 748 CURVE SMOOTH",
"223 748 OFFCURVE",
"194 719 OFFCURVE",
"194 684 CURVE SMOOTH"
);
}
);
width = 326;
},
{
anchors = (
{
name = top;
position = "{50, 506}";
}
);
layerId = "8956C7A5-95B5-4256-B2D2-E489185594C4";
paths = (
{
closed = 1;
nodes = (
"55 372 LINE",
"169 372 LINE",
"79 -16 LINE",
"67 -71 OFFCURVE",
"27 -100 OFFCURVE",
"-16 -100 CURVE",
"-35 -229 LINE",
"114 -229 OFFCURVE",
"209 -165 OFFCURVE",
"247 -1 CURVE SMOOTH",
"364 506 LINE",
"86 506 LINE"
);
},
{
closed = 1;
nodes = (
"202 621 OFFCURVE",
"240 582 OFFCURVE",
"289 582 CURVE SMOOTH",
"336 582 OFFCURVE",
"375 621 OFFCURVE",
"375 669 CURVE SMOOTH",
"375 717 OFFCURVE",
"336 756 OFFCURVE",
"289 756 CURVE SMOOTH",
"240 756 OFFCURVE",
"202 717 OFFCURVE",
"202 669 CURVE SMOOTH"
);
}
);
width = 345;
}
);
unicode = 006A;
},
{
glyphname = k;
lastChange = "2016-08-14 21:02:13 +0000";
layers = (
{
anchors = (
{
name = top;
position = "{158, 506}";
}
);
layerId = "EEC59083-BA83-4EFB-8B50-D01213A5FD15";
paths = (
{
closed = 1;
nodes = (
"117 676 LINE",
"207 676 LINE",
"52 0 LINE",
"151 0 LINE",
"204 229 LINE",
"263 229 LINE",
"415 0 LINE",
"522 0 LINE",
"541 83 LINE",
"480 83 LINE",
"358 261 LINE",
"547 422 LINE",
"600 422 LINE",
"620 506 LINE",
"456 506 LINE",
"438 430 LINE",
"272 289 LINE",
"217 289 LINE",
"326 760 LINE",
"137 760 LINE"
);
}
);
width = 613;
},
{
anchors = (
{
name = top;
position = "{229, 506}";
}
);
layerId = "8956C7A5-95B5-4256-B2D2-E489185594C4";
paths = (
{
closed = 1;
nodes = (
"97 626 LINE",
"194 626 LINE",
"50 0 LINE",
"216 0 LINE",
"261 198 LINE",
"324 198 LINE",
"420 0 LINE",
"567 0 LINE",
"598 134 LINE",
"522 134 LINE",
"456 263 LINE",
"571 372 LINE",
"639 372 LINE",
"670 506 LINE",
"447 506 LINE",
"426 416 LINE",
"348 333 LINE",
"292 333 LINE",
"391 760 LINE",
"128 760 LINE"
);
}
);
width = 640;
}
);
unicode = 006B;
},
{
glyphname = l;
lastChange = "2016-08-14 21:02:13 +0000";
layers = (
{
anchors = (
{
name = top;
position = "{13, 506}";
}
);
layerId = "EEC59083-BA83-4EFB-8B50-D01213A5FD15";
paths = (
{
closed = 1;
nodes = (
"110 676 LINE",
"207 676 LINE",
"52 0 LINE",
"235 0 LINE",
"254 84 LINE",
"170 84 LINE",
"326 760 LINE",
"130 760 LINE"
);
}
);
width = 339;
},
{
anchors = (
{
name = top;
position = "{75, 506}";
}
);
layerId = "8956C7A5-95B5-4256-B2D2-E489185594C4";
paths = (
{
closed = 1;
nodes = (
"97 626 LINE",
"194 626 LINE",
"50 0 LINE",
"308 0 LINE",
"339 134 LINE",
"247 134 LINE",
"391 760 LINE",
"128 760 LINE"
);
}
);
width = 356;
}
);
unicode = 006C;
},
{
glyphname = m;
lastChange = "2016-08-14 21:02:13 +0000";
layers = (
{
anchors = (
{
name = top;
position = "{387, 506}";
}
);
layerId = "EEC59083-BA83-4EFB-8B50-D01213A5FD15";
paths = (
{
closed = 1;
nodes = (
"75 422 LINE",
"169 422 LINE",
"72 0 LINE",
"171 0 LINE",
"255 367 LINE",
"296 406 OFFCURVE",
"342 429 OFFCURVE",
"393 429 CURVE SMOOTH",
"464 429 OFFCURVE",
"496 389 OFFCURVE",
"478 313 CURVE SMOOTH",
"405 0 LINE",
"504 0 LINE",
"588 368 LINE",
"629 406 OFFCURVE",
"675 429 OFFCURVE",
"726 429 CURVE SMOOTH",
"797 429 OFFCURVE",
"829 389 OFFCURVE",
"811 313 CURVE",
"738 0 LINE",
"910 0 LINE",
"929 84 LINE",
"856 84 LINE",
"912 325 LINE",
"941 452 OFFCURVE",
"872 515 OFFCURVE",
"768 515 CURVE SMOOTH",
"693 515 OFFCURVE",
"625 480 OFFCURVE",
"577 431 CURVE",
"556 487 OFFCURVE",
"504 515 OFFCURVE",
"435 515 CURVE SMOOTH",
"374 515 OFFCURVE",
"317 492 OFFCURVE",
"271 454 CURVE",
"284 506 LINE",
"95 506 LINE"
);
}
);
width = 1002;
},
{
anchors = (
{
name = top;
position = "{421, 506}";
}
);
layerId = "8956C7A5-95B5-4256-B2D2-E489185594C4";
paths = (
{
closed = 1;
nodes = (
"70 372 LINE",
"162 372 LINE",
"76 0 LINE",
"243 0 LINE",
"315 311 LINE",
"355 340 OFFCURVE",
"391 355 OFFCURVE",
"416 355 CURVE SMOOTH",
"452 355 OFFCURVE",
"473 322 OFFCURVE",
"462 272 CURVE SMOOTH",
"399 0 LINE",
"566 0 LINE",
"638 310 LINE",
"678 340 OFFCURVE",
"714 355 OFFCURVE",
"739 355 CURVE SMOOTH",
"775 355 OFFCURVE",
"796 322 OFFCURVE",
"785 272 CURVE",
"722 0 LINE",
"981 0 LINE",
"1012 134 LINE",
"920 134 LINE",
"961 312 LINE",
"991 441 OFFCURVE",
"931 518 OFFCURVE",
"818 518 CURVE SMOOTH",
"750 518 OFFCURVE",
"688 484 OFFCURVE",
"636 433 CURVE",
"616 487 OFFCURVE",
"566 518 OFFCURVE",
"495 518 CURVE SMOOTH",
"442 518 OFFCURVE",
"394 498 OFFCURVE",
"350 464 CURVE",
"358 506 LINE",
"101 506 LINE"
);
}
);
width = 1017;
}
);
unicode = 006D;
},
{
glyphname = n;
lastChange = "2016-08-14 21:02:13 +0000";
layers = (
{
anchors = (
{
name = top;
position = "{422, 506}";
}
);
layerId = "EEC59083-BA83-4EFB-8B50-D01213A5FD15";
paths = (
{
closed = 1;
nodes = (
"73 422 LINE",
"169 422 LINE",
"72 0 LINE",
"171 0 LINE",
"255 367 LINE",
"296 406 OFFCURVE",
"342 429 OFFCURVE",
"393 429 CURVE SMOOTH",
"464 429 OFFCURVE",
"496 389 OFFCURVE",
"478 313 CURVE SMOOTH",
"405 0 LINE",
"576 0 LINE",
"595 84 LINE",
"523 84 LINE",
"579 325 LINE SMOOTH",
"608 452 OFFCURVE",
"539 515 OFFCURVE",
"435 515 CURVE SMOOTH",
"374 515 OFFCURVE",
"317 492 OFFCURVE",
"271 454 CURVE",
"284 506 LINE",
"93 506 LINE"
);
}
);
width = 668;
},
{
anchors = (
{
name = top;
position = "{473, 506}";
}
);
layerId = "8956C7A5-95B5-4256-B2D2-E489185594C4";
paths = (
{
closed = 1;
nodes = (
"70 372 LINE",
"162 372 LINE",
"76 0 LINE",
"243 0 LINE",
"315 311 LINE",
"355 340 OFFCURVE",
"391 355 OFFCURVE",
"416 355 CURVE SMOOTH",
"452 355 OFFCURVE",
"473 322 OFFCURVE",
"462 272 CURVE SMOOTH",
"399 0 LINE",
"658 0 LINE",
"689 134 LINE",
"597 134 LINE",
"638 312 LINE SMOOTH",
"668 441 OFFCURVE",
"608 518 OFFCURVE",
"495 518 CURVE SMOOTH",
"442 518 OFFCURVE",
"394 498 OFFCURVE",
"350 464 CURVE",
"358 506 LINE",
"101 506 LINE"
);
}
);
width = 694;
}
);
unicode = 006E;
},
{
glyphname = o;
lastChange = "2016-09-13 23:42:29 +0000";
layers = (
{
anchors = (
{
name = bottom;
position = "{270, -12}";
},
{
name = center;
position = "{302, 253}";
},
{
name = ogonek;
position = "{485, 10}";
},
{
name = top;
position = "{345, 521}";
},
{
name = topright;
position = "{483, 506}";
}
);
layerId = "EEC59083-BA83-4EFB-8B50-D01213A5FD15";
paths = (
{
closed = 1;
nodes = (
"37 89 OFFCURVE",
"135 -12 OFFCURVE",
"270 -12 CURVE SMOOTH",
"432 -12 OFFCURVE",
"565 122 OFFCURVE",
"565 292 CURVE SMOOTH",
"565 420 OFFCURVE",
"465 521 OFFCURVE",
"331 521 CURVE SMOOTH",
"170 521 OFFCURVE",
"37 387 OFFCURVE",
"37 219 CURVE SMOOTH"
);
},
{
closed = 1;
nodes = (
"139 349 OFFCURVE",
"229 435 OFFCURVE",
"325 435 CURVE SMOOTH",
"404 435 OFFCURVE",
"463 377 OFFCURVE",
"463 286 CURVE SMOOTH",
"463 161 OFFCURVE",
"372 74 OFFCURVE",
"276 74 CURVE SMOOTH",
"195 74 OFFCURVE",
"139 135 OFFCURVE",
"139 226 CURVE SMOOTH"
);
}
);
width = 603;
},
{
anchors = (
{
name = bottom;
position = "{279, -12}";
},
{
name = center;
position = "{289, 253}";
},
{
name = ogonek;
position = "{461, 10}";
},
{
name = top;
position = "{369, 506}";
},
{
name = topright;
position = "{518, 506}";
}
);
layerId = "8956C7A5-95B5-4256-B2D2-E489185594C4";
paths = (
{
closed = 1;
nodes = (
"50 89 OFFCURVE",
"148 -12 OFFCURVE",
"279 -12 CURVE SMOOTH",
"453 -12 OFFCURVE",
"587 117 OFFCURVE",
"587 295 CURVE SMOOTH",
"587 421 OFFCURVE",
"487 521 OFFCURVE",
"359 521 CURVE SMOOTH",
"194 521 OFFCURVE",
"50 399 OFFCURVE",
"50 213 CURVE SMOOTH"
);
},
{
closed = 1;
nodes = (
"209 310 OFFCURVE",
"268 375 OFFCURVE",
"342 375 CURVE SMOOTH",
"388 375 OFFCURVE",
"428 343 OFFCURVE",
"428 277 CURVE SMOOTH",
"428 196 OFFCURVE",
"363 134 OFFCURVE",
"295 134 CURVE SMOOTH",
"245 134 OFFCURVE",
"209 174 OFFCURVE",
"209 231 CURVE SMOOTH"
);
}
);
width = 577;
}
);
unicode = 006F;
},
{
glyphname = p;
lastChange = "2016-08-14 21:02:13 +0000";
layers = (
{
anchors = (
{
name = top;
position = "{276, 506}";
}
);
layerId = "EEC59083-BA83-4EFB-8B50-D01213A5FD15";
paths = (
{
closed = 1;
nodes = (
"72 422 LINE",
"168 422 LINE",
"17 -230 LINE",
"201 -230 LINE",
"220 -146 LINE",
"136 -146 LINE",
"177 31 LINE",
"205 7 OFFCURVE",
"250 -9 OFFCURVE",
"300 -9 CURVE SMOOTH",
"471 -9 OFFCURVE",
"613 123 OFFCURVE",
"613 312 CURVE SMOOTH",
"613 428 OFFCURVE",
"526 519 OFFCURVE",
"415 519 CURVE SMOOTH",
"366 519 OFFCURVE",
"322 504 OFFCURVE",
"277 473 CURVE",
"284 506 LINE",
"92 506 LINE"
);
},
{
closed = 1;
nodes = (
"463 435 OFFCURVE",
"512 385 OFFCURVE",
"512 302 CURVE SMOOTH",
"512 159 OFFCURVE",
"407 75 OFFCURVE",
"307 75 CURVE SMOOTH",
"248 75 OFFCURVE",
"213 94 OFFCURVE",
"196 115 CURVE",
"258 383 LINE",
"297 415 OFFCURVE",
"346 435 OFFCURVE",
"392 435 CURVE SMOOTH"
);
}
);
width = 651;
},
{
anchors = (
{
name = top;
position = "{322, 506}";
}
);
layerId = "8956C7A5-95B5-4256-B2D2-E489185594C4";
paths = (
{
closed = 1;
nodes = (
"68 372 LINE",
"160 372 LINE",
"20 -230 LINE",
"284 -230 LINE",
"315 -96 LINE",
"217 -96 LINE",
"246 28 LINE",
"271 8 OFFCURVE",
"321 -8 OFFCURVE",
"368 -8 CURVE SMOOTH",
"529 -8 OFFCURVE",
"682 108 OFFCURVE",
"682 296 CURVE SMOOTH",
"682 441 OFFCURVE",
"581 518 OFFCURVE",
"471 518 CURVE SMOOTH",
"415 518 OFFCURVE",
"372 497 OFFCURVE",
"348 470 CURVE",
"353 506 LINE",
"99 506 LINE"
);
},
{
closed = 1;
nodes = (
"475 367 OFFCURVE",
"517 335 OFFCURVE",
"517 273 CURVE SMOOTH",
"517 199 OFFCURVE",
"456 140 OFFCURVE",
"386 140 CURVE SMOOTH",
"344 140 OFFCURVE",
"300 160 OFFCURVE",
"285 196 CURVE",
"310 303 LINE",
"337 347 OFFCURVE",
"384 367 OFFCURVE",
"425 367 CURVE SMOOTH"
);
}
);
width = 667;
}
);
unicode = 0070;
},
{
glyphname = q;
lastChange = "2016-08-14 21:02:13 +0000";
layers = (
{
anchors = (
{
name = top;
position = "{219, 506}";
}
);
layerId = "EEC59083-BA83-4EFB-8B50-D01213A5FD15";
paths = (
{
closed = 1;
nodes = (
"318 -230 LINE",
"504 -230 LINE",
"523 -146 LINE",
"434 -146 LINE",
"585 506 LINE",
"489 506 LINE",
"481 480 LINE",
"454 503 OFFCURVE",
"408 519 OFFCURVE",
"360 519 CURVE SMOOTH",
"189 519 OFFCURVE",
"47 387 OFFCURVE",
"47 198 CURVE SMOOTH",
"47 82 OFFCURVE",
"134 -9 OFFCURVE",
"245 -9 CURVE SMOOTH",
"291 -9 OFFCURVE",
"335 5 OFFCURVE",
"378 34 CURVE"
);
},
{
closed = 1;
nodes = (
"197 75 OFFCURVE",
"148 125 OFFCURVE",
"148 208 CURVE SMOOTH",
"148 351 OFFCURVE",
"253 435 OFFCURVE",
"353 435 CURVE SMOOTH",
"409 435 OFFCURVE",
"444 417 OFFCURVE",
"461 396 CURVE",
"399 125 LINE",
"361 94 OFFCURVE",
"313 75 OFFCURVE",
"268 75 CURVE SMOOTH"
);
}
);
width = 618;
},
{
anchors = (
{
name = top;
position = "{241, 506}";
}
);
layerId = "8956C7A5-95B5-4256-B2D2-E489185594C4";
paths = (
{
closed = 1;
nodes = (
"325 -230 LINE",
"580 -230 LINE",
"611 -96 LINE",
"522 -96 LINE",
"661 506 LINE",
"497 506 LINE",
"490 481 LINE",
"464 502 OFFCURVE",
"411 518 OFFCURVE",
"367 518 CURVE SMOOTH",
"206 518 OFFCURVE",
"53 402 OFFCURVE",
"53 214 CURVE SMOOTH",
"53 69 OFFCURVE",
"159 -8 OFFCURVE",
"264 -8 CURVE SMOOTH",
"319 -8 OFFCURVE",
"363 13 OFFCURVE",
"387 39 CURVE"
);
},
{
closed = 1;
nodes = (
"260 143 OFFCURVE",
"218 175 OFFCURVE",
"218 237 CURVE SMOOTH",
"218 311 OFFCURVE",
"279 370 OFFCURVE",
"349 370 CURVE SMOOTH",
"392 370 OFFCURVE",
"434 350 OFFCURVE",
"451 314 CURVE",
"426 208 LINE",
"398 163 OFFCURVE",
"352 143 OFFCURVE",
"310 143 CURVE SMOOTH"
);
}
);
width = 643;
}
);
unicode = 0071;
},
{
glyphname = r;
lastChange = "2016-08-14 21:02:13 +0000";
layers = (
{
anchors = (
{
name = top;
position = "{81, 506}";
}
);
layerId = "EEC59083-BA83-4EFB-8B50-D01213A5FD15";
paths = (
{
closed = 1;
nodes = (
"501 503 LINE",
"480 507 OFFCURVE",
"435 510 OFFCURVE",
"404 510 CURVE SMOOTH",
"353 510 OFFCURVE",
"304 479 OFFCURVE",
"268 437 CURVE",
"284 506 LINE",
"93 506 LINE",
"73 422 LINE",
"169 422 LINE",
"72 0 LINE",
"255 0 LINE",
"274 84 LINE",
"190 84 LINE",
"249 338 LINE",
"277 391 OFFCURVE",
"321 426 OFFCURVE",
"384 426 CURVE",
"370 366 LINE",
"469 366 LINE"
);
}
);
width = 504;
},
{
anchors = (
{
name = top;
position = "{153, 506}";
}
);
layerId = "8956C7A5-95B5-4256-B2D2-E489185594C4";
paths = (
{
closed = 1;
nodes = (
"609 506 LINE",
"579 506 OFFCURVE",
"514 506 OFFCURVE",
"470 506 CURVE SMOOTH",
"417 506 OFFCURVE",
"378 487 OFFCURVE",
"350 461 CURVE",
"360 506 LINE",
"101 506 LINE",
"70 372 LINE",
"163 372 LINE",
"77 0 LINE",
"350 0 LINE",
"381 134 LINE",
"275 134 LINE",
"317 314 LINE",
"347 344 OFFCURVE",
"375 360 OFFCURVE",
"416 360 CURVE",
"404 309 LINE",
"563 309 LINE"
);
}
);
width = 559;
}
);
unicode = 0072;
},
{
glyphname = s;
lastChange = "2016-08-14 21:02:13 +0000";
layers = (
{
anchors = (
{
name = top;
position = "{284, 506}";
}
);
layerId = "EEC59083-BA83-4EFB-8B50-D01213A5FD15";
paths = (
{
closed = 1;
nodes = (
"466 365 LINE",
"473 393 OFFCURVE",
"479 421 OFFCURVE",
"486 449 CURVE",
"431 449 LINE",
"410 489 OFFCURVE",
"357 521 OFFCURVE",
"280 521 CURVE SMOOTH",
"147 521 OFFCURVE",
"80 455 OFFCURVE",
"80 359 CURVE SMOOTH",
"80 304 OFFCURVE",
"112 258 OFFCURVE",
"170 235 CURVE SMOOTH",
"200 224 OFFCURVE",
"230 213 OFFCURVE",
"260 202 CURVE SMOOTH",
"297 189 OFFCURVE",
"314 168 OFFCURVE",
"314 143 CURVE SMOOTH",
"314 91 OFFCURVE",
"269 62 OFFCURVE",
"213 62 CURVE SMOOTH",
"157 62 OFFCURVE",
"109 89 OFFCURVE",
"115 140 CURVE SMOOTH",
"104 140 OFFCURVE",
"92 140 OFFCURVE",
"81 140 CURVE",
"12 140 LINE",
"5 112 OFFCURVE",
"-1 84 OFFCURVE",
"-8 56 CURVE",
"43 56 LINE",
"67 9 OFFCURVE",
"131 -15 OFFCURVE",
"204 -15 CURVE SMOOTH",
"324 -15 OFFCURVE",
"410 43 OFFCURVE",
"410 155 CURVE SMOOTH",
"410 217 OFFCURVE",
"379 262 OFFCURVE",
"322 283 CURVE SMOOTH",
"291 294 OFFCURVE",
"259 305 OFFCURVE",
"228 317 CURVE SMOOTH",
"192 331 OFFCURVE",
"176 348 OFFCURVE",
"176 373 CURVE SMOOTH",
"176 403 OFFCURVE",
"195 424 OFFCURVE",
"224 436 CURVE SMOOTH",
"238 441 OFFCURVE",
"254 444 OFFCURVE",
"272 444 CURVE SMOOTH",
"325 444 OFFCURVE",
"364 416 OFFCURVE",
"365 365 CURVE"
);
}
);
width = 494;
},
{
anchors = (
{
name = top;
position = "{322, 506}";
}
);
layerId = "8956C7A5-95B5-4256-B2D2-E489185594C4";
paths = (
{
closed = 1;
nodes = (
"506 355 LINE",
"516 399 OFFCURVE",
"527 444 OFFCURVE",
"537 489 CURVE",
"435 489 LINE",
"404 507 OFFCURVE",
"360 521 OFFCURVE",
"305 521 CURVE SMOOTH",
"186 521 OFFCURVE",
"80 465 OFFCURVE",
"80 355 CURVE SMOOTH",
"80 288 OFFCURVE",
"128 223 OFFCURVE",
"220 200 CURVE SMOOTH",
"242 195 OFFCURVE",
"263 189 OFFCURVE",
"284 184 CURVE SMOOTH",
"315 176 OFFCURVE",
"325 164 OFFCURVE",
"325 148 CURVE SMOOTH",
"325 121 OFFCURVE",
"297 103 OFFCURVE",
"252 103 CURVE SMOOTH",
"211 103 OFFCURVE",
"185 122 OFFCURVE",
"190 158 CURVE SMOOTH",
"190 161 OFFCURVE",
"191 163 OFFCURVE",
"192 166 CURVE",
"46 166 LINE",
"36 122 OFFCURVE",
"25 77 OFFCURVE",
"15 32 CURVE",
"96 32 LINE",
"124 1 OFFCURVE",
"174 -15 OFFCURVE",
"249 -15 CURVE SMOOTH",
"364 -15 OFFCURVE",
"484 39 OFFCURVE",
"484 172 CURVE SMOOTH",
"484 231 OFFCURVE",
"446 294 OFFCURVE",
"345 316 CURVE SMOOTH",
"318 322 OFFCURVE",
"292 327 OFFCURVE",
"265 333 CURVE SMOOTH",
"242 338 OFFCURVE",
"236 350 OFFCURVE",
"236 360 CURVE SMOOTH",
"236 385 OFFCURVE",
"265 397 OFFCURVE",
"301 397 CURVE SMOOTH",
"340 397 OFFCURVE",
"371 384 OFFCURVE",
"375 358 CURVE SMOOTH",
"375 357 OFFCURVE",
"374 356 OFFCURVE",
"374 355 CURVE"
);
}
);
width = 497;
}
);
unicode = 0073;
},
{
glyphname = t;
lastChange = "2016-08-14 21:02:13 +0000";
layers = (
{
layerId = "EEC59083-BA83-4EFB-8B50-D01213A5FD15";
paths = (
{
closed = 1;
nodes = (
"72 422 LINE",
"155 422 LINE",
"85 135 LINE",
"60 26 OFFCURVE",
"119 -12 OFFCURVE",
"201 -12 CURVE SMOOTH",
"240 -12 OFFCURVE",
"270 -2 OFFCURVE",
"304 14 CURVE",
"296 84 LINE",
"270 73 OFFCURVE",
"248 68 OFFCURVE",
"229 68 CURVE SMOOTH",
"195 68 OFFCURVE",
"179 79 OFFCURVE",
"179 108 CURVE SMOOTH",
"179 123 OFFCURVE",
"183 136 OFFCURVE",
"186 149 CURVE",
"250 422 LINE",
"357 422 LINE",
"377 506 LINE",
"270 506 LINE",
"309 669 LINE",
"206 627 LINE",
"176 506 LINE",
"92 506 LINE"
);
}
);
width = 390;
},
{
layerId = "8956C7A5-95B5-4256-B2D2-E489185594C4";
paths = (
{
closed = 1;
nodes = (
"40 372 LINE",
"133 372 LINE",
"82 154 LINE",
"51 26 OFFCURVE",
"102 -12 OFFCURVE",
"196 -12 CURVE SMOOTH",
"255 -12 OFFCURVE",
"294 -3 OFFCURVE",
"335 13 CURVE",
"333 125 LINE",
"315 120 OFFCURVE",
"299 117 OFFCURVE",
"285 117 CURVE SMOOTH",
"268 117 OFFCURVE",
"253 124 OFFCURVE",
"253 150 CURVE SMOOTH",
"253 164 OFFCURVE",
"255 176 OFFCURVE",
"259 191 CURVE",
"301 372 LINE",
"395 372 LINE",
"426 506 LINE",
"333 506 LINE",
"381 707 LINE",
"194 627 LINE",
"165 506 LINE",
"71 506 LINE"
);
}
);
width = 396;
}
);
unicode = 0074;
},
{
glyphname = u;
lastChange = "2016-09-13 23:40:54 +0000";
layers = (
{
anchors = (
{
name = bottom;
position = "{257, 0}";
},
{
name = ogonek;
position = "{509, 10}";
},
{
name = top;
position = "{342, 506}";
},
{
name = topright;
position = "{590, 506}";
}
);
layerId = "EEC59083-BA83-4EFB-8B50-D01213A5FD15";
paths = (
{
closed = 1;
nodes = (
"393 422 LINE",
"459 422 LINE",
"395 146 LINE",
"362 95 OFFCURVE",
"313 73 OFFCURVE",
"275 73 CURVE SMOOTH",
"190 73 OFFCURVE",
"165 128 OFFCURVE",
"193 249 CURVE SMOOTH",
"253 506 LINE",
"87 506 LINE",
"67 422 LINE",
"135 422 LINE",
"89 220 LINE",
"64 114 OFFCURVE",
"91 61 OFFCURVE",
"124 29 CURVE",
"150 4 OFFCURVE",
"192 -9 OFFCURVE",
"236 -9 CURVE SMOOTH",
"277 -9 OFFCURVE",
"336 8 OFFCURVE",
"377 51 CURVE",
"366 0 LINE",
"536 0 LINE",
"555 84 LINE",
"479 84 LINE",
"577 506 LINE",
"413 506 LINE"
);
}
);
width = 630;
},
{
anchors = (
{
name = bottom;
position = "{273, 0}";
},
{
name = ogonek;
position = "{538, 10}";
},
{
name = top;
position = "{391, 506}";
},
{
name = topright;
position = "{653, 506}";
}
);
layerId = "8956C7A5-95B5-4256-B2D2-E489185594C4";
paths = (
{
closed = 1;
nodes = (
"382 372 LINE",
"459 372 LINE",
"413 173 LINE",
"389 146 OFFCURVE",
"357 129 OFFCURVE",
"325 129 CURVE SMOOTH",
"274 129 OFFCURVE",
"244 164 OFFCURVE",
"257 220 CURVE SMOOTH",
"323 506 LINE",
"85 506 LINE",
"54 372 LINE",
"136 372 LINE",
"98 208 LINE",
"79 127 OFFCURVE",
"99 72 OFFCURVE",
"136 35 CURVE",
"165 6 OFFCURVE",
"208 -6 OFFCURVE",
"255 -6 CURVE SMOOTH",
"311 -6 OFFCURVE",
"352 11 OFFCURVE",
"387 40 CURVE",
"378 0 LINE",
"622 0 LINE",
"653 134 LINE",
"560 134 LINE",
"646 506 LINE",
"413 506 LINE"
);
}
);
width = 662;
}
);
unicode = 0075;
},
{
glyphname = v;
lastChange = "2016-08-14 21:02:13 +0000";
layers = (
{
anchors = (
{
name = top;
position = "{134, 506}";
}
);
layerId = "EEC59083-BA83-4EFB-8B50-D01213A5FD15";
paths = (
{
closed = 1;
nodes = (
"47 422 LINE",
"95 422 LINE",
"151 -8 LINE",
"237 -8 LINE",
"527 422 LINE",
"566 422 LINE",
"586 506 LINE",
"401 506 LINE",
"381 422 LINE",
"422 422 LINE",
"223 110 LINE",
"193 422 LINE",
"232 422 LINE",
"252 506 LINE",
"67 506 LINE"
);
}
);
width = 569;
},
{
anchors = (
{
name = top;
position = "{356, 506}";
}
);
layerId = "8956C7A5-95B5-4256-B2D2-E489185594C4";
paths = (
{
closed = 1;
nodes = (
"20 372 LINE",
"76 372 LINE",
"145 0 LINE",
"310 0 LINE",
"550 372 LINE",
"597 372 LINE",
"628 506 LINE",
"378 506 LINE",
"347 372 LINE",
"390 372 LINE",
"264 167 LINE",
"230 372 LINE",
"270 372 LINE",
"301 506 LINE",
"51 506 LINE"
);
}
);
width = 553;
}
);
unicode = 0076;
},
{
glyphname = w;
lastChange = "2016-08-14 21:02:13 +0000";
layers = (
{
anchors = (
{
name = top;
position = "{275, 506}";
}
);
layerId = "EEC59083-BA83-4EFB-8B50-D01213A5FD15";
paths = (
{
closed = 1;
nodes = (
"47 422 LINE",
"97 422 LINE",
"134 -8 LINE",
"230 -8 LINE",
"432 380 LINE",
"434 380 LINE",
"452 -8 LINE",
"548 -8 LINE",
"783 422 LINE",
"827 422 LINE",
"847 506 LINE",
"662 506 LINE",
"642 422 LINE",
"689 422 LINE",
"526 117 LINE",
"506 506 LINE",
"412 506 LINE",
"209 117 LINE",
"193 422 LINE",
"232 422 LINE",
"252 506 LINE",
"67 506 LINE"
);
}
);
width = 815;
},
{
anchors = (
{
name = top;
position = "{455, 506}";
}
);
layerId = "8956C7A5-95B5-4256-B2D2-E489185594C4";
paths = (
{
closed = 1;
nodes = (
"15 372 LINE",
"65 372 LINE",
"105 0 LINE",
"263 0 LINE",
"439 300 LINE",
"441 300 LINE",
"473 0 LINE",
"637 0 LINE",
"861 372 LINE",
"908 372 LINE",
"939 506 LINE",
"689 506 LINE",
"658 372 LINE",
"703 372 LINE",
"603 198 LINE",
"573 506 LINE",
"410 506 LINE",
"244 218 LINE",
"232 372 LINE",
"265 372 LINE",
"296 506 LINE",
"46 506 LINE"
);
}
);
width = 869;
}
);
unicode = 0077;
},
{
glyphname = x;
lastChange = "2016-08-14 21:02:13 +0000";
layers = (
{
anchors = (
{
name = top;
position = "{162, 506}";
}
);
layerId = "EEC59083-BA83-4EFB-8B50-D01213A5FD15";
paths = (
{
closed = 1;
nodes = (
"286 0 LINE",
"471 0 LINE",
"490 84 LINE",
"443 84 LINE",
"329 255 LINE",
"512 422 LINE",
"548 422 LINE",
"568 506 LINE",
"383 506 LINE",
"363 422 LINE",
"398 422 LINE",
"289 313 LINE",
"222 422 LINE",
"254 422 LINE",
"274 506 LINE",
"89 506 LINE",
"69 422 LINE",
"122 422 LINE",
"232 262 LINE",
"42 84 LINE",
"1 84 LINE",
"-18 0 LINE",
"167 0 LINE",
"186 84 LINE",
"154 84 LINE",
"270 200 LINE",
"341 84 LINE",
"305 84 LINE"
);
}
);
width = 555;
},
{
anchors = (
{
name = top;
position = "{216, 506}";
}
);
layerId = "8956C7A5-95B5-4256-B2D2-E489185594C4";
paths = (
{
closed = 1;
nodes = (
"300 0 LINE",
"543 0 LINE",
"574 134 LINE",
"522 134 LINE",
"430 252 LINE",
"579 372 LINE",
"628 372 LINE",
"659 506 LINE",
"409 506 LINE",
"378 372 LINE",
"409 372 LINE",
"342 321 LINE",
"299 372 LINE",
"338 372 LINE",
"369 506 LINE",
"119 506 LINE",
"88 372 LINE",
"147 372 LINE",
"233 263 LINE",
"73 134 LINE",
"36 134 LINE",
"5 0 LINE",
"248 0 LINE",
"279 134 LINE",
"243 134 LINE",
"319 191 LINE",
"367 134 LINE",
"331 134 LINE"
);
}
);
width = 604;
}
);
unicode = 0078;
},
{
glyphname = y;
lastChange = "2016-09-13 23:44:02 +0000";
layers = (
{
anchors = (
{
name = bottom;
position = "{348, 0}";
},
{
name = top;
position = "{328, 506}";
}
);
layerId = "EEC59083-BA83-4EFB-8B50-D01213A5FD15";
paths = (
{
closed = 1;
nodes = (
"54 422 LINE",
"102 422 LINE",
"157 -4 LINE",
"67 -146 LINE",
"18 -146 LINE",
"-3 -230 LINE",
"197 -230 LINE",
"218 -146 LINE",
"168 -146 LINE",
"531 422 LINE",
"573 422 LINE",
"593 506 LINE",
"408 506 LINE",
"388 422 LINE",
"429 422 LINE",
"230 111 LINE",
"200 422 LINE",
"239 422 LINE",
"259 506 LINE",
"74 506 LINE"
);
}
);
width = 576;
},
{
anchors = (
{
name = bottom;
position = "{431, 0}";
},
{
name = top;
position = "{335, 506}";
}
);
layerId = "8956C7A5-95B5-4256-B2D2-E489185594C4";
paths = (
{
closed = 1;
nodes = (
"21 372 LINE",
"72 372 LINE",
"154 1 LINE",
"92 -96 LINE",
"26 -96 LINE",
"-10 -230 LINE",
"270 -230 LINE",
"306 -96 LINE",
"245 -96 LINE",
"555 372 LINE",
"594 372 LINE",
"625 506 LINE",
"375 506 LINE",
"344 372 LINE",
"386 372 LINE",
"266 180 LINE",
"233 372 LINE",
"271 372 LINE",
"302 506 LINE",
"52 506 LINE"
);
}
);
width = 550;
}
);
unicode = 0079;
},
{
glyphname = z;
lastChange = "2016-08-14 21:02:13 +0000";
layers = (
{
anchors = (
{
name = top;
position = "{304, 506}";
}
);
layerId = "EEC59083-BA83-4EFB-8B50-D01213A5FD15";
paths = (
{
closed = 1;
nodes = (
"-8 0 LINE",
"393 0 LINE",
"431 165 LINE",
"335 165 LINE",
"315 78 LINE",
"136 78 LINE",
"485 447 LINE",
"498 506 LINE",
"112 506 LINE",
"77 356 LINE",
"173 356 LINE",
"190 428 LINE",
"354 428 LINE",
"4 57 LINE"
);
}
);
width = 486;
},
{
anchors = (
{
name = top;
position = "{308, 506}";
}
);
layerId = "8956C7A5-95B5-4256-B2D2-E489185594C4";
paths = (
{
closed = 1;
nodes = (
"20 0 LINE",
"467 0 LINE",
"517 220 LINE",
"390 220 LINE",
"369 131 LINE",
"261 131 LINE",
"543 418 LINE",
"563 506 LINE",
"120 506 LINE",
"73 300 LINE",
"200 300 LINE",
"218 376 LINE",
"318 376 LINE",
"38 80 LINE"
);
}
);
width = 533;
}
);
unicode = 007A;
},
{
glyphname = braceleft;
lastChange = "2016-08-14 21:05:23 +0000";
layers = (
{
layerId = "EEC59083-BA83-4EFB-8B50-D01213A5FD15";
paths = (
{
closed = 1;
nodes = (
"112 -114 OFFCURVE",
"123 -114 OFFCURVE",
"134 -114 CURVE SMOOTH",
"146 -114 OFFCURVE",
"157 -114 OFFCURVE",
"168 -114 CURVE",
"172 -93 OFFCURVE",
"177 -72 OFFCURVE",
"182 -52 CURVE SMOOTH",
"170 -52 OFFCURVE",
"159 -52 OFFCURVE",
"148 -52 CURVE",
"130 -52 OFFCURVE",
"121 -43 OFFCURVE",
"117 -26 CURVE",
"114 -10 OFFCURVE",
"117 14 OFFCURVE",
"124 45 CURVE",
"136 102 OFFCURVE",
"149 158 OFFCURVE",
"163 215 CURVE SMOOTH",
"170 247 OFFCURVE",
"170 273 OFFCURVE",
"166 294 CURVE SMOOTH",
"158 326 OFFCURVE",
"139 347 OFFCURVE",
"114 357 CURVE",
"114 357 OFFCURVE",
"114 358 OFFCURVE",
"115 359 CURVE",
"164 376 OFFCURVE",
"211 421 OFFCURVE",
"230 501 CURVE SMOOTH",
"243 558 OFFCURVE",
"255 614 OFFCURVE",
"269 671 CURVE SMOOTH",
"283 732 OFFCURVE",
"302 768 OFFCURVE",
"337 768 CURVE",
"348 768 OFFCURVE",
"359 768 OFFCURVE",
"371 768 CURVE SMOOTH",
"375 789 OFFCURVE",
"380 810 OFFCURVE",
"385 830 CURVE",
"362 830 OFFCURVE",
"340 830 OFFCURVE",
"318 830 CURVE SMOOTH",
"266 830 OFFCURVE",
"205 783 OFFCURVE",
"186 701 CURVE SMOOTH",
"171 641 OFFCURVE",
"157 580 OFFCURVE",
"144 519 CURVE SMOOTH",
"129 454 OFFCURVE",
"86 389 OFFCURVE",
"32 389 CURVE",
"27 369 OFFCURVE",
"21 348 OFFCURVE",
"17 327 CURVE",
"38 327 OFFCURVE",
"54 317 OFFCURVE",
"63 300 CURVE",
"77 275 OFFCURVE",
"78 236 OFFCURVE",
"69 197 CURVE SMOOTH",
"55 136 OFFCURVE",
"41 75 OFFCURVE",
"27 15 CURVE SMOOTH",
"7 -67 OFFCURVE",
"50 -114 OFFCURVE",
"101 -114 CURVE SMOOTH"
);
}
);
width = 348;
},
{
layerId = "8956C7A5-95B5-4256-B2D2-E489185594C4";
paths = (
{
closed = 1;
nodes = (
"275 -169 OFFCURVE",
"310 -165 OFFCURVE",
"310 -165 CURVE",
"316 -138 OFFCURVE",
"322 -112 OFFCURVE",
"328 -85 CURVE SMOOTH",
"334 -58 OFFCURVE",
"341 -32 OFFCURVE",
"347 -5 CURVE",
"286 -2 OFFCURVE",
"279 8 OFFCURVE",
"294 75 CURVE",
"294 75 OFFCURVE",
"294 75 OFFCURVE",
"294 75 CURVE",
"302 111 OFFCURVE",
"311 147 OFFCURVE",
"319 184 CURVE SMOOTH",
"325 208 OFFCURVE",
"330 232 OFFCURVE",
"336 256 CURVE SMOOTH",
"345 296 OFFCURVE",
"346 334 OFFCURVE",
"304 354 CURVE",
"304 354 OFFCURVE",
"304 354 OFFCURVE",
"304 354 CURVE",
"355 375 OFFCURVE",
"370 403 OFFCURVE",
"380 446 CURVE SMOOTH",
"395 513 OFFCURVE",
"411 579 OFFCURVE",
"426 646 CURVE SMOOTH",
"439 704 OFFCURVE",
"453 719 OFFCURVE",
"514 721 CURVE",
"520 746 OFFCURVE",
"525 771 OFFCURVE",
"531 796 CURVE SMOOTH",
"537 821 OFFCURVE",
"543 846 OFFCURVE",
"549 871 CURVE",
"549 871 OFFCURVE",
"516 875 OFFCURVE",
"455 875 CURVE SMOOTH",
"372 875 OFFCURVE",
"316 843 OFFCURVE",
"283 754 CURVE SMOOTH",
"256 681 OFFCURVE",
"242 589 OFFCURVE",
"223 509 CURVE SMOOTH",
"195 386 OFFCURVE",
"153 410 OFFCURVE",
"82 399 CURVE",
"75 368 OFFCURVE",
"67 337 OFFCURVE",
"60 306 CURVE",
"116 297 OFFCURVE",
"169 314 OFFCURVE",
"159 233 CURVE",
"153 207 OFFCURVE",
"147 182 OFFCURVE",
"142 156 CURVE SMOOTH",
"130 104 OFFCURVE",
"118 52 OFFCURVE",
"106 1 CURVE SMOOTH",
"82 -105 OFFCURVE",
"106 -152 OFFCURVE",
"170 -165 CURVE SMOOTH",
"183 -167 OFFCURVE",
"198 -169 OFFCURVE",
"214 -169 CURVE SMOOTH"
);
}
);
width = 399;
}
);
unicode = 007B;
},
{
glyphname = bar;
lastChange = "2016-08-14 21:02:13 +0000";
layers = (
{
layerId = "EEC59083-BA83-4EFB-8B50-D01213A5FD15";
paths = (
{
closed = 1;
nodes = (
"-33 -132 LINE",
"53 -132 LINE",
"278 843 LINE",
"192 843 LINE"
);
}
);
width = 253;
},
{
layerId = "8956C7A5-95B5-4256-B2D2-E489185594C4";
paths = (
{
closed = 1;
nodes = (
"30 -132 LINE",
"163 -132 LINE",
"388 844 LINE",
"255 844 LINE"
);
}
);
width = 308;
}
);
unicode = 007C;
},
{
glyphname = braceright;
lastChange = "2016-08-14 21:05:24 +0000";
layers = (
{
layerId = "EEC59083-BA83-4EFB-8B50-D01213A5FD15";
paths = (
{
closed = 1;
nodes = (
"-12 -114 OFFCURVE",
"10 -114 OFFCURVE",
"33 -114 CURVE SMOOTH",
"84 -114 OFFCURVE",
"146 -67 OFFCURVE",
"165 15 CURVE",
"180 76 OFFCURVE",
"193 136 OFFCURVE",
"207 197 CURVE SMOOTH",
"222 262 OFFCURVE",
"264 327 OFFCURVE",
"319 327 CURVE",
"324 348 OFFCURVE",
"329 369 OFFCURVE",
"334 389 CURVE",
"280 389 OFFCURVE",
"267 454 OFFCURVE",
"282 519 CURVE SMOOTH",
"293 568 OFFCURVE",
"304 616 OFFCURVE",
"315 665 CURVE SMOOTH",
"318 677 OFFCURVE",
"328 721 OFFCURVE",
"328 733 CURVE SMOOTH",
"328 794 OFFCURVE",
"293 830 OFFCURVE",
"250 830 CURVE SMOOTH",
"239 830 OFFCURVE",
"228 830 OFFCURVE",
"216 830 CURVE SMOOTH",
"205 830 OFFCURVE",
"194 830 OFFCURVE",
"183 830 CURVE",
"178 810 OFFCURVE",
"173 789 OFFCURVE",
"169 768 CURVE SMOOTH",
"180 768 OFFCURVE",
"191 768 OFFCURVE",
"203 768 CURVE",
"238 768 OFFCURVE",
"241 732 OFFCURVE",
"227 671 CURVE SMOOTH",
"214 614 OFFCURVE",
"202 558 OFFCURVE",
"188 501 CURVE SMOOTH",
"180 469 OFFCURVE",
"180 443 OFFCURVE",
"185 421 CURVE",
"192 390 OFFCURVE",
"211 369 OFFCURVE",
"237 359 CURVE",
"236 358 OFFCURVE",
"236 357 OFFCURVE",
"236 357 CURVE",
"186 340 OFFCURVE",
"140 295 OFFCURVE",
"121 215 CURVE",
"108 158 OFFCURVE",
"95 102 OFFCURVE",
"82 45 CURVE",
"68 -16 OFFCURVE",
"49 -52 OFFCURVE",
"14 -52 CURVE SMOOTH",
"2 -52 OFFCURVE",
"-9 -52 OFFCURVE",
"-20 -52 CURVE",
"-25 -72 OFFCURVE",
"-29 -93 OFFCURVE",
"-34 -114 CURVE"
);
}
);
width = 358;
},
{
layerId = "8956C7A5-95B5-4256-B2D2-E489185594C4";
paths = (
{
closed = 1;
nodes = (
"125 -169 OFFCURVE",
"180 -139 OFFCURVE",
"213 -56 CURVE",
"241 9 OFFCURVE",
"256 114 OFFCURVE",
"274 194 CURVE SMOOTH",
"303 319 OFFCURVE",
"345 295 OFFCURVE",
"416 306 CURVE",
"423 337 OFFCURVE",
"431 368 OFFCURVE",
"438 399 CURVE",
"359 412 OFFCURVE",
"318 381 OFFCURVE",
"356 548 CURVE SMOOTH",
"368 600 OFFCURVE",
"380 653 OFFCURVE",
"392 705 CURVE SMOOTH",
"397 726 OFFCURVE",
"401 745 OFFCURVE",
"402 762 CURVE SMOOTH",
"406 829 OFFCURVE",
"381 861 OFFCURVE",
"329 871 CURVE SMOOTH",
"316 874 OFFCURVE",
"301 875 OFFCURVE",
"285 875 CURVE SMOOTH",
"224 875 OFFCURVE",
"189 871 OFFCURVE",
"189 871 CURVE",
"183 846 OFFCURVE",
"177 821 OFFCURVE",
"171 796 CURVE SMOOTH",
"165 771 OFFCURVE",
"160 746 OFFCURVE",
"154 721 CURVE",
"215 719 OFFCURVE",
"221 704 OFFCURVE",
"208 646 CURVE SMOOTH",
"198 602 OFFCURVE",
"188 557 OFFCURVE",
"177 513 CURVE SMOOTH",
"172 490 OFFCURVE",
"167 468 OFFCURVE",
"162 446 CURVE",
"152 403 OFFCURVE",
"154 375 OFFCURVE",
"194 354 CURVE",
"194 354 OFFCURVE",
"194 354 OFFCURVE",
"194 354 CURVE",
"144 334 OFFCURVE",
"127 296 OFFCURVE",
"118 256 CURVE",
"104 196 OFFCURVE",
"90 135 OFFCURVE",
"76 75 CURVE",
"65 24 OFFCURVE",
"55 7 OFFCURVE",
"24 0 CURVE SMOOTH",
"14 -3 OFFCURVE",
"2 -4 OFFCURVE",
"-13 -5 CURVE",
"-26 -58 OFFCURVE",
"-38 -111 OFFCURVE",
"-50 -165 CURVE",
"-50 -165 OFFCURVE",
"-17 -169 OFFCURVE",
"44 -169 CURVE SMOOTH"
);
}
);
width = 458;
}
);
unicode = 007D;
},
{
glyphname = asciitilde;
lastChange = "2016-08-14 21:02:13 +0000";
layers = (
{
layerId = "EEC59083-BA83-4EFB-8B50-D01213A5FD15";
paths = (
{
closed = 1;
nodes = (
"31 180 LINE",
"75 234 OFFCURVE",
"108 254 OFFCURVE",
"136 254 CURVE SMOOTH",
"185 254 OFFCURVE",
"256 184 OFFCURVE",
"332 184 CURVE SMOOTH",
"390 184 OFFCURVE",
"436 216 OFFCURVE",
"477 270 CURVE",
"454 326 LINE",
"410 272 OFFCURVE",
"377 252 OFFCURVE",
"349 252 CURVE SMOOTH",
"300 252 OFFCURVE",
"228 322 OFFCURVE",
"152 322 CURVE SMOOTH",
"94 322 OFFCURVE",
"49 290 OFFCURVE",
"7 236 CURVE"
);
}
);
width = 580;
},
{
layerId = "8956C7A5-95B5-4256-B2D2-E489185594C4";
paths = (
{
closed = 1;
nodes = (
"110 217 LINE",
"125 260 OFFCURVE",
"155 288 OFFCURVE",
"189 288 CURVE SMOOTH",
"245 288 OFFCURVE",
"296 219 OFFCURVE",
"385 219 CURVE SMOOTH",
"478 219 OFFCURVE",
"537 287 OFFCURVE",
"555 371 CURVE",
"475 404 LINE",
"459 360 OFFCURVE",
"436 339 OFFCURVE",
"399 339 CURVE SMOOTH",
"347 339 OFFCURVE",
"278 410 OFFCURVE",
"204 410 CURVE SMOOTH",
"113 410 OFFCURVE",
"51 333 OFFCURVE",
"30 250 CURVE"
);
}
);
width = 565;
}
);
unicode = 007E;
},
{
color = 5;
glyphname = ellipsis;
lastChange = "2016-08-15 21:52:05 +0000";
layers = (
{
components = (
{
name = period;
transform = "{1, 0, 0, 1, 600, 0}";
},
{
name = period;
transform = "{1, 0, 0, 1, 300, 0}";
},
{
name = period;
}
);
layerId = "EEC59083-BA83-4EFB-8B50-D01213A5FD15";
width = 851;
},
{
background = {
paths = (
{
closed = 1;
nodes = (
"50 71 LINE",
"50 67 LINE",
"50 60 LINE",
"51 58 OFFCURVE",
"51 56 OFFCURVE",
"51 53 CURVE SMOOTH",
"51 52 OFFCURVE",
"52 51 OFFCURVE",
"52 50 CURVE",
"54 42 OFFCURVE",
"57 35 OFFCURVE",
"61 28 CURVE",
"64 22 LINE",
"75 9 LINE",
"77 7 LINE SMOOTH",
"83 1 OFFCURVE",
"89 -3 OFFCURVE",
"96 -6 CURVE",
"100 -8 OFFCURVE",
"104 -10 OFFCURVE",
"109 -11 CURVE",
"117 -14 OFFCURVE",
"127 -16 OFFCURVE",
"137 -16 CURVE SMOOTH",
"154 -16 OFFCURVE",
"171 -10 OFFCURVE",
"185 -1 CURVE SMOOTH",
"193 4 OFFCURVE",
"200 11 OFFCURVE",
"206 19 CURVE SMOOTH",
"210 24 OFFCURVE",
"212 29 OFFCURVE",
"215 34 CURVE",
"217 40 LINE",
"220 50 LINE",
"222 57 LINE",
"222 60 LINE",
"223 64 OFFCURVE",
"223 67 OFFCURVE",
"223 71 CURVE SMOOTH",
"223 74 LINE SMOOTH",
"223 80 OFFCURVE",
"222 86 OFFCURVE",
"220 92 CURVE",
"220 94 OFFCURVE",
"219 96 OFFCURVE",
"218 98 CURVE",
"218 99 OFFCURVE",
"218 100 OFFCURVE",
"217 101 CURVE",
"215 108 LINE",
"211 116 OFFCURVE",
"206 123 OFFCURVE",
"200 130 CURVE",
"197 132 OFFCURVE",
"195 135 OFFCURVE",
"193 137 CURVE",
"185 143 OFFCURVE",
"176 149 OFFCURVE",
"167 152 CURVE",
"157 156 OFFCURVE",
"147 158 OFFCURVE",
"137 158 CURVE SMOOTH",
"133 158 LINE SMOOTH",
"130 158 OFFCURVE",
"126 157 OFFCURVE",
"122 157 CURVE",
"116 156 OFFCURVE",
"111 154 OFFCURVE",
"106 152 CURVE",
"103 151 OFFCURVE",
"99 150 OFFCURVE",
"96 148 CURVE",
"88 144 OFFCURVE",
"81 139 OFFCURVE",
"75 132 CURVE",
"73 131 OFFCURVE",
"72 129 OFFCURVE",
"70 127 CURVE",
"66 122 LINE",
"64 120 OFFCURVE",
"62 117 OFFCURVE",
"61 114 CURVE",
"56 106 OFFCURVE",
"53 97 OFFCURVE",
"51 88 CURVE",
"51 86 OFFCURVE",
"51 84 OFFCURVE",
"50 81 CURVE",
"50 74 LINE"
);
},
{
closed = 1;
nodes = (
"650 23 OFFCURVE",
"688 -16 OFFCURVE",
"737 -16 CURVE SMOOTH",
"784 -16 OFFCURVE",
"823 23 OFFCURVE",
"823 71 CURVE SMOOTH",
"823 119 OFFCURVE",
"784 158 OFFCURVE",
"737 158 CURVE SMOOTH",
"688 158 OFFCURVE",
"650 119 OFFCURVE",
"650 71 CURVE SMOOTH"
);
},
{
closed = 1;
nodes = (
"350 23 OFFCURVE",
"388 -16 OFFCURVE",
"437 -16 CURVE SMOOTH",
"484 -16 OFFCURVE",
"523 23 OFFCURVE",
"523 71 CURVE SMOOTH",
"523 119 OFFCURVE",
"484 158 OFFCURVE",
"437 158 CURVE SMOOTH",
"388 158 OFFCURVE",
"350 119 OFFCURVE",
"350 71 CURVE SMOOTH"
);
}
);
};
components = (
{
name = period;
transform = "{1, 0, 0, 1, 600, 0}";
},
{
name = period;
transform = "{1, 0, 0, 1, 300, 0}";
},
{
name = period;
}
);
layerId = "8956C7A5-95B5-4256-B2D2-E489185594C4";
width = 863;
}
);
leftMetricsKey = period;
note = ellipsis;
rightMetricsKey = period;
unicode = 2026;
},
{
glyphname = guilsinglleft;
lastChange = "2016-08-14 21:05:04 +0000";
layers = (
{
layerId = "EEC59083-BA83-4EFB-8B50-D01213A5FD15";
paths = (
{
closed = 1;
nodes = (
"193 84 LINE",
"129 266 LINE",
"286 468 LINE",
"190 468 LINE",
"34 277 LINE",
"50 229 LINE",
"102 84 LINE"
);
}
);
width = 272;
},
{
layerId = "8956C7A5-95B5-4256-B2D2-E489185594C4";
paths = (
{
closed = 1;
nodes = (
"255 76 LINE",
"198 271 LINE",
"347 473 LINE",
"230 473 LINE",
"69 297 LINE",
"60 261 LINE",
"146 76 LINE"
);
}
);
width = 307;
}
);
unicode = 2039;
},
{
glyphname = quoteleft;
lastChange = "2016-08-14 21:02:13 +0000";
layers = (
{
layerId = "EEC59083-BA83-4EFB-8B50-D01213A5FD15";
paths = (
{
closed = 1;
nodes = (
"87 517 LINE",
"176 478 LINE",
"305 731 LINE",
"243 762 LINE"
);
}
);
width = 238;
},
{
layerId = "8956C7A5-95B5-4256-B2D2-E489185594C4";
paths = (
{
closed = 1;
nodes = (
"100 535 LINE",
"232 483 LINE",
"377 768 LINE",
"275 809 LINE"
);
}
);
width = 297;
}
);
unicode = 2018;
},
{
glyphname = quoteright;
lastChange = "2016-08-14 21:02:13 +0000";
layers = (
{
layerId = "EEC59083-BA83-4EFB-8B50-D01213A5FD15";
paths = (
{
closed = 1;
nodes = (
"85 510 LINE",
"146 478 LINE",
"305 724 LINE",
"214 763 LINE"
);
}
);
width = 249;
},
{
layerId = "8956C7A5-95B5-4256-B2D2-E489185594C4";
paths = (
{
closed = 1;
nodes = (
"130 527 LINE",
"232 486 LINE",
"407 760 LINE",
"275 812 LINE"
);
}
);
width = 297;
}
);
unicode = 2019;
},
{
glyphname = quotedblleft;
lastChange = "2016-08-14 21:02:13 +0000";
layers = (
{
layerId = "EEC59083-BA83-4EFB-8B50-D01213A5FD15";
paths = (
{
closed = 1;
nodes = (
"297 517 LINE",
"386 478 LINE",
"515 731 LINE",
"453 762 LINE"
);
},
{
closed = 1;
nodes = (
"87 517 LINE",
"176 479 LINE",
"307 731 LINE",
"244 763 LINE"
);
}
);
width = 448;
},
{
layerId = "8956C7A5-95B5-4256-B2D2-E489185594C4";
paths = (
{
closed = 1;
nodes = (
"338 535 LINE",
"470 483 LINE",
"615 768 LINE",
"513 809 LINE"
);
},
{
closed = 1;
nodes = (
"100 540 LINE",
"232 488 LINE",
"389 767 LINE",
"287 812 LINE"
);
}
);
width = 535;
}
);
unicode = 201C;
},
{
glyphname = quotedblright;
lastChange = "2016-08-14 21:02:13 +0000";
layers = (
{
layerId = "EEC59083-BA83-4EFB-8B50-D01213A5FD15";
paths = (
{
closed = 1;
nodes = (
"296 724 LINE",
"206 763 LINE",
"77 510 LINE",
"138 478 LINE"
);
},
{
closed = 1;
nodes = (
"505 724 LINE",
"415 762 LINE",
"286 510 LINE",
"347 478 LINE"
);
}
);
width = 448;
},
{
layerId = "8956C7A5-95B5-4256-B2D2-E489185594C4";
paths = (
{
closed = 1;
nodes = (
"407 760 LINE",
"275 812 LINE",
"130 527 LINE",
"232 486 LINE"
);
},
{
closed = 1;
nodes = (
"645 755 LINE",
"513 807 LINE",
"356 528 LINE",
"458 483 LINE"
);
}
);
width = 535;
}
);
unicode = 201D;
},
{
glyphname = bullet;
lastChange = "2016-08-14 21:02:13 +0000";
layers = (
{
layerId = "EEC59083-BA83-4EFB-8B50-D01213A5FD15";
paths = (
{
closed = 1;
nodes = (
"107 195 OFFCURVE",
"163 140 OFFCURVE",
"233 140 CURVE SMOOTH",
"303 140 OFFCURVE",
"360 195 OFFCURVE",
"360 266 CURVE SMOOTH",
"360 337 OFFCURVE",
"303 392 OFFCURVE",
"233 392 CURVE SMOOTH",
"163 392 OFFCURVE",
"107 336 OFFCURVE",
"107 266 CURVE SMOOTH"
);
}
);
width = 483;
},
{
layerId = "8956C7A5-95B5-4256-B2D2-E489185594C4";
paths = (
{
closed = 1;
nodes = (
"150 165 OFFCURVE",
"235 80 OFFCURVE",
"340 80 CURVE SMOOTH",
"445 80 OFFCURVE",
"530 165 OFFCURVE",
"530 270 CURVE SMOOTH",
"530 375 OFFCURVE",
"445 460 OFFCURVE",
"340 460 CURVE SMOOTH",
"235 460 OFFCURVE",
"150 375 OFFCURVE",
"150 270 CURVE SMOOTH"
);
}
);
width = 620;
}
);
unicode = 2022;
},
{
glyphname = endash;
lastChange = "2016-08-14 21:02:13 +0000";
layers = (
{
layerId = "EEC59083-BA83-4EFB-8B50-D01213A5FD15";
paths = (
{
closed = 1;
nodes = (
"36 234 LINE",
"536 234 LINE",
"555 318 LINE",
"55 318 LINE"
);
}
);
width = 570;
},
{
layerId = "8956C7A5-95B5-4256-B2D2-E489185594C4";
paths = (
{
closed = 1;
nodes = (
"162 224 LINE",
"662 224 LINE",
"693 358 LINE",
"193 358 LINE"
);
}
);
width = 680;
}
);
unicode = 2013;
},
{
glyphname = emdash;
lastChange = "2016-08-14 21:02:13 +0000";
layers = (
{
layerId = "EEC59083-BA83-4EFB-8B50-D01213A5FD15";
paths = (
{
closed = 1;
nodes = (
"24 234 LINE",
"1019 234 LINE",
"1038 318 LINE",
"43 318 LINE"
);
}
);
width = 1064;
},
{
layerId = "8956C7A5-95B5-4256-B2D2-E489185594C4";
paths = (
{
closed = 1;
nodes = (
"212 224 LINE",
"1112 224 LINE",
"1143 358 LINE",
"243 358 LINE"
);
}
);
width = 1170;
}
);
unicode = 2014;
},
{
glyphname = guilsinglright;
lastChange = "2016-08-14 21:05:11 +0000";
layers = (
{
layerId = "EEC59083-BA83-4EFB-8B50-D01213A5FD15";
paths = (
{
closed = 1;
nodes = (
"110 84 LINE",
"266 275 LINE",
"250 323 LINE",
"198 468 LINE",
"107 468 LINE",
"171 286 LINE",
"14 84 LINE"
);
}
);
width = 263;
},
{
layerId = "8956C7A5-95B5-4256-B2D2-E489185594C4";
paths = (
{
closed = 1;
nodes = (
"137 76 LINE",
"298 252 LINE",
"307 288 LINE",
"221 473 LINE",
"112 473 LINE",
"169 278 LINE",
"20 76 LINE"
);
}
);
width = 307;
}
);
unicode = 203A;
},
{
glyphname = currency;
lastChange = "2016-08-14 21:02:13 +0000";
layers = (
{
layerId = "EEC59083-BA83-4EFB-8B50-D01213A5FD15";
paths = (
{
closed = 1;
nodes = (
"115 300 OFFCURVE",
"123 269 OFFCURVE",
"137 242 CURVE",
"37 155 LINE",
"92 90 LINE",
"192 178 LINE",
"222 156 OFFCURVE",
"259 144 OFFCURVE",
"299 144 CURVE SMOOTH",
"341 144 OFFCURVE",
"384 155 OFFCURVE",
"422 175 CURVE",
"482 91 LINE",
"554 146 LINE",
"495 229 LINE",
"538 272 OFFCURVE",
"565 330 OFFCURVE",
"565 394 CURVE SMOOTH",
"565 427 OFFCURVE",
"557 458 OFFCURVE",
"542 485 CURVE",
"634 566 LINE",
"579 630 LINE",
"486 549 LINE",
"456 570 OFFCURVE",
"420 582 OFFCURVE",
"380 582 CURVE SMOOTH",
"340 582 OFFCURVE",
"300 572 OFFCURVE",
"264 554 CURVE",
"199 647 LINE",
"129 590 LINE",
"190 503 LINE",
"145 459 OFFCURVE",
"115 399 OFFCURVE",
"115 332 CURVE SMOOTH"
);
},
{
closed = 1;
nodes = (
"201 427 OFFCURVE",
"286 502 OFFCURVE",
"373 502 CURVE SMOOTH",
"438 502 OFFCURVE",
"482 453 OFFCURVE",
"482 391 CURVE SMOOTH",
"482 303 OFFCURVE",
"396 228 OFFCURVE",
"310 228 CURVE SMOOTH",
"244 228 OFFCURVE",
"201 277 OFFCURVE",
"201 339 CURVE SMOOTH"
);
}
);
width = 637;
},
{
layerId = "8956C7A5-95B5-4256-B2D2-E489185594C4";
paths = (
{
closed = 1;
nodes = (
"132 296 OFFCURVE",
"136 271 OFFCURVE",
"145 247 CURVE",
"30 146 LINE",
"134 26 LINE",
"248 125 LINE",
"278 108 OFFCURVE",
"313 99 OFFCURVE",
"351 99 CURVE SMOOTH",
"387 99 OFFCURVE",
"423 105 OFFCURVE",
"457 117 CURVE",
"525 20 LINE",
"673 131 LINE",
"608 224 LINE",
"647 274 OFFCURVE",
"672 335 OFFCURVE",
"672 401 CURVE SMOOTH",
"672 428 OFFCURVE",
"667 455 OFFCURVE",
"657 480 CURVE",
"781 588 LINE",
"677 709 LINE",
"553 600 LINE",
"523 616 OFFCURVE",
"489 625 OFFCURVE",
"452 625 CURVE SMOOTH",
"416 625 OFFCURVE",
"379 618 OFFCURVE",
"346 606 CURVE",
"273 712 LINE",
"125 600 LINE",
"194 499 LINE",
"156 449 OFFCURVE",
"132 389 OFFCURVE",
"132 323 CURVE SMOOTH"
);
},
{
closed = 1;
nodes = (
"275 418 OFFCURVE",
"351 486 OFFCURVE",
"430 486 CURVE SMOOTH",
"488 486 OFFCURVE",
"528 443 OFFCURVE",
"528 386 CURVE SMOOTH",
"528 307 OFFCURVE",
"451 240 OFFCURVE",
"373 240 CURVE SMOOTH",
"314 240 OFFCURVE",
"275 283 OFFCURVE",
"275 339 CURVE SMOOTH"
);
}
);
width = 731;
}
);
unicode = 00A4;
},
{
glyphname = brokenbar;
lastChange = "2016-08-14 21:02:13 +0000";
layers = (
{
layerId = "EEC59083-BA83-4EFB-8B50-D01213A5FD15";
paths = (
{
closed = 1;
nodes = (
"122 478 LINE",
"208 478 LINE",
"293 844 LINE",
"207 844 LINE"
);
},
{
closed = 1;
nodes = (
"-18 -131 LINE",
"68 -131 LINE",
"152 235 LINE",
"66 235 LINE"
);
}
);
width = 316;
},
{
layerId = "8956C7A5-95B5-4256-B2D2-E489185594C4";
paths = (
{
closed = 1;
nodes = (
"169 474 LINE",
"302 474 LINE",
"388 844 LINE",
"255 844 LINE"
);
},
{
closed = 1;
nodes = (
"30 -132 LINE",
"163 -132 LINE",
"248 238 LINE",
"115 238 LINE"
);
}
);
width = 318;
}
);
unicode = 00A6;
},
{
glyphname = section;
lastChange = "2016-08-14 21:02:13 +0000";
layers = (
{
layerId = "EEC59083-BA83-4EFB-8B50-D01213A5FD15";
paths = (
{
closed = 1;
nodes = (
"-28 -93 LINE",
"-22 -165 OFFCURVE",
"28 -231 OFFCURVE",
"157 -231 CURVE SMOOTH",
"300 -231 OFFCURVE",
"407 -147 OFFCURVE",
"407 -7 CURVE SMOOTH",
"407 36 OFFCURVE",
"393 74 OFFCURVE",
"367 104 CURVE",
"450 136 OFFCURVE",
"502 201 OFFCURVE",
"502 299 CURVE SMOOTH",
"502 375 OFFCURVE",
"455 427 OFFCURVE",
"378 456 CURVE",
"352 466 OFFCURVE",
"327 476 OFFCURVE",
"301 486 CURVE SMOOTH",
"266 500 OFFCURVE",
"228 522 OFFCURVE",
"228 569 CURVE SMOOTH",
"228 625 OFFCURVE",
"272 669 OFFCURVE",
"357 669 CURVE SMOOTH",
"414 669 OFFCURVE",
"467 634 OFFCURVE",
"457 578 CURVE",
"455 572 OFFCURVE",
"454 566 OFFCURVE",
"453 560 CURVE",
"575 560 LINE",
"581 587 OFFCURVE",
"587 614 OFFCURVE",
"594 641 CURVE",
"550 641 LINE",
"537 707 OFFCURVE",
"476 756 OFFCURVE",
"369 756 CURVE SMOOTH",
"212 756 OFFCURVE",
"126 674 OFFCURVE",
"126 555 CURVE SMOOTH",
"126 509 OFFCURVE",
"142 467 OFFCURVE",
"167 438 CURVE",
"84 404 OFFCURVE",
"36 341 OFFCURVE",
"36 257 CURVE SMOOTH",
"36 177 OFFCURVE",
"68 124 OFFCURVE",
"153 94 CURVE SMOOTH",
"177 85 OFFCURVE",
"201 77 OFFCURVE",
"226 68 CURVE SMOOTH",
"262 55 OFFCURVE",
"302 32 OFFCURVE",
"302 -21 CURVE SMOOTH",
"302 -92 OFFCURVE",
"246 -142 OFFCURVE",
"167 -142 CURVE SMOOTH",
"93 -142 OFFCURVE",
"54 -99 OFFCURVE",
"67 -30 CURVE",
"68 -24 OFFCURVE",
"71 -19 OFFCURVE",
"72 -12 CURVE",
"-55 -12 LINE",
"-61 -39 OFFCURVE",
"-67 -66 OFFCURVE",
"-73 -93 CURVE"
);
},
{
closed = 1;
nodes = (
"137 324 OFFCURVE",
"192 375 OFFCURVE",
"297 377 CURVE",
"349 364 OFFCURVE",
"397 339 OFFCURVE",
"397 287 CURVE SMOOTH",
"397 219 OFFCURVE",
"341 170 OFFCURVE",
"252 168 CURVE",
"190 192 OFFCURVE",
"137 202 OFFCURVE",
"137 269 CURVE SMOOTH"
);
}
);
width = 587;
},
{
layerId = "8956C7A5-95B5-4256-B2D2-E489185594C4";
paths = (
{
closed = 1;
nodes = (
"24 -99 LINE",
"40 -181 OFFCURVE",
"127 -229 OFFCURVE",
"235 -229 CURVE SMOOTH",
"401 -229 OFFCURVE",
"525 -127 OFFCURVE",
"525 17 CURVE SMOOTH",
"525 61 OFFCURVE",
"514 99 OFFCURVE",
"495 126 CURVE",
"551 172 OFFCURVE",
"586 235 OFFCURVE",
"586 304 CURVE SMOOTH",
"586 409 OFFCURVE",
"547 437 OFFCURVE",
"460 470 CURVE",
"437 478 OFFCURVE",
"414 487 OFFCURVE",
"390 495 CURVE SMOOTH",
"356 508 OFFCURVE",
"314 512 OFFCURVE",
"314 552 CURVE SMOOTH",
"314 597 OFFCURVE",
"355 616 OFFCURVE",
"401 616 CURVE SMOOTH",
"450 616 OFFCURVE",
"480 586 OFFCURVE",
"475 537 CURVE",
"472 524 OFFCURVE",
"469 512 OFFCURVE",
"466 499 CURVE",
"647 499 LINE",
"657 543 OFFCURVE",
"668 588 OFFCURVE",
"678 633 CURVE",
"625 633 LINE",
"618 693 OFFCURVE",
"542 756 OFFCURVE",
"415 756 CURVE SMOOTH",
"260 756 OFFCURVE",
"136 679 OFFCURVE",
"136 535 CURVE SMOOTH",
"136 489 OFFCURVE",
"148 451 OFFCURVE",
"167 422 CURVE",
"110 386 OFFCURVE",
"74 329 OFFCURVE",
"74 249 CURVE SMOOTH",
"74 160 OFFCURVE",
"116 97 OFFCURVE",
"183 74 CURVE SMOOTH",
"215 63 OFFCURVE",
"247 52 OFFCURVE",
"279 41 CURVE SMOOTH",
"307 31 OFFCURVE",
"341 21 OFFCURVE",
"341 -11 CURVE SMOOTH",
"341 -51 OFFCURVE",
"308 -82 OFFCURVE",
"251 -82 CURVE SMOOTH",
"188 -82 OFFCURVE",
"165 -52 OFFCURVE",
"172 -2 CURVE",
"175 10 OFFCURVE",
"178 22 OFFCURVE",
"181 35 CURVE",
"1 35 LINE",
"-9 -10 OFFCURVE",
"-20 -54 OFFCURVE",
"-30 -99 CURVE"
);
},
{
closed = 1;
nodes = (
"253 313 OFFCURVE",
"291 330 OFFCURVE",
"329 331 CURVE",
"356 323 OFFCURVE",
"402 309 OFFCURVE",
"402 274 CURVE SMOOTH",
"402 241 OFFCURVE",
"380 213 OFFCURVE",
"341 205 CURVE",
"309 217 OFFCURVE",
"253 225 OFFCURVE",
"253 267 CURVE SMOOTH"
);
}
);
width = 597;
}
);
unicode = 00A7;
},
{
glyphname = copyright;
lastChange = "2016-08-14 21:02:13 +0000";
layers = (
{
layerId = "EEC59083-BA83-4EFB-8B50-D01213A5FD15";
paths = (
{
closed = 1;
nodes = (
"24 174 OFFCURVE",
"210 -12 OFFCURVE",
"442 -12 CURVE SMOOTH",
"673 -12 OFFCURVE",
"861 174 OFFCURVE",
"861 406 CURVE SMOOTH",
"861 637 OFFCURVE",
"673 823 OFFCURVE",
"442 823 CURVE SMOOTH",
"210 823 OFFCURVE",
"24 637 OFFCURVE",
"24 406 CURVE SMOOTH"
);
},
{
closed = 1;
nodes = (
"112 590 OFFCURVE",
"258 736 OFFCURVE",
"442 736 CURVE SMOOTH",
"626 736 OFFCURVE",
"772 590 OFFCURVE",
"772 406 CURVE SMOOTH",
"772 221 OFFCURVE",
"626 75 OFFCURVE",
"442 75 CURVE SMOOTH",
"258 75 OFFCURVE",
"112 221 OFFCURVE",
"112 406 CURVE SMOOTH"
);
},
{
closed = 1;
nodes = (
"625 581 LINE",
"587 617 OFFCURVE",
"527 653 OFFCURVE",
"452 653 CURVE SMOOTH",
"316 653 OFFCURVE",
"208 543 OFFCURVE",
"208 407 CURVE SMOOTH",
"208 271 OFFCURVE",
"316 162 OFFCURVE",
"452 162 CURVE SMOOTH",
"515 162 OFFCURVE",
"582 194 OFFCURVE",
"611 233 CURVE",
"546 296 LINE",
"526 273 OFFCURVE",
"488 257 OFFCURVE",
"452 257 CURVE SMOOTH",
"369 257 OFFCURVE",
"302 324 OFFCURVE",
"302 407 CURVE SMOOTH",
"302 491 OFFCURVE",
"369 560 OFFCURVE",
"452 560 CURVE SMOOTH",
"488 560 OFFCURVE",
"533 542 OFFCURVE",
"555 517 CURVE"
);
}
);
width = 825;
},
{
layerId = "8956C7A5-95B5-4256-B2D2-E489185594C4";
paths = (
{
closed = 1;
nodes = (
"60 174 OFFCURVE",
"246 -12 OFFCURVE",
"478 -12 CURVE SMOOTH",
"709 -12 OFFCURVE",
"897 174 OFFCURVE",
"897 406 CURVE SMOOTH",
"897 637 OFFCURVE",
"709 823 OFFCURVE",
"478 823 CURVE SMOOTH",
"246 823 OFFCURVE",
"60 637 OFFCURVE",
"60 406 CURVE SMOOTH"
);
},
{
closed = 1;
nodes = (
"165 581 OFFCURVE",
"303 719 OFFCURVE",
"478 719 CURVE SMOOTH",
"653 719 OFFCURVE",
"791 581 OFFCURVE",
"791 406 CURVE SMOOTH",
"791 230 OFFCURVE",
"653 92 OFFCURVE",
"478 92 CURVE SMOOTH",
"303 92 OFFCURVE",
"165 230 OFFCURVE",
"165 406 CURVE SMOOTH"
);
},
{
closed = 1;
nodes = (
"671 575 LINE",
"625 625 OFFCURVE",
"559 656 OFFCURVE",
"484 656 CURVE SMOOTH",
"346 656 OFFCURVE",
"234 545 OFFCURVE",
"234 406 CURVE SMOOTH",
"234 267 OFFCURVE",
"346 156 OFFCURVE",
"484 156 CURVE SMOOTH",
"558 156 OFFCURVE",
"624 187 OFFCURVE",
"670 237 CURVE",
"579 327 LINE",
"557 299 OFFCURVE",
"522 283 OFFCURVE",
"484 283 CURVE SMOOTH",
"416 283 OFFCURVE",
"362 338 OFFCURVE",
"362 406 CURVE SMOOTH",
"362 474 OFFCURVE",
"416 529 OFFCURVE",
"484 529 CURVE SMOOTH",
"523 529 OFFCURVE",
"558 511 OFFCURVE",
"580 483 CURVE"
);
}
);
width = 837;
}
);
unicode = 00A9;
},
{
glyphname = logicalnot;
lastChange = "2016-08-14 21:02:13 +0000";
layers = (
{
layerId = "EEC59083-BA83-4EFB-8B50-D01213A5FD15";
paths = (
{
closed = 1;
nodes = (
"88 488 LINE",
"69 404 LINE",
"511 404 LINE",
"466 211 LINE",
"558 211 LINE",
"622 488 LINE"
);
}
);
width = 675;
},
{
layerId = "8956C7A5-95B5-4256-B2D2-E489185594C4";
paths = (
{
closed = 1;
nodes = (
"149 506 LINE",
"118 372 LINE",
"698 372 LINE",
"640 121 LINE",
"780 121 LINE",
"869 506 LINE"
);
}
);
width = 889;
}
);
unicode = 00AC;
},
{
glyphname = registered;
lastChange = "2016-08-14 21:02:13 +0000";
layers = (
{
layerId = "EEC59083-BA83-4EFB-8B50-D01213A5FD15";
paths = (
{
closed = 1;
nodes = (
"24 174 OFFCURVE",
"210 -12 OFFCURVE",
"442 -12 CURVE SMOOTH",
"673 -12 OFFCURVE",
"861 174 OFFCURVE",
"861 406 CURVE SMOOTH",
"861 637 OFFCURVE",
"673 823 OFFCURVE",
"442 823 CURVE SMOOTH",
"210 823 OFFCURVE",
"24 637 OFFCURVE",
"24 406 CURVE SMOOTH"
);
},
{
closed = 1;
nodes = (
"112 590 OFFCURVE",
"258 736 OFFCURVE",
"442 736 CURVE SMOOTH",
"626 736 OFFCURVE",
"772 590 OFFCURVE",
"772 406 CURVE SMOOTH",
"772 221 OFFCURVE",
"626 75 OFFCURVE",
"442 75 CURVE SMOOTH",
"258 75 OFFCURVE",
"112 221 OFFCURVE",
"112 406 CURVE SMOOTH"
);
},
{
closed = 1;
nodes = (
"245 176 LINE",
"430 176 LINE",
"430 253 LINE",
"385 253 LINE",
"385 377 LINE",
"418 377 LINE SMOOTH",
"469 377 OFFCURVE",
"503 354 OFFCURVE",
"512 300 CURVE",
"537 176 LINE",
"662 176 LINE",
"661 253 LINE",
"621 253 LINE",
"602 335 LINE",
"594 369 OFFCURVE",
"577 392 OFFCURVE",
"557 403 CURVE",
"607 425 OFFCURVE",
"634 459 OFFCURVE",
"634 523 CURVE SMOOTH",
"634 599 OFFCURVE",
"574 657 OFFCURVE",
"479 657 CURVE SMOOTH",
"243 657 LINE",
"243 580 LINE",
"293 580 LINE",
"293 253 LINE",
"245 253 LINE"
);
},
{
closed = 1;
nodes = (
"451 580 LINE",
"507 580 OFFCURVE",
"534 556 OFFCURVE",
"534 516 CURVE SMOOTH",
"534 472 OFFCURVE",
"503 453 OFFCURVE",
"456 453 CURVE SMOOTH",
"385 453 LINE",
"385 580 LINE"
);
}
);
width = 825;
},
{
layerId = "8956C7A5-95B5-4256-B2D2-E489185594C4";
paths = (
{
closed = 1;
nodes = (
"60 132 OFFCURVE",
"263 -71 OFFCURVE",
"517 -71 CURVE SMOOTH",
"769 -71 OFFCURVE",
"975 132 OFFCURVE",
"975 386 CURVE SMOOTH",
"975 639 OFFCURVE",
"769 842 OFFCURVE",
"517 842 CURVE SMOOTH",
"263 842 OFFCURVE",
"60 639 OFFCURVE",
"60 386 CURVE SMOOTH"
);
},
{
closed = 1;
nodes = (
"181 574 OFFCURVE",
"329 722 OFFCURVE",
"517 722 CURVE SMOOTH",
"705 722 OFFCURVE",
"853 574 OFFCURVE",
"853 386 CURVE SMOOTH",
"853 197 OFFCURVE",
"705 49 OFFCURVE",
"517 49 CURVE SMOOTH",
"329 49 OFFCURVE",
"181 197 OFFCURVE",
"181 386 CURVE SMOOTH"
);
},
{
closed = 1;
nodes = (
"293 155 LINE",
"516 155 LINE",
"516 261 LINE",
"476 261 LINE",
"476 322 LINE",
"509 322 LINE SMOOTH",
"563 322 OFFCURVE",
"567 301 OFFCURVE",
"571 247 CURVE",
"579 155 LINE",
"745 155 LINE",
"744 261 LINE",
"707 261 LINE",
"697 302 LINE",
"689 342 OFFCURVE",
"671 362 OFFCURVE",
"647 372 CURVE",
"706 396 OFFCURVE",
"727 428 OFFCURVE",
"727 490 CURVE SMOOTH",
"727 552 OFFCURVE",
"673 626 OFFCURVE",
"568 626 CURVE SMOOTH",
"295 626 LINE",
"295 520 LINE",
"346 520 LINE",
"346 261 LINE",
"293 261 LINE"
);
},
{
closed = 1;
nodes = (
"514 520 LINE",
"557 520 OFFCURVE",
"584 502 OFFCURVE",
"584 473 CURVE SMOOTH",
"584 440 OFFCURVE",
"556 428 OFFCURVE",
"509 428 CURVE SMOOTH",
"476 428 LINE",
"476 520 LINE"
);
}
);
width = 915;
}
);
unicode = 00AE;
},
{
glyphname = degree;
lastChange = "2016-08-14 21:05:49 +0000";
layers = (
{
layerId = "EEC59083-BA83-4EFB-8B50-D01213A5FD15";
paths = (
{
closed = 1;
nodes = (
"324 544 OFFCURVE",
"406 600 OFFCURVE",
"406 693 CURVE SMOOTH",
"406 757 OFFCURVE",
"362 807 OFFCURVE",
"293 807 CURVE SMOOTH",
"217 807 OFFCURVE",
"136 747 OFFCURVE",
"136 658 CURVE SMOOTH",
"136 595 OFFCURVE",
"181 544 OFFCURVE",
"249 544 CURVE SMOOTH"
);
},
{
closed = 1;
nodes = (
"221 605 OFFCURVE",
"200 631 OFFCURVE",
"200 662 CURVE SMOOTH",
"200 706 OFFCURVE",
"243 746 OFFCURVE",
"287 746 CURVE SMOOTH",
"320 746 OFFCURVE",
"342 721 OFFCURVE",
"342 689 CURVE SMOOTH",
"342 641 OFFCURVE",
"297 605 OFFCURVE",
"254 605 CURVE SMOOTH"
);
}
);
width = 421;
},
{
layerId = "8956C7A5-95B5-4256-B2D2-E489185594C4";
paths = (
{
closed = 1;
nodes = (
"352 495 OFFCURVE",
"460 561 OFFCURVE",
"460 686 CURVE SMOOTH",
"460 769 OFFCURVE",
"404 826 OFFCURVE",
"319 826 CURVE SMOOTH",
"227 826 OFFCURVE",
"120 756 OFFCURVE",
"120 638 CURVE SMOOTH",
"120 556 OFFCURVE",
"178 495 OFFCURVE",
"265 495 CURVE SMOOTH"
);
},
{
closed = 1;
nodes = (
"238 582 OFFCURVE",
"212 606 OFFCURVE",
"212 643 CURVE SMOOTH",
"212 694 OFFCURVE",
"256 739 OFFCURVE",
"307 739 CURVE SMOOTH",
"344 739 OFFCURVE",
"368 716 OFFCURVE",
"368 679 CURVE SMOOTH",
"368 618 OFFCURVE",
"316 582 OFFCURVE",
"272 582 CURVE SMOOTH"
);
}
);
width = 510;
}
);
unicode = 00B0;
},
{
glyphname = plusminus;
lastChange = "2016-08-14 21:02:13 +0000";
layers = (
{
layerId = "EEC59083-BA83-4EFB-8B50-D01213A5FD15";
paths = (
{
closed = 1;
nodes = (
"236 317 LINE",
"201 163 LINE",
"290 163 LINE",
"301 214 OFFCURVE",
"313 266 OFFCURVE",
"325 317 CURVE",
"531 317 LINE",
"538 347 OFFCURVE",
"545 376 OFFCURVE",
"552 406 CURVE",
"346 406 LINE",
"357 455 OFFCURVE",
"369 505 OFFCURVE",
"380 554 CURVE",
"291 554 LINE",
"279 505 OFFCURVE",
"268 455 OFFCURVE",
"256 406 CURVE",
"52 406 LINE",
"45 376 OFFCURVE",
"38 347 OFFCURVE",
"31 317 CURVE"
);
},
{
closed = 1;
nodes = (
"466 34 LINE",
"472 62 OFFCURVE",
"479 90 OFFCURVE",
"485 118 CURVE",
"-15 118 LINE",
"-21 90 OFFCURVE",
"-28 62 OFFCURVE",
"-34 34 CURVE"
);
}
);
width = 540;
},
{
layerId = "8956C7A5-95B5-4256-B2D2-E489185594C4";
paths = (
{
closed = 1;
nodes = (
"258 363 LINE",
"236 266 LINE",
"381 266 LINE",
"388 298 OFFCURVE",
"396 331 OFFCURVE",
"403 363 CURVE",
"581 363 LINE",
"592 411 OFFCURVE",
"603 459 OFFCURVE",
"614 508 CURVE",
"436 508 LINE",
"444 542 OFFCURVE",
"452 577 OFFCURVE",
"460 612 CURVE",
"315 612 LINE",
"307 577 OFFCURVE",
"299 542 OFFCURVE",
"291 508 CURVE",
"114 508 LINE",
"103 459 OFFCURVE",
"92 411 OFFCURVE",
"81 363 CURVE"
);
},
{
closed = 1;
nodes = (
"520 100 LINE",
"530 145 OFFCURVE",
"541 189 OFFCURVE",
"551 234 CURVE",
"51 234 LINE",
"41 189 OFFCURVE",
"30 145 OFFCURVE",
"20 100 CURVE"
);
}
);
width = 634;
}
);
unicode = 00B1;
},
{
glyphname = paragraph;
lastChange = "2016-08-14 21:02:13 +0000";
layers = (
{
layerId = "EEC59083-BA83-4EFB-8B50-D01213A5FD15";
paths = (
{
closed = 1;
nodes = (
"133 -180 LINE",
"224 -180 LINE",
"417 656 LINE",
"525 656 LINE",
"333 -180 LINE",
"424 -180 LINE",
"617 656 LINE",
"663 656 LINE",
"683 740 LINE",
"381 740 LINE SMOOTH",
"207 740 OFFCURVE",
"87 651 OFFCURVE",
"87 502 CURVE SMOOTH",
"87 414 OFFCURVE",
"151 351 OFFCURVE",
"253 343 CURVE"
);
}
);
width = 656;
},
{
layerId = "8956C7A5-95B5-4256-B2D2-E489185594C4";
paths = (
{
closed = 1;
nodes = (
"135 -177 LINE",
"278 -177 LINE",
"459 606 LINE",
"543 606 LINE",
"362 -177 LINE",
"505 -177 LINE",
"686 606 LINE",
"755 606 LINE",
"786 740 LINE",
"452 740 LINE SMOOTH",
"252 740 OFFCURVE",
"100 607 OFFCURVE",
"100 446 CURVE SMOOTH",
"100 348 OFFCURVE",
"158 285 OFFCURVE",
"236 260 CURVE"
);
}
);
width = 706;
}
);
unicode = 00B6;
},
{
glyphname = germandbls;
lastChange = "2016-08-14 21:02:13 +0000";
layers = (
{
layerId = "EEC59083-BA83-4EFB-8B50-D01213A5FD15";
paths = (
{
closed = 1;
nodes = (
"-23 0 LINE",
"171 0 LINE",
"301 565 LINE",
"317 632 OFFCURVE",
"368 679 OFFCURVE",
"431 679 CURVE SMOOTH",
"491 679 OFFCURVE",
"527 641 OFFCURVE",
"527 589 CURVE SMOOTH",
"527 523 OFFCURVE",
"470 481 OFFCURVE",
"412 481 CURVE SMOOTH",
"375 481 LINE",
"354 390 LINE",
"393 390 LINE SMOOTH",
"458 390 OFFCURVE",
"514 340 OFFCURVE",
"514 265 CURVE SMOOTH",
"514 161 OFFCURVE",
"418 85 OFFCURVE",
"321 85 CURVE SMOOTH",
"308 85 OFFCURVE",
"298 86 OFFCURVE",
"285 89 CURVE",
"264 -1 LINE",
"277 -3 OFFCURVE",
"297 -4 OFFCURVE",
"310 -4 CURVE SMOOTH",
"476 -4 OFFCURVE",
"612 108 OFFCURVE",
"612 275 CURVE SMOOTH",
"612 344 OFFCURVE",
"577 400 OFFCURVE",
"532 435 CURVE",
"575 466 OFFCURVE",
"625 512 OFFCURVE",
"625 594 CURVE SMOOTH",
"625 694 OFFCURVE",
"552 770 OFFCURVE",
"443 770 CURVE SMOOTH",
"316 770 OFFCURVE",
"232 696 OFFCURVE",
"205 576 CURVE",
"91 84 LINE",
"-4 84 LINE"
);
}
);
width = 658;
},
{
layerId = "8956C7A5-95B5-4256-B2D2-E489185594C4";
paths = (
{
closed = 1;
nodes = (
"10 0 LINE",
"269 0 LINE",
"396 549 LINE",
"408 600 OFFCURVE",
"447 634 OFFCURVE",
"493 634 CURVE SMOOTH",
"537 634 OFFCURVE",
"561 604 OFFCURVE",
"561 565 CURVE SMOOTH",
"561 519 OFFCURVE",
"526 478 OFFCURVE",
"480 478 CURVE SMOOTH",
"444 478 LINE",
"412 337 LINE",
"445 337 LINE SMOOTH",
"494 337 OFFCURVE",
"526 300 OFFCURVE",
"526 255 CURVE SMOOTH",
"526 188 OFFCURVE",
"463 135 OFFCURVE",
"398 135 CURVE SMOOTH",
"388 135 OFFCURVE",
"375 136 OFFCURVE",
"366 138 CURVE",
"333 -3 LINE",
"345 -5 OFFCURVE",
"367 -6 OFFCURVE",
"380 -6 CURVE SMOOTH",
"553 -6 OFFCURVE",
"693 91 OFFCURVE",
"693 275 CURVE SMOOTH",
"693 340 OFFCURVE",
"664 397 OFFCURVE",
"617 432 CURVE",
"664 458 OFFCURVE",
"712 507 OFFCURVE",
"712 593 CURVE SMOOTH",
"712 687 OFFCURVE",
"631 770 OFFCURVE",
"509 770 CURVE SMOOTH",
"371 770 OFFCURVE",
"261 688 OFFCURVE",
"235 576 CURVE",
"133 134 LINE",
"41 134 LINE"
);
}
);
width = 722;
}
);
unicode = 00DF;
},
{
glyphname = minus;
lastChange = "2016-08-14 21:02:13 +0000";
layers = (
{
layerId = "EEC59083-BA83-4EFB-8B50-D01213A5FD15";
paths = (
{
closed = 1;
nodes = (
"522 300 LINE",
"541 384 LINE",
"79 384 LINE",
"60 300 LINE"
);
}
);
width = 561;
},
{
layerId = "8956C7A5-95B5-4256-B2D2-E489185594C4";
paths = (
{
closed = 1;
nodes = (
"506 239 LINE",
"537 373 LINE",
"61 373 LINE",
"30 239 LINE"
);
}
);
width = 517;
}
);
unicode = 2212;
},
{
glyphname = sterling;
lastChange = "2016-08-14 21:02:13 +0000";
layers = (
{
layerId = "EEC59083-BA83-4EFB-8B50-D01213A5FD15";
paths = (
{
closed = 1;
nodes = (
"151 321 LINE",
"152 313 OFFCURVE",
"153 307 OFFCURVE",
"154 300 CURVE SMOOTH",
"163 211 OFFCURVE",
"129 127 OFFCURVE",
"40 82 CURVE",
"-14 82 LINE",
"-21 55 OFFCURVE",
"-27 27 OFFCURVE",
"-33 0 CURVE",
"357 0 LINE",
"363 27 OFFCURVE",
"370 55 OFFCURVE",
"376 82 CURVE",
"140 82 LINE",
"207 122 OFFCURVE",
"246 183 OFFCURVE",
"246 247 CURVE SMOOTH",
"246 268 OFFCURVE",
"244 293 OFFCURVE",
"242 321 CURVE",
"357 321 LINE",
"362 345 OFFCURVE",
"367 368 OFFCURVE",
"373 392 CURVE",
"237 392 LINE",
"234 425 OFFCURVE",
"232 462 OFFCURVE",
"231 487 CURVE SMOOTH",
"229 561 OFFCURVE",
"257 630 OFFCURVE",
"344 630 CURVE SMOOTH",
"394 630 OFFCURVE",
"411 582 OFFCURVE",
"400 532 CURVE",
"427 534 OFFCURVE",
"454 536 OFFCURVE",
"481 537 CURVE",
"508 636 OFFCURVE",
"448 710 OFFCURVE",
"350 710 CURVE SMOOTH",
"333 710 OFFCURVE",
"317 708 OFFCURVE",
"303 706 CURVE SMOOTH",
"199 686 OFFCURVE",
"135 602 OFFCURVE",
"135 477 CURVE SMOOTH",
"135 449 OFFCURVE",
"137 420 OFFCURVE",
"141 392 CURVE",
"44 392 LINE",
"39 368 OFFCURVE",
"33 345 OFFCURVE",
"28 321 CURVE"
);
}
);
width = 491;
},
{
layerId = "8956C7A5-95B5-4256-B2D2-E489185594C4";
paths = (
{
closed = 1;
nodes = (
"164 285 LINE",
"166 272 OFFCURVE",
"167 260 OFFCURVE",
"167 249 CURVE SMOOTH",
"169 214 OFFCURVE",
"157 168 OFFCURVE",
"140 134 CURVE",
"61 134 LINE",
"51 89 OFFCURVE",
"40 44 OFFCURVE",
"30 0 CURVE",
"469 0 LINE",
"479 44 OFFCURVE",
"490 89 OFFCURVE",
"500 134 CURVE",
"295 134 LINE",
"319 168 OFFCURVE",
"336 208 OFFCURVE",
"344 247 CURVE SMOOTH",
"346 260 OFFCURVE",
"348 273 OFFCURVE",
"348 285 CURVE",
"431 285 LINE",
"440 325 OFFCURVE",
"450 365 OFFCURVE",
"459 405 CURVE",
"329 405 LINE",
"326 424 OFFCURVE",
"325 450 OFFCURVE",
"325 469 CURVE SMOOTH",
"325 542 OFFCURVE",
"360 569 OFFCURVE",
"399 569 CURVE SMOOTH",
"430 569 OFFCURVE",
"454 543 OFFCURVE",
"444 491 CURVE",
"497 493 OFFCURVE",
"550 495 OFFCURVE",
"603 497 CURVE",
"619 622 OFFCURVE",
"563 693 OFFCURVE",
"455 708 CURVE SMOOTH",
"440 711 OFFCURVE",
"423 712 OFFCURVE",
"406 712 CURVE SMOOTH",
"271 712 OFFCURVE",
"150 617 OFFCURVE",
"150 427 CURVE SMOOTH",
"150 419 OFFCURVE",
"150 412 OFFCURVE",
"150 405 CURVE",
"102 405 LINE",
"93 365 OFFCURVE",
"83 325 OFFCURVE",
"74 285 CURVE"
);
}
);
width = 576;
}
);
unicode = 00A3;
},
{
glyphname = cent;
lastChange = "2016-08-14 21:02:13 +0000";
layers = (
{
components = (
{
name = c;
transform = "{1, 0, 0, 1, 5, 0}";
}
);
layerId = "EEC59083-BA83-4EFB-8B50-D01213A5FD15";
paths = (
{
closed = 1;
nodes = (
"268 -118 LINE",
"309 59 LINE",
"213 59 LINE",
"172 -118 LINE"
);
},
{
closed = 1;
nodes = (
"399 450 LINE",
"443 640 LINE",
"347 640 LINE",
"303 450 LINE"
);
}
);
width = 554;
},
{
components = (
{
name = c;
}
);
layerId = "8956C7A5-95B5-4256-B2D2-E489185594C4";
paths = (
{
closed = 1;
nodes = (
"306 -118 LINE",
"348 63 LINE",
"186 63 LINE",
"144 -118 LINE"
);
},
{
closed = 1;
nodes = (
"441 468 LINE",
"483 649 LINE",
"321 649 LINE",
"279 468 LINE"
);
}
);
width = 572;
}
);
unicode = 00A2;
},
{
glyphname = multiply;
lastChange = "2016-08-14 21:02:13 +0000";
layers = (
{
layerId = "EEC59083-BA83-4EFB-8B50-D01213A5FD15";
paths = (
{
closed = 1;
nodes = (
"10 118 LINE",
"75 49 LINE",
"299 259 LINE",
"425 52 LINE",
"505 107 LINE",
"372 327 LINE",
"606 548 LINE",
"541 616 LINE",
"321 410 LINE",
"202 608 LINE",
"124 551 LINE",
"249 343 LINE"
);
}
);
width = 596;
},
{
layerId = "8956C7A5-95B5-4256-B2D2-E489185594C4";
paths = (
{
closed = 1;
nodes = (
"15 147 LINE",
"107 43 LINE",
"307 217 LINE",
"424 48 LINE",
"548 141 LINE",
"425 319 LINE",
"646 511 LINE",
"554 616 LINE",
"346 435 LINE",
"225 610 LINE",
"101 516 LINE",
"228 332 LINE"
);
}
);
width = 616;
}
);
unicode = 00D7;
},
{
glyphname = circumflex;
lastChange = "2016-08-14 21:05:37 +0000";
layers = (
{
anchors = (
{
name = _top;
position = "{268, 506}";
}
);
layerId = "EEC59083-BA83-4EFB-8B50-D01213A5FD15";
paths = (
{
closed = 1;
nodes = (
"221 572 LINE",
"282 633 LINE",
"313 572 LINE",
"396 572 LINE",
"323 705 LINE",
"268 705 LINE",
"123 572 LINE"
);
}
);
width = 390;
},
{
anchors = (
{
name = _top;
position = "{243, 506}";
}
);
layerId = "8956C7A5-95B5-4256-B2D2-E489185594C4";
paths = (
{
closed = 1;
nodes = (
"184 575 LINE",
"268 652 LINE",
"315 575 LINE",
"436 575 LINE",
"340 734 LINE",
"223 734 LINE",
"49 575 LINE"
);
}
);
width = 484;
}
);
unicode = 02C6;
},
{
glyphname = tilde;
lastChange = "2016-08-14 21:02:13 +0000";
layers = (
{
anchors = (
{
name = _top;
position = "{301, 506}";
}
);
layerId = "EEC59083-BA83-4EFB-8B50-D01213A5FD15";
paths = (
{
closed = 1;
nodes = (
"194 691 OFFCURVE",
"147 677 OFFCURVE",
"116 600 CURVE",
"176 585 LINE",
"190 617 OFFCURVE",
"206 628 OFFCURVE",
"227 628 CURVE SMOOTH",
"270 628 OFFCURVE",
"294 575 OFFCURVE",
"372 575 CURVE SMOOTH",
"421 575 OFFCURVE",
"466 594 OFFCURVE",
"485 665 CURVE",
"425 680 LINE",
"412 650 OFFCURVE",
"394 638 OFFCURVE",
"376 638 CURVE SMOOTH",
"325 638 OFFCURVE",
"304 691 OFFCURVE",
"229 691 CURVE SMOOTH"
);
}
);
width = 444;
},
{
anchors = (
{
name = _top;
position = "{264, 506}";
}
);
layerId = "8956C7A5-95B5-4256-B2D2-E489185594C4";
paths = (
{
closed = 1;
nodes = (
"118 722 OFFCURVE",
"59 704 OFFCURVE",
"20 612 CURVE",
"103 584 LINE",
"119 608 OFFCURVE",
"138 623 OFFCURVE",
"162 623 CURVE SMOOTH",
"212 623 OFFCURVE",
"248 571 OFFCURVE",
"319 571 CURVE SMOOTH",
"370 571 OFFCURVE",
"431 593 OFFCURVE",
"464 681 CURVE",
"380 710 LINE",
"368 687 OFFCURVE",
"349 670 OFFCURVE",
"328 670 CURVE SMOOTH",
"273 670 OFFCURVE",
"243 722 OFFCURVE",
"167 722 CURVE SMOOTH"
);
}
);
width = 514;
}
);
unicode = 02DC;
},
{
glyphname = macron;
lastChange = "2016-08-14 21:02:13 +0000";
layers = (
{
anchors = (
{
name = _top;
position = "{307, 506}";
}
);
layerId = "EEC59083-BA83-4EFB-8B50-D01213A5FD15";
paths = (
{
closed = 1;
nodes = (
"487 655 LINE",
"114 655 LINE",
"102 603 LINE",
"475 603 LINE"
);
}
);
width = 450;
},
{
anchors = (
{
name = _top;
position = "{208, 506}";
}
);
layerId = "8956C7A5-95B5-4256-B2D2-E489185594C4";
paths = (
{
closed = 1;
nodes = (
"395 679 LINE",
"59 679 LINE",
"35 574 LINE",
"371 574 LINE"
);
}
);
width = 420;
}
);
unicode = 00AF;
},
{
glyphname = breve;
lastChange = "2016-08-14 21:02:13 +0000";
layers = (
{
anchors = (
{
name = _top;
position = "{319, 506}";
}
);
layerId = "EEC59083-BA83-4EFB-8B50-D01213A5FD15";
paths = (
{
closed = 1;
nodes = (
"438 542 OFFCURVE",
"532 619 OFFCURVE",
"533 723 CURVE",
"445 723 LINE",
"445 664 OFFCURVE",
"393 614 OFFCURVE",
"322 614 CURVE SMOOTH",
"252 614 OFFCURVE",
"200 664 OFFCURVE",
"200 722 CURVE",
"112 722 LINE",
"112 619 OFFCURVE",
"208 542 OFFCURVE",
"322 542 CURVE SMOOTH"
);
}
);
width = 434;
},
{
anchors = (
{
name = _top;
position = "{244, 506}";
}
);
layerId = "8956C7A5-95B5-4256-B2D2-E489185594C4";
paths = (
{
closed = 1;
nodes = (
"368 565 OFFCURVE",
"432 623 OFFCURVE",
"460 723 CURVE",
"338 723 LINE",
"322 681 OFFCURVE",
"292 663 OFFCURVE",
"246 663 CURVE SMOOTH",
"197 663 OFFCURVE",
"166 684 OFFCURVE",
"153 723 CURVE",
"30 723 LINE",
"62 622 OFFCURVE",
"122 565 OFFCURVE",
"246 565 CURVE SMOOTH"
);
}
);
width = 490;
}
);
unicode = 02D8;
},
{
glyphname = cedilla;
lastChange = "2016-08-14 21:02:13 +0000";
layers = (
{
anchors = (
{
name = _bottom;
position = "{133, 0}";
}
);
layerId = "EEC59083-BA83-4EFB-8B50-D01213A5FD15";
paths = (
{
closed = 1;
nodes = (
"1 -205 LINE",
"108 -204 OFFCURVE",
"189 -147 OFFCURVE",
"208 -57 CURVE",
"122 -32 LINE",
"110 -95 OFFCURVE",
"67 -136 OFFCURVE",
"-13 -137 CURVE"
);
}
);
width = 341;
},
{
anchors = (
{
name = _bottom;
position = "{220, 0}";
}
);
layerId = "8956C7A5-95B5-4256-B2D2-E489185594C4";
paths = (
{
closed = 1;
nodes = (
"84 -221 LINE",
"179 -209 OFFCURVE",
"257 -158 OFFCURVE",
"294 -68 CURVE",
"165 -23 LINE",
"148 -89 OFFCURVE",
"117 -125 OFFCURVE",
"50 -141 CURVE"
);
}
);
width = 344;
}
);
unicode = 00B8;
},
{
glyphname = hungarumlaut;
lastChange = "2016-08-14 21:02:13 +0000";
layers = (
{
layerId = "EEC59083-BA83-4EFB-8B50-D01213A5FD15";
paths = (
{
closed = 1;
nodes = (
"262 736 LINE",
"154 580 LINE",
"232 580 LINE",
"341 736 LINE"
);
},
{
closed = 1;
nodes = (
"107 736 LINE",
"1 580 LINE",
"78 580 LINE",
"187 736 LINE"
);
}
);
width = 395;
},
{
layerId = "8956C7A5-95B5-4256-B2D2-E489185594C4";
paths = (
{
closed = 1;
nodes = (
"333 736 LINE",
"231 580 LINE",
"323 580 LINE",
"460 736 LINE"
);
},
{
closed = 1;
nodes = (
"140 736 LINE",
"50 580 LINE",
"141 580 LINE",
"266 736 LINE"
);
}
);
width = 510;
}
);
unicode = 02DD;
},
{
glyphname = ogonek;
lastChange = "2016-08-14 21:02:13 +0000";
layers = (
{
layerId = "EEC59083-BA83-4EFB-8B50-D01213A5FD15";
paths = (
{
closed = 1;
nodes = (
"167 52 LINE",
"110 37 OFFCURVE",
"-6 -22 OFFCURVE",
"-6 -122 CURVE SMOOTH",
"-6 -188 OFFCURVE",
"52 -223 OFFCURVE",
"131 -223 CURVE SMOOTH",
"161 -223 OFFCURVE",
"204 -211 OFFCURVE",
"218 -203 CURVE",
"194 -122 LINE",
"181 -128 OFFCURVE",
"164 -133 OFFCURVE",
"139 -133 CURVE SMOOTH",
"116 -133 OFFCURVE",
"94 -125 OFFCURVE",
"94 -100 CURVE SMOOTH",
"94 -56 OFFCURVE",
"123 -23 OFFCURVE",
"209 14 CURVE"
);
}
);
width = 344;
},
{
layerId = "8956C7A5-95B5-4256-B2D2-E489185594C4";
paths = (
{
closed = 1;
nodes = (
"223 52 LINE",
"166 37 OFFCURVE",
"50 -22 OFFCURVE",
"50 -122 CURVE SMOOTH",
"50 -188 OFFCURVE",
"108 -223 OFFCURVE",
"187 -223 CURVE SMOOTH",
"217 -223 OFFCURVE",
"260 -211 OFFCURVE",
"274 -203 CURVE",
"250 -122 LINE",
"237 -128 OFFCURVE",
"220 -133 OFFCURVE",
"195 -133 CURVE SMOOTH",
"172 -133 OFFCURVE",
"150 -125 OFFCURVE",
"150 -100 CURVE SMOOTH",
"150 -56 OFFCURVE",
"179 -23 OFFCURVE",
"265 14 CURVE"
);
}
);
width = 324;
}
);
unicode = 02DB;
},
{
glyphname = caron;
lastChange = "2016-08-14 21:05:47 +0000";
layers = (
{
anchors = (
{
name = _top;
position = "{266, 506}";
}
);
layerId = "EEC59083-BA83-4EFB-8B50-D01213A5FD15";
paths = (
{
closed = 1;
nodes = (
"264 572 LINE",
"409 705 LINE",
"313 705 LINE",
"250 642 LINE",
"217 705 LINE",
"136 705 LINE",
"209 572 LINE"
);
}
);
width = 380;
},
{
anchors = (
{
name = _top;
position = "{240, 506}";
}
);
layerId = "8956C7A5-95B5-4256-B2D2-E489185594C4";
paths = (
{
closed = 1;
nodes = (
"292 575 LINE",
"466 734 LINE",
"331 734 LINE",
"247 657 LINE",
"200 734 LINE",
"79 734 LINE",
"175 575 LINE"
);
}
);
width = 484;
}
);
unicode = 02C7;
},
{
glyphname = acute;
lastChange = "2016-08-14 21:02:13 +0000";
layers = (
{
anchors = (
{
name = _top;
position = "{165, 506}";
}
);
layerId = "EEC59083-BA83-4EFB-8B50-D01213A5FD15";
paths = (
{
closed = 1;
nodes = (
"119 572 LINE",
"191 572 LINE",
"324 697 LINE",
"324 705 LINE",
"201 705 LINE"
);
}
);
width = 325;
},
{
anchors = (
{
name = _top;
position = "{97, 506}";
}
);
layerId = "8956C7A5-95B5-4256-B2D2-E489185594C4";
paths = (
{
closed = 1;
nodes = (
"50 575 LINE",
"162 575 LINE",
"309 722 LINE",
"309 734 LINE",
"150 734 LINE"
);
}
);
width = 359;
}
);
unicode = 00B4;
},
{
glyphname = dieresis;
lastChange = "2016-08-14 21:02:13 +0000";
layers = (
{
anchors = (
{
name = _top;
position = "{282, 506}";
}
);
layerId = "EEC59083-BA83-4EFB-8B50-D01213A5FD15";
paths = (
{
closed = 1;
nodes = (
"125 597 OFFCURVE",
"151 571 OFFCURVE",
"184 571 CURVE SMOOTH",
"215 571 OFFCURVE",
"242 597 OFFCURVE",
"242 630 CURVE SMOOTH",
"242 661 OFFCURVE",
"215 688 OFFCURVE",
"184 688 CURVE SMOOTH",
"151 688 OFFCURVE",
"125 661 OFFCURVE",
"125 630 CURVE SMOOTH"
);
},
{
closed = 1;
nodes = (
"350 597 OFFCURVE",
"375 571 OFFCURVE",
"407 571 CURVE SMOOTH",
"439 571 OFFCURVE",
"465 597 OFFCURVE",
"465 630 CURVE SMOOTH",
"465 661 OFFCURVE",
"439 688 OFFCURVE",
"407 688 CURVE SMOOTH",
"375 688 OFFCURVE",
"350 661 OFFCURVE",
"350 630 CURVE SMOOTH"
);
}
);
width = 480;
},
{
anchors = (
{
name = _top;
position = "{250, 507}";
}
);
layerId = "8956C7A5-95B5-4256-B2D2-E489185594C4";
paths = (
{
closed = 1;
nodes = (
"50 609 OFFCURVE",
"87 572 OFFCURVE",
"133 572 CURVE SMOOTH",
"179 572 OFFCURVE",
"216 609 OFFCURVE",
"216 655 CURVE SMOOTH",
"216 701 OFFCURVE",
"179 738 OFFCURVE",
"133 738 CURVE SMOOTH",
"87 738 OFFCURVE",
"50 701 OFFCURVE",
"50 655 CURVE SMOOTH"
);
},
{
closed = 1;
nodes = (
"284 609 OFFCURVE",
"321 572 OFFCURVE",
"367 572 CURVE SMOOTH",
"413 572 OFFCURVE",
"450 609 OFFCURVE",
"450 655 CURVE SMOOTH",
"450 701 OFFCURVE",
"413 738 OFFCURVE",
"367 738 CURVE SMOOTH",
"321 738 OFFCURVE",
"284 701 OFFCURVE",
"284 655 CURVE SMOOTH"
);
}
);
width = 500;
}
);
unicode = 00A8;
},
{
glyphname = ring;
lastChange = "2016-08-14 21:06:00 +0000";
layers = (
{
anchors = (
{
name = _top;
position = "{197, 506}";
}
);
layerId = "EEC59083-BA83-4EFB-8B50-D01213A5FD15";
paths = (
{
closed = 1;
nodes = (
"232 566 OFFCURVE",
"271 605 OFFCURVE",
"271 652 CURVE SMOOTH",
"271 699 OFFCURVE",
"232 738 OFFCURVE",
"186 738 CURVE SMOOTH",
"139 738 OFFCURVE",
"100 699 OFFCURVE",
"100 652 CURVE SMOOTH",
"100 605 OFFCURVE",
"139 566 OFFCURVE",
"186 566 CURVE SMOOTH"
);
},
{
closed = 1;
nodes = (
"167 618 OFFCURVE",
"151 634 OFFCURVE",
"151 652 CURVE SMOOTH",
"151 670 OFFCURVE",
"167 686 OFFCURVE",
"186 686 CURVE SMOOTH",
"204 686 OFFCURVE",
"220 670 OFFCURVE",
"220 652 CURVE SMOOTH",
"220 634 OFFCURVE",
"204 618 OFFCURVE",
"186 618 CURVE SMOOTH"
);
}
);
width = 237;
},
{
anchors = (
{
name = _top;
position = "{173, 506}";
}
);
layerId = "8956C7A5-95B5-4256-B2D2-E489185594C4";
paths = (
{
closed = 1;
nodes = (
"239 559 OFFCURVE",
"294 614 OFFCURVE",
"294 681 CURVE SMOOTH",
"294 748 OFFCURVE",
"239 803 OFFCURVE",
"172 803 CURVE SMOOTH",
"105 803 OFFCURVE",
"50 748 OFFCURVE",
"50 681 CURVE SMOOTH",
"50 614 OFFCURVE",
"105 559 OFFCURVE",
"172 559 CURVE SMOOTH"
);
},
{
closed = 1;
nodes = (
"153 647 OFFCURVE",
"138 662 OFFCURVE",
"138 681 CURVE SMOOTH",
"138 700 OFFCURVE",
"153 715 OFFCURVE",
"172 715 CURVE SMOOTH",
"191 715 OFFCURVE",
"206 700 OFFCURVE",
"206 681 CURVE SMOOTH",
"206 662 OFFCURVE",
"191 647 OFFCURVE",
"172 647 CURVE SMOOTH"
);
}
);
width = 344;
}
);
unicode = 02DA;
},
{
glyphname = dotaccent;
lastChange = "2016-08-14 21:02:13 +0000";
layers = (
{
anchors = (
{
name = _top;
position = "{167, 506}";
}
);
layerId = "EEC59083-BA83-4EFB-8B50-D01213A5FD15";
paths = (
{
closed = 1;
nodes = (
"113 649 OFFCURVE",
"142 618 OFFCURVE",
"178 618 CURVE SMOOTH",
"213 618 OFFCURVE",
"242 649 OFFCURVE",
"242 684 CURVE SMOOTH",
"242 719 OFFCURVE",
"213 748 OFFCURVE",
"178 748 CURVE SMOOTH",
"142 748 OFFCURVE",
"113 719 OFFCURVE",
"113 684 CURVE SMOOTH"
);
}
);
width = 197;
},
{
anchors = (
{
name = _top;
position = "{136, 506}";
}
);
layerId = "8956C7A5-95B5-4256-B2D2-E489185594C4";
paths = (
{
closed = 1;
nodes = (
"50 621 OFFCURVE",
"88 582 OFFCURVE",
"137 582 CURVE SMOOTH",
"184 582 OFFCURVE",
"223 621 OFFCURVE",
"223 669 CURVE SMOOTH",
"223 717 OFFCURVE",
"184 756 OFFCURVE",
"137 756 CURVE SMOOTH",
"88 756 OFFCURVE",
"50 717 OFFCURVE",
"50 669 CURVE SMOOTH"
);
}
);
width = 273;
}
);
unicode = 02D9;
},
{
glyphname = AE;
lastChange = "2016-08-14 21:02:13 +0000";
layers = (
{
layerId = "EEC59083-BA83-4EFB-8B50-D01213A5FD15";
paths = (
{
closed = 1;
nodes = (
"157 0 LINE",
"163 28 OFFCURVE",
"169 56 OFFCURVE",
"176 84 CURVE",
"116 84 LINE",
"157 140 OFFCURVE",
"198 195 OFFCURVE",
"239 251 CURVE",
"440 251 LINE",
"428 195 OFFCURVE",
"415 140 OFFCURVE",
"402 84 CURVE",
"337 84 LINE",
"331 56 OFFCURVE",
"324 28 OFFCURVE",
"318 0 CURVE",
"848 0 LINE",
"864 71 OFFCURVE",
"880 141 OFFCURVE",
"897 212 CURVE",
"795 212 LINE",
"785 169 OFFCURVE",
"775 126 OFFCURVE",
"765 84 CURVE",
"504 84 LINE",
"523 167 OFFCURVE",
"542 251 OFFCURVE",
"562 335 CURVE",
"778 335 LINE",
"785 363 OFFCURVE",
"792 391 OFFCURVE",
"799 419 CURVE",
"581 419 LINE",
"599 498 OFFCURVE",
"617 577 OFFCURVE",
"635 656 CURVE",
"899 656 LINE",
"889 613 OFFCURVE",
"879 571 OFFCURVE",
"869 529 CURVE",
"970 529 LINE",
"986 599 OFFCURVE",
"1002 670 OFFCURVE",
"1019 740 CURVE",
"481 740 LINE",
"320 521 OFFCURVE",
"159 303 OFFCURVE",
"-2 84 CURVE",
"-64 84 LINE",
"-71 56 OFFCURVE",
"-77 28 OFFCURVE",
"-83 0 CURVE"
);
},
{
closed = 1;
nodes = (
"301 335 LINE",
"378 439 OFFCURVE",
"455 544 OFFCURVE",
"532 648 CURVE",
"508 544 OFFCURVE",
"484 439 OFFCURVE",
"460 335 CURVE"
);
}
);
width = 972;
},
{
layerId = "8956C7A5-95B5-4256-B2D2-E489185594C4";
paths = (
{
closed = 1;
nodes = (
"260 0 LINE",
"270 44 OFFCURVE",
"281 89 OFFCURVE",
"291 134 CURVE",
"220 134 LINE",
"246 168 OFFCURVE",
"273 202 OFFCURVE",
"299 236 CURVE",
"496 236 LINE",
"482 177 OFFCURVE",
"468 118 OFFCURVE",
"455 59 CURVE",
"455 59 LINE",
"450 40 OFFCURVE",
"445 20 OFFCURVE",
"441 0 CURVE",
"976 0 LINE",
"997 88 OFFCURVE",
"1017 177 OFFCURVE",
"1037 265 CURVE",
"866 265 LINE",
"856 221 OFFCURVE",
"846 178 OFFCURVE",
"836 134 CURVE",
"643 134 LINE",
"656 191 OFFCURVE",
"669 248 OFFCURVE",
"683 305 CURVE",
"847 305 LINE",
"858 353 OFFCURVE",
"869 399 OFFCURVE",
"880 447 CURVE",
"715 447 LINE",
"728 500 OFFCURVE",
"740 553 OFFCURVE",
"752 606 CURVE",
"958 606 LINE",
"949 566 OFFCURVE",
"940 527 OFFCURVE",
"931 488 CURVE",
"1102 488 LINE",
"1122 572 OFFCURVE",
"1141 656 OFFCURVE",
"1160 740 CURVE",
"500 740 LINE",
"343 538 OFFCURVE",
"185 336 OFFCURVE",
"28 134 CURVE",
"-39 134 LINE",
"-49 89 OFFCURVE",
"-60 44 OFFCURVE",
"-70 0 CURVE"
);
},
{
closed = 1;
nodes = (
"409 377 LINE",
"465 450 OFFCURVE",
"522 523 OFFCURVE",
"579 596 CURVE",
"562 523 OFFCURVE",
"545 450 OFFCURVE",
"528 377 CURVE"
);
}
);
width = 1070;
}
);
unicode = 00C6;
},
{
glyphname = ae;
lastChange = "2016-08-14 21:02:13 +0000";
layers = (
{
layerId = "EEC59083-BA83-4EFB-8B50-D01213A5FD15";
paths = (
{
closed = 1;
nodes = (
"149 296 OFFCURVE",
"-3 264 OFFCURVE",
"-3 120 CURVE SMOOTH",
"-3 27 OFFCURVE",
"70 -14 OFFCURVE",
"164 -14 CURVE SMOOTH",
"245 -14 OFFCURVE",
"323 22 OFFCURVE",
"374 91 CURVE",
"412 23 OFFCURVE",
"484 -15 OFFCURVE",
"567 -15 CURVE SMOOTH",
"655 -15 OFFCURVE",
"737 22 OFFCURVE",
"781 80 CURVE",
"757 98 OFFCURVE",
"733 115 OFFCURVE",
"709 133 CURVE",
"677 93 OFFCURVE",
"627 71 OFFCURVE",
"575 71 CURVE SMOOTH",
"497 71 OFFCURVE",
"441 133 OFFCURVE",
"441 215 CURVE SMOOTH",
"441 221 OFFCURVE",
"441 227 OFFCURVE",
"442 236 CURVE",
"831 236 LINE",
"836 262 OFFCURVE",
"840 294 OFFCURVE",
"840 327 CURVE SMOOTH",
"840 427 OFFCURVE",
"765 521 OFFCURVE",
"636 521 CURVE SMOOTH",
"562 521 OFFCURVE",
"495 494 OFFCURVE",
"444 449 CURVE",
"422 496 OFFCURVE",
"374 517 OFFCURVE",
"303 517 CURVE SMOOTH",
"239 517 OFFCURVE",
"164 494 OFFCURVE",
"109 463 CURVE",
"114 442 OFFCURVE",
"119 421 OFFCURVE",
"124 400 CURVE",
"158 419 OFFCURVE",
"215 437 OFFCURVE",
"276 437 CURVE SMOOTH",
"341 437 OFFCURVE",
"378 404 OFFCURVE",
"361 332 CURVE SMOOTH",
"357 316 OFFCURVE",
"354 301 OFFCURVE",
"350 286 CURVE",
"325 292 OFFCURVE",
"292 296 OFFCURVE",
"248 296 CURVE SMOOTH"
);
},
{
closed = 1;
nodes = (
"122 62 OFFCURVE",
"89 85 OFFCURVE",
"89 133 CURVE SMOOTH",
"89 195 OFFCURVE",
"151 233 OFFCURVE",
"231 233 CURVE SMOOTH",
"343 233 LINE",
"343 228 OFFCURVE",
"343 222 OFFCURVE",
"343 217 CURVE SMOOTH",
"343 192 OFFCURVE",
"346 170 OFFCURVE",
"351 149 CURVE",
"304 94 OFFCURVE",
"240 62 OFFCURVE",
"173 62 CURVE SMOOTH"
);
},
{
closed = 1;
nodes = (
"697 438 OFFCURVE",
"748 396 OFFCURVE",
"746 315 CURVE",
"458 315 LINE",
"484 385 OFFCURVE",
"545 438 OFFCURVE",
"623 438 CURVE SMOOTH"
);
}
);
width = 865;
},
{
layerId = "8956C7A5-95B5-4256-B2D2-E489185594C4";
paths = (
{
closed = 1;
nodes = (
"113 311 OFFCURVE",
"20 238 OFFCURVE",
"20 131 CURVE SMOOTH",
"20 55 OFFCURVE",
"77 -12 OFFCURVE",
"192 -12 CURVE SMOOTH",
"289 -12 OFFCURVE",
"349 23 OFFCURVE",
"400 75 CURVE",
"442 19 OFFCURVE",
"511 -13 OFFCURVE",
"589 -13 CURVE SMOOTH",
"687 -13 OFFCURVE",
"776 19 OFFCURVE",
"841 89 CURVE",
"805 120 OFFCURVE",
"770 152 OFFCURVE",
"734 183 CURVE",
"698 152 OFFCURVE",
"664 130 OFFCURVE",
"612 130 CURVE SMOOTH",
"570 130 OFFCURVE",
"543 146 OFFCURVE",
"529 171 CURVE SMOOTH",
"522 184 OFFCURVE",
"518 199 OFFCURVE",
"517 215 CURVE",
"878 215 LINE",
"887 243 OFFCURVE",
"893 285 OFFCURVE",
"893 311 CURVE SMOOTH",
"893 421 OFFCURVE",
"798 521 OFFCURVE",
"667 521 CURVE SMOOTH",
"601 521 OFFCURVE",
"539 501 OFFCURVE",
"488 466 CURVE",
"454 501 OFFCURVE",
"398 517 OFFCURVE",
"334 517 CURVE SMOOTH",
"255 517 OFFCURVE",
"181 491 OFFCURVE",
"111 447 CURVE",
"119 415 OFFCURVE",
"128 384 OFFCURVE",
"136 352 CURVE",
"185 375 OFFCURVE",
"231 387 OFFCURVE",
"292 387 CURVE SMOOTH",
"351 387 OFFCURVE",
"384 365 OFFCURVE",
"372 314 CURVE SMOOTH",
"371 309 OFFCURVE",
"370 304 OFFCURVE",
"369 299 CURVE",
"338 306 OFFCURVE",
"303 311 OFFCURVE",
"259 311 CURVE SMOOTH"
);
},
{
closed = 1;
nodes = (
"178 103 OFFCURVE",
"161 121 OFFCURVE",
"161 146 CURVE SMOOTH",
"161 198 OFFCURVE",
"212 206 OFFCURVE",
"259 206 CURVE SMOOTH",
"358 206 LINE",
"358 200 OFFCURVE",
"358 194 OFFCURVE",
"359 188 CURVE SMOOTH",
"360 177 OFFCURVE",
"361 166 OFFCURVE",
"364 155 CURVE",
"323 124 OFFCURVE",
"275 103 OFFCURVE",
"216 103 CURVE SMOOTH"
);
},
{
closed = 1;
nodes = (
"705 395 OFFCURVE",
"743 360 OFFCURVE",
"746 325 CURVE",
"534 325 LINE",
"552 370 OFFCURVE",
"599 395 OFFCURVE",
"651 395 CURVE SMOOTH"
);
}
);
width = 903;
}
);
unicode = 00E6;
},
{
glyphname = thorn;
lastChange = "2016-08-14 21:02:13 +0000";
layers = (
{
layerId = "EEC59083-BA83-4EFB-8B50-D01213A5FD15";
paths = (
{
closed = 1;
nodes = (
"95 676 LINE",
"189 676 LINE",
"0 -146 LINE",
"-75 -146 LINE",
"-94 -230 LINE",
"146 -230 LINE",
"165 -146 LINE",
"98 -146 LINE",
"139 31 LINE",
"166 8 OFFCURVE",
"212 -9 OFFCURVE",
"262 -9 CURVE SMOOTH",
"433 -9 OFFCURVE",
"575 123 OFFCURVE",
"575 312 CURVE SMOOTH",
"575 428 OFFCURVE",
"488 519 OFFCURVE",
"377 519 CURVE SMOOTH",
"330 519 OFFCURVE",
"285 504 OFFCURVE",
"241 474 CURVE",
"307 760 LINE",
"115 760 LINE"
);
},
{
closed = 1;
nodes = (
"425 435 OFFCURVE",
"474 385 OFFCURVE",
"474 302 CURVE SMOOTH",
"474 159 OFFCURVE",
"369 75 OFFCURVE",
"269 75 CURVE SMOOTH",
"210 75 OFFCURVE",
"174 94 OFFCURVE",
"158 115 CURVE",
"220 383 LINE",
"258 415 OFFCURVE",
"308 435 OFFCURVE",
"354 435 CURVE SMOOTH"
);
}
);
width = 613;
},
{
layerId = "8956C7A5-95B5-4256-B2D2-E489185594C4";
paths = (
{
closed = 1;
nodes = (
"107 626 LINE",
"202 626 LINE",
"36 -96 LINE",
"-49 -96 LINE",
"-80 -230 LINE",
"250 -230 LINE",
"281 -96 LINE",
"202 -96 LINE",
"229 25 LINE",
"255 5 OFFCURVE",
"309 -9 OFFCURVE",
"352 -9 CURVE SMOOTH",
"526 -9 OFFCURVE",
"666 116 OFFCURVE",
"666 295 CURVE SMOOTH",
"666 419 OFFCURVE",
"584 518 OFFCURVE",
"455 518 CURVE SMOOTH",
"398 518 OFFCURVE",
"355 497 OFFCURVE",
"332 470 CURVE",
"399 760 LINE",
"138 760 LINE"
);
},
{
closed = 1;
nodes = (
"459 362 OFFCURVE",
"495 324 OFFCURVE",
"495 268 CURVE SMOOTH",
"495 195 OFFCURVE",
"438 136 OFFCURVE",
"367 136 CURVE SMOOTH",
"327 136 OFFCURVE",
"284 154 OFFCURVE",
"267 189 CURVE",
"292 297 LINE",
"320 336 OFFCURVE",
"365 362 OFFCURVE",
"411 362 CURVE SMOOTH"
);
}
);
width = 656;
}
);
unicode = 00FE;
},
{
color = 5;
glyphname = Thorn;
lastChange = "2016-08-15 21:52:05 +0000";
layers = (
{
layerId = "EEC59083-BA83-4EFB-8B50-D01213A5FD15";
paths = (
{
closed = 1;
nodes = (
"277 0 LINE",
"296 84 LINE",
"228 84 LINE",
"252 189 LINE",
"407 189 LINE SMOOTH",
"571 189 OFFCURVE",
"675 286 OFFCURVE",
"675 422 CURVE SMOOTH",
"675 528 OFFCURVE",
"592 590 OFFCURVE",
"477 590 CURVE SMOOTH",
"344 590 LINE",
"359 656 LINE",
"428 656 LINE",
"448 740 LINE",
"208 740 LINE",
"188 656 LINE",
"258 656 LINE",
"126 84 LINE",
"56 84 LINE",
"37 0 LINE"
);
},
{
closed = 1;
nodes = (
"325 506 LINE",
"456 506 LINE",
"537 506 OFFCURVE",
"572 469 OFFCURVE",
"572 414 CURVE SMOOTH",
"572 321 OFFCURVE",
"503 273 OFFCURVE",
"414 273 CURVE SMOOTH",
"271 273 LINE"
);
}
);
width = 679;
},
{
guideLines = (
{
position = "{376, 294}";
},
{
position = "{405, 160}";
},
{
position = "{99, 134}";
},
{
angle = 180;
position = "{204, 606}";
}
);
layerId = "8956C7A5-95B5-4256-B2D2-E489185594C4";
paths = (
{
closed = 1;
nodes = (
"277 0 LINE",
"308 134 LINE",
"308 134 LINE",
"314 162 LINE",
"403 162 LINE SMOOTH",
"573 162 OFFCURVE",
"719 241 OFFCURVE",
"719 395 CURVE SMOOTH",
"719 504 OFFCURVE",
"638 586 OFFCURVE",
"503 586 CURVE SMOOTH",
"413 586 LINE",
"418 606 LINE",
"418 606 LINE",
"448 740 LINE",
"192 740 LINE",
"161 606 LINE",
"246 606 LINE",
"137 134 LINE",
"61 134 LINE",
"30 0 LINE"
);
},
{
closed = 1;
nodes = (
"381 452 LINE",
"441 452 LINE",
"510 452 OFFCURVE",
"540 427 OFFCURVE",
"540 386 CURVE SMOOTH",
"540 317 OFFCURVE",
"485 294 OFFCURVE",
"407 294 CURVE SMOOTH",
"345 294 LINE"
);
}
);
width = 660;
}
);
rightMetricsKey = P;
unicode = 00DE;
},
{
glyphname = onesuperior;
lastChange = "2016-08-14 21:02:13 +0000";
layers = (
{
layerId = "EEC59083-BA83-4EFB-8B50-D01213A5FD15";
paths = (
{
closed = 1;
nodes = (
"37 410 LINE",
"185 410 LINE",
"198 467 LINE",
"158 467 LINE",
"228 771 LINE",
"198 771 LINE",
"79 713 LINE",
"62 643 LINE",
"140 680 LINE",
"90 467 LINE",
"49 467 LINE"
);
}
);
width = 237;
},
{
layerId = "8956C7A5-95B5-4256-B2D2-E489185594C4";
paths = (
{
closed = 1;
nodes = (
"90 410 LINE",
"315 410 LINE",
"337 505 LINE",
"278 505 LINE",
"339 770 LINE",
"284 770 LINE",
"153 708 LINE",
"127 594 LINE",
"204 627 LINE",
"176 505 LINE",
"112 505 LINE"
);
}
);
width = 349;
}
);
unicode = 00B9;
},
{
glyphname = twosuperior;
lastChange = "2016-08-14 21:02:13 +0000";
layers = (
{
layerId = "EEC59083-BA83-4EFB-8B50-D01213A5FD15";
paths = (
{
closed = 1;
nodes = (
"-13 411 LINE",
"225 411 LINE",
"239 470 LINE",
"100 470 LINE",
"236 580 LINE SMOOTH",
"276 614 OFFCURVE",
"288 643 OFFCURVE",
"288 678 CURVE SMOOTH",
"288 730 OFFCURVE",
"239 771 OFFCURVE",
"179 771 CURVE SMOOTH",
"113 771 OFFCURVE",
"59 727 OFFCURVE",
"43 659 CURVE",
"104 659 LINE",
"112 690 OFFCURVE",
"139 712 OFFCURVE",
"173 712 CURVE SMOOTH",
"203 712 OFFCURVE",
"221 694 OFFCURVE",
"221 673 CURVE SMOOTH",
"221 643 OFFCURVE",
"198 624 OFFCURVE",
"163 596 CURVE SMOOTH",
"-2 461 LINE"
);
}
);
width = 297;
},
{
layerId = "8956C7A5-95B5-4256-B2D2-E489185594C4";
paths = (
{
closed = 1;
nodes = (
"100 411 LINE",
"380 411 LINE",
"403 511 LINE",
"281 511 LINE",
"374 576 LINE SMOOTH",
"415 605 OFFCURVE",
"440 627 OFFCURVE",
"440 678 CURVE SMOOTH",
"440 741 OFFCURVE",
"382 771 OFFCURVE",
"325 771 CURVE SMOOTH",
"242 771 OFFCURVE",
"169 729 OFFCURVE",
"149 636 CURVE",
"259 636 LINE",
"261 644 OFFCURVE",
"268 667 OFFCURVE",
"294 667 CURVE SMOOTH",
"308 667 OFFCURVE",
"315 660 OFFCURVE",
"315 651 CURVE SMOOTH",
"315 642 OFFCURVE",
"309 624 OFFCURVE",
"276 603 CURVE SMOOTH",
"122 505 LINE"
);
}
);
width = 420;
}
);
unicode = 00B2;
},
{
glyphname = threesuperior;
lastChange = "2016-08-14 21:02:13 +0000";
layers = (
{
layerId = "EEC59083-BA83-4EFB-8B50-D01213A5FD15";
paths = (
{
closed = 1;
nodes = (
"230 644 OFFCURVE",
"201 619 OFFCURVE",
"159 619 CURVE SMOOTH",
"132 619 LINE",
"120 567 LINE",
"148 567 LINE SMOOTH",
"180 567 OFFCURVE",
"200 552 OFFCURVE",
"200 525 CURVE SMOOTH",
"200 489 OFFCURVE",
"165 465 OFFCURVE",
"126 465 CURVE SMOOTH",
"91 465 OFFCURVE",
"72 482 OFFCURVE",
"74 513 CURVE",
"9 513 LINE",
"-3 446 OFFCURVE",
"57 406 OFFCURVE",
"120 406 CURVE SMOOTH",
"203 406 OFFCURVE",
"267 460 OFFCURVE",
"267 531 CURVE SMOOTH",
"267 559 OFFCURVE",
"250 583 OFFCURVE",
"230 593 CURVE",
"272 611 OFFCURVE",
"294 639 OFFCURVE",
"294 677 CURVE SMOOTH",
"294 729 OFFCURVE",
"253 772 OFFCURVE",
"187 772 CURVE SMOOTH",
"117 772 OFFCURVE",
"63 728 OFFCURVE",
"47 666 CURVE",
"114 666 LINE",
"121 697 OFFCURVE",
"150 714 OFFCURVE",
"181 714 CURVE SMOOTH",
"211 714 OFFCURVE",
"230 695 OFFCURVE",
"230 672 CURVE SMOOTH"
);
}
);
width = 304;
},
{
layerId = "8956C7A5-95B5-4256-B2D2-E489185594C4";
paths = (
{
closed = 1;
nodes = (
"283 645 OFFCURVE",
"277 620 OFFCURVE",
"254 620 CURVE SMOOTH",
"199 620 LINE",
"184 555 LINE",
"234 555 LINE SMOOTH",
"256 555 OFFCURVE",
"262 545 OFFCURVE",
"262 535 CURVE SMOOTH",
"262 520 OFFCURVE",
"244 498 OFFCURVE",
"219 498 CURVE SMOOTH",
"195 498 OFFCURVE",
"187 519 OFFCURVE",
"191 538 CURVE",
"84 538 LINE",
"67 464 OFFCURVE",
"105 407 OFFCURVE",
"201 407 CURVE SMOOTH",
"294 407 OFFCURVE",
"376 475 OFFCURVE",
"376 544 CURVE SMOOTH",
"376 564 OFFCURVE",
"370 586 OFFCURVE",
"360 596 CURVE",
"377 611 OFFCURVE",
"399 636 OFFCURVE",
"399 674 CURVE SMOOTH",
"399 729 OFFCURVE",
"350 772 OFFCURVE",
"286 772 CURVE SMOOTH",
"191 772 OFFCURVE",
"130 715 OFFCURVE",
"116 640 CURVE",
"223 640 LINE",
"229 666 OFFCURVE",
"245 675 OFFCURVE",
"264 675 CURVE SMOOTH",
"278 675 OFFCURVE",
"283 666 OFFCURVE",
"283 656 CURVE SMOOTH"
);
}
);
width = 389;
}
);
unicode = 00B3;
},
{
glyphname = ordmasculine;
lastChange = "2016-08-14 21:02:13 +0000";
layers = (
{
anchors = (
{
name = bottom;
position = "{149, -215}";
},
{
name = top;
position = "{148, 406}";
}
);
layerId = "EEC59083-BA83-4EFB-8B50-D01213A5FD15";
paths = (
{
closed = 1;
nodes = (
"37 483 OFFCURVE",
"103 414 OFFCURVE",
"193 414 CURVE SMOOTH",
"314 414 OFFCURVE",
"404 501 OFFCURVE",
"404 621 CURVE SMOOTH",
"404 703 OFFCURVE",
"337 767 OFFCURVE",
"248 767 CURVE SMOOTH",
"135 767 OFFCURVE",
"37 681 OFFCURVE",
"37 563 CURVE SMOOTH"
);
},
{
closed = 1;
nodes = (
"113 650 OFFCURVE",
"174 701 OFFCURVE",
"242 701 CURVE SMOOTH",
"291 701 OFFCURVE",
"329 668 OFFCURVE",
"329 615 CURVE SMOOTH",
"329 533 OFFCURVE",
"268 479 OFFCURVE",
"198 479 CURVE SMOOTH",
"150 479 OFFCURVE",
"113 518 OFFCURVE",
"113 568 CURVE SMOOTH"
);
}
);
width = 377;
},
{
anchors = (
{
name = bottom;
position = "{207, -215}";
},
{
name = top;
position = "{206, 406}";
}
);
layerId = "8956C7A5-95B5-4256-B2D2-E489185594C4";
paths = (
{
closed = 1;
nodes = (
"100 482 OFFCURVE",
"168 411 OFFCURVE",
"264 411 CURVE SMOOTH",
"390 411 OFFCURVE",
"482 503 OFFCURVE",
"482 613 CURVE SMOOTH",
"482 694 OFFCURVE",
"413 770 OFFCURVE",
"318 770 CURVE SMOOTH",
"193 770 OFFCURVE",
"100 683 OFFCURVE",
"100 570 CURVE SMOOTH"
);
},
{
closed = 1;
nodes = (
"217 622 OFFCURVE",
"257 658 OFFCURVE",
"305 658 CURVE SMOOTH",
"341 658 OFFCURVE",
"364 635 OFFCURVE",
"364 603 CURVE SMOOTH",
"364 561 OFFCURVE",
"326 522 OFFCURVE",
"278 522 CURVE SMOOTH",
"239 522 OFFCURVE",
"217 547 OFFCURVE",
"217 579 CURVE SMOOTH"
);
}
);
width = 402;
}
);
unicode = 00BA;
},
{
glyphname = ordfeminine;
lastChange = "2016-08-14 21:02:13 +0000";
layers = (
{
layerId = "EEC59083-BA83-4EFB-8B50-D01213A5FD15";
paths = (
{
closed = 1;
nodes = (
"369 418 LINE",
"374 439 OFFCURVE",
"378 460 OFFCURVE",
"383 482 CURVE",
"343 482 LINE",
"357 542 OFFCURVE",
"374 611 OFFCURVE",
"380 646 CURVE SMOOTH",
"382 655 OFFCURVE",
"383 662 OFFCURVE",
"383 666 CURVE SMOOTH",
"383 729 OFFCURVE",
"334 757 OFFCURVE",
"264 757 CURVE SMOOTH",
"217 757 OFFCURVE",
"168 743 OFFCURVE",
"128 719 CURVE",
"132 704 OFFCURVE",
"136 688 OFFCURVE",
"141 672 CURVE",
"167 685 OFFCURVE",
"204 695 OFFCURVE",
"246 695 CURVE SMOOTH",
"291 695 OFFCURVE",
"317 676 OFFCURVE",
"307 632 CURVE",
"305 624 OFFCURVE",
"303 616 OFFCURVE",
"301 608 CURVE",
"282 612 OFFCURVE",
"256 615 OFFCURVE",
"226 615 CURVE SMOOTH",
"146 615 OFFCURVE",
"57 587 OFFCURVE",
"57 497 CURVE SMOOTH",
"57 449 OFFCURVE",
"102 409 OFFCURVE",
"167 409 CURVE SMOOTH",
"208 409 OFFCURVE",
"236 420 OFFCURVE",
"264 443 CURVE",
"262 435 OFFCURVE",
"260 426 OFFCURVE",
"258 418 CURVE"
);
},
{
closed = 1;
nodes = (
"149 466 OFFCURVE",
"128 480 OFFCURVE",
"128 505 CURVE SMOOTH",
"128 543 OFFCURVE",
"168 565 OFFCURVE",
"215 565 CURVE SMOOTH",
"291 565 LINE",
"286 543 OFFCURVE",
"281 521 OFFCURVE",
"276 499 CURVE",
"254 479 OFFCURVE",
"219 466 OFFCURVE",
"183 466 CURVE SMOOTH"
);
}
);
width = 407;
},
{
layerId = "8956C7A5-95B5-4256-B2D2-E489185594C4";
paths = (
{
closed = 1;
nodes = (
"471 411 LINE",
"479 445 OFFCURVE",
"486 480 OFFCURVE",
"494 514 CURVE",
"448 514 LINE",
"462 567 OFFCURVE",
"475 622 OFFCURVE",
"475 658 CURVE SMOOTH",
"475 671 OFFCURVE",
"474 682 OFFCURVE",
"470 692 CURVE SMOOTH",
"454 744 OFFCURVE",
"397 765 OFFCURVE",
"333 765 CURVE SMOOTH",
"273 765 OFFCURVE",
"216 747 OFFCURVE",
"160 713 CURVE",
"167 690 OFFCURVE",
"173 668 OFFCURVE",
"179 646 CURVE",
"216 663 OFFCURVE",
"250 670 OFFCURVE",
"291 670 CURVE SMOOTH",
"336 670 OFFCURVE",
"363 653 OFFCURVE",
"356 621 CURVE",
"356 621 OFFCURVE",
"355 620 OFFCURVE",
"355 619 CURVE",
"332 624 OFFCURVE",
"302 627 OFFCURVE",
"269 627 CURVE SMOOTH",
"170 627 OFFCURVE",
"100 581 OFFCURVE",
"100 507 CURVE SMOOTH",
"100 453 OFFCURVE",
"143 403 OFFCURVE",
"217 403 CURVE SMOOTH",
"257 403 OFFCURVE",
"289 417 OFFCURVE",
"314 435 CURVE",
"313 427 OFFCURVE",
"311 419 OFFCURVE",
"309 411 CURVE"
);
},
{
closed = 1;
nodes = (
"222 488 OFFCURVE",
"211 503 OFFCURVE",
"211 516 CURVE SMOOTH",
"211 543 OFFCURVE",
"239 548 OFFCURVE",
"271 548 CURVE SMOOTH",
"340 548 LINE",
"337 535 OFFCURVE",
"334 522 OFFCURVE",
"332 509 CURVE",
"310 495 OFFCURVE",
"282 488 OFFCURVE",
"252 488 CURVE SMOOTH"
);
}
);
width = 504;
}
);
unicode = 00AA;
},
{
glyphname = exclamdown;
lastChange = "2016-08-14 21:02:13 +0000";
layers = (
{
components = (
{
name = dotaccent;
transform = "{1, 0, 0, 1, 56, -227}";
}
);
layerId = "EEC59083-BA83-4EFB-8B50-D01213A5FD15";
paths = (
{
closed = 1;
nodes = (
"256 312 LINE",
"169 312 LINE",
"17 -258 LINE",
"144 -258 LINE"
);
}
);
width = 451;
},
{
components = (
{
name = dotaccent;
transform = "{-1, 0, 0, -1, 463, 1103}";
}
);
layerId = "8956C7A5-95B5-4256-B2D2-E489185594C4";
paths = (
{
closed = 1;
nodes = (
"373 253 LINE",
"230 253 LINE",
"90 -265 LINE",
"273 -265 LINE"
);
}
);
width = 463;
}
);
unicode = 00A1;
},
{
glyphname = questiondown;
lastChange = "2016-08-14 21:02:13 +0000";
layers = (
{
components = (
{
name = dotaccent;
transform = "{-1, 0, 0, -1, 411, 1139}";
}
);
layerId = "EEC59083-BA83-4EFB-8B50-D01213A5FD15";
paths = (
{
closed = 1;
nodes = (
"262 304 LINE",
"232 174 OFFCURVE",
"202 165 OFFCURVE",
"107 109 CURVE SMOOTH",
"17 54 OFFCURVE",
"-33 -1 OFFCURVE",
"-33 -94 CURVE SMOOTH",
"-33 -176 OFFCURVE",
"34 -260 OFFCURVE",
"158 -260 CURVE SMOOTH",
"283 -260 OFFCURVE",
"378 -181 OFFCURVE",
"408 -58 CURVE",
"307 -49 LINE",
"290 -118 OFFCURVE",
"242 -167 OFFCURVE",
"170 -167 CURVE SMOOTH",
"108 -167 OFFCURVE",
"70 -129 OFFCURVE",
"70 -82 CURVE SMOOTH",
"70 -11 OFFCURVE",
"117 14 OFFCURVE",
"209 73 CURVE SMOOTH",
"305 135 OFFCURVE",
"331 168 OFFCURVE",
"359 304 CURVE"
);
}
);
width = 543;
},
{
components = (
{
name = dotaccent;
transform = "{-1, 0, 0, -1, 511, 1103}";
}
);
layerId = "8956C7A5-95B5-4256-B2D2-E489185594C4";
paths = (
{
closed = 1;
nodes = (
"275 275 LINE",
"256 196 OFFCURVE",
"208 181 OFFCURVE",
"134 133 CURVE SMOOTH",
"40 73 OFFCURVE",
"20 8 OFFCURVE",
"20 -70 CURVE SMOOTH",
"20 -176 OFFCURVE",
"110 -253 OFFCURVE",
"224 -253 CURVE SMOOTH",
"358 -253 OFFCURVE",
"450 -181 OFFCURVE",
"480 -41 CURVE",
"319 -25 LINE",
"306 -90 OFFCURVE",
"271 -105 OFFCURVE",
"243 -105 CURVE SMOOTH",
"216 -105 OFFCURVE",
"194 -83 OFFCURVE",
"194 -51 CURVE SMOOTH",
"194 -12 OFFCURVE",
"206 23 OFFCURVE",
"271 66 CURVE SMOOTH",
"362 125 OFFCURVE",
"407 152 OFFCURVE",
"431 275 CURVE"
);
}
);
width = 510;
}
);
unicode = 00BF;
},
{
glyphname = fraction;
lastChange = "2016-08-14 21:02:13 +0000";
layers = (
{
layerId = "EEC59083-BA83-4EFB-8B50-D01213A5FD15";
paths = (
{
closed = 1;
nodes = (
"-60 -30 LINE",
"47 -30 LINE",
"845 770 LINE",
"738 770 LINE"
);
}
);
width = 705;
},
{
layerId = "8956C7A5-95B5-4256-B2D2-E489185594C4";
paths = (
{
closed = 1;
nodes = (
"-30 -30 LINE",
"120 -30 LINE",
"913 770 LINE",
"766 770 LINE"
);
}
);
width = 753;
}
);
unicode = 2044;
},
{
color = 4;
glyphname = onequarter;
lastChange = "2016-08-15 22:05:54 +0000";
layers = (
{
background = {
paths = (
{
closed = 1;
nodes = (
"51 -30 LINE",
"179 -30 LINE",
"787 770 LINE",
"662 770 LINE"
);
},
{
closed = 1;
nodes = (
"539 89 LINE",
"874 89 LINE",
"874 167 LINE",
"606 167 LINE",
"626 143 LINE",
"780 373 LINE",
"675 373 LINE",
"538 170 LINE"
);
},
{
closed = 1;
nodes = (
"724 0 LINE",
"823 0 LINE",
"823 248 LINE",
"724 248 LINE"
);
},
{
closed = 1;
nodes = (
"69 410 LINE",
"294 410 LINE",
"294 505 LINE",
"69 505 LINE"
);
},
{
closed = 1;
nodes = (
"132 444 LINE",
"235 444 LINE",
"235 770 LINE",
"180 771 LINE",
"64 708 LINE",
"64 594 LINE",
"184 651 LINE",
"132 699 LINE"
);
}
);
};
layerId = "8956C7A5-95B5-4256-B2D2-E489185594C4";
paths = (
{
closed = 1;
nodes = (
"147.95 -29.79 LINE",
"940.92 770.02 LINE",
"793.95 770.02 LINE",
"-1.95 -29.79 LINE"
);
},
{
closed = 1;
nodes = (
"342.77 410.16 LINE",
"364.75 504.88 LINE",
"305.66 504.88 LINE",
"366.7 770.02 LINE",
"312.01 770.02 LINE",
"180.66 708.01 LINE",
"154.79 594.24 LINE",
"231.45 626.95 LINE",
"203.61 504.88 LINE",
"139.65 504.88 LINE",
"117.68 410.16 LINE"
);
},
{
closed = 1;
nodes = (
"801.27 0 LINE",
"821.29 88.87 LINE",
"873.05 88.87 LINE",
"891.11 166.99 LINE",
"838.87 166.99 LINE",
"857.91 248.05 LINE",
"759.28 248.05 LINE",
"740.23 166.99 LINE",
"658.2 166.99 LINE",
"844.24 373.05 LINE",
"739.26 373.05 LINE",
"555.18 169.92 LINE",
"538.09 88.87 LINE",
"722.17 88.87 LINE",
"702.15 0 LINE"
);
}
);
width = 951;
},
{
background = {
paths = (
{
closed = 1;
nodes = (
"29 -30 LINE",
"126 -30 LINE",
"749 770 LINE",
"652 770 LINE"
);
},
{
closed = 1;
nodes = (
"599 95 LINE",
"884 95 LINE",
"884 149 LINE",
"654 149 LINE",
"663 131 LINE",
"807 371 LINE",
"735 371 LINE",
"598 148 LINE"
);
},
{
closed = 1;
nodes = (
"763 0 LINE",
"829 0 LINE",
"829 229 LINE",
"763 229 LINE"
);
},
{
closed = 1;
nodes = (
"102 380 LINE",
"260 380 LINE",
"260 443 LINE",
"102 443 LINE"
);
},
{
closed = 1;
nodes = (
"143 400 LINE",
"220 400 LINE",
"220 743 LINE",
"186 743 LINE",
"80 684 LINE",
"80 605 LINE",
"177 659 LINE",
"143 695 LINE"
);
}
);
};
layerId = "EEC59083-BA83-4EFB-8B50-D01213A5FD15";
paths = (
{
closed = 1;
nodes = (
"146.97 -29.79 LINE",
"945.31 770.02 LINE",
"837.89 770.02 LINE",
"40.04 -29.79 LINE"
);
},
{
closed = 1;
nodes = (
"245.12 380.86 LINE",
"257.81 437.5 LINE",
"218.26 437.5 LINE",
"287.6 741.7 LINE",
"257.81 741.7 LINE",
"138.67 683.59 LINE",
"121.58 613.77 LINE",
"200.2 650.39 LINE",
"149.9 437.5 LINE",
"108.89 437.5 LINE",
"96.68 380.86 LINE"
);
},
{
closed = 1;
nodes = (
"767.58 0 LINE",
"790.04 95.21 LINE",
"844.73 95.21 LINE",
"856.93 148.93 LINE",
"801.76 148.93 LINE",
"820.8 229 LINE",
"754.88 229 LINE",
"735.84 148.93 LINE",
"646.97 148.93 LINE",
"832.03 371.09 LINE",
"759.77 371.09 LINE",
"570.8 147.95 LINE",
"559.57 95.21 LINE",
"723.63 95.21 LINE",
"701.66 0 LINE"
);
}
);
width = 911;
}
);
unicode = 00BC;
},
{
color = 4;
glyphname = onehalf;
lastChange = "2016-08-15 22:05:45 +0000";
layers = (
{
background = {
paths = (
{
closed = 1;
nodes = (
"51 -30 LINE",
"179 -30 LINE",
"787 770 LINE",
"662 770 LINE"
);
},
{
closed = 1;
nodes = (
"67 410 LINE",
"292 410 LINE",
"292 505 LINE",
"67 505 LINE"
);
},
{
closed = 1;
nodes = (
"130 444 LINE",
"233 444 LINE",
"233 770 LINE",
"178 771 LINE",
"62 708 LINE",
"62 594 LINE",
"182 651 LINE",
"130 699 LINE"
);
},
{
closed = 1;
nodes = (
"556 0 LINE",
"836 0 LINE",
"836 110 LINE",
"699 110 LINE",
"700 98 LINE",
"813 195 LINE SMOOTH",
"817 199 OFFCURVE",
"836 214 OFFCURVE",
"836 249 CURVE SMOOTH",
"836 334 OFFCURVE",
"763 366 OFFCURVE",
"698 366 CURVE SMOOTH",
"615 366 OFFCURVE",
"552 324 OFFCURVE",
"553 231 CURVE",
"663 231 LINE",
"663 245 OFFCURVE",
"671 262 OFFCURVE",
"693 262 CURVE SMOOTH",
"709 262 OFFCURVE",
"716 256 OFFCURVE",
"716 241 CURVE SMOOTH",
"716 237 OFFCURVE",
"716 225 OFFCURVE",
"688 202 CURVE SMOOTH",
"556 94 LINE"
);
}
);
};
layerId = "8956C7A5-95B5-4256-B2D2-E489185594C4";
paths = (
{
closed = 1;
nodes = (
"148 -30 LINE",
"941 770 LINE",
"794 770 LINE",
"-2 -30 LINE"
);
},
{
closed = 1;
nodes = (
"343 410 LINE",
"365 505 LINE",
"306 505 LINE",
"367 770 LINE",
"312 770 LINE",
"181 708 LINE",
"155 594 LINE",
"231 627 LINE",
"204 505 LINE",
"140 505 LINE",
"118 410 LINE"
);
},
{
closed = 1;
nodes = (
"820 0 LINE",
"845 110 LINE",
"723 110 LINE",
"842 195 LINE",
"848 200 OFFCURVE",
"881 220 OFFCURVE",
"881 273 CURVE SMOOTH",
"881 339 OFFCURVE",
"824 366 OFFCURVE",
"766 366 CURVE SMOOTH",
"682 366 OFFCURVE",
"612 324 OFFCURVE",
"590 231 CURVE",
"700 231 LINE",
"704 246 OFFCURVE",
"715 262 OFFCURVE",
"737 262 CURVE SMOOTH",
"750 262 OFFCURVE",
"757 257 OFFCURVE",
"757 247 CURVE SMOOTH",
"757 235 OFFCURVE",
"740 216 OFFCURVE",
"719 202 CURVE SMOOTH",
"562 94 LINE",
"540 0 LINE"
);
}
);
width = 919;
},
{
background = {
paths = (
{
closed = 1;
nodes = (
"51 -30 LINE",
"148 -30 LINE",
"771 770 LINE",
"674 770 LINE"
);
},
{
closed = 1;
nodes = (
"120 380 LINE",
"278 380 LINE",
"278 443 LINE",
"120 443 LINE"
);
},
{
closed = 1;
nodes = (
"161 400 LINE",
"238 400 LINE",
"238 743 LINE",
"204 743 LINE",
"98 684 LINE",
"98 605 LINE",
"195 659 LINE",
"161 695 LINE"
);
},
{
closed = 1;
nodes = (
"610 0 LINE",
"856 0 LINE",
"856 69 LINE",
"698 69 LINE",
"697 56 LINE",
"821 184 LINE SMOOTH",
"844 208 OFFCURVE",
"857 232 OFFCURVE",
"857 259 CURVE SMOOTH",
"857 328 OFFCURVE",
"801 367 OFFCURVE",
"734 367 CURVE SMOOTH",
"665 367 OFFCURVE",
"609 323 OFFCURVE",
"609 250 CURVE",
"680 250 LINE",
"680 278 OFFCURVE",
"700 299 OFFCURVE",
"732 299 CURVE SMOOTH",
"762 299 OFFCURVE",
"781 280 OFFCURVE",
"781 257 CURVE SMOOTH",
"781 236 OFFCURVE",
"765 215 OFFCURVE",
"744 194 CURVE SMOOTH",
"610 59 LINE"
);
}
);
};
layerId = "EEC59083-BA83-4EFB-8B50-D01213A5FD15";
paths = (
{
closed = 1;
nodes = (
"146.97 -29.79 LINE",
"945.31 770.02 LINE",
"837.89 770.02 LINE",
"40.04 -29.79 LINE"
);
},
{
closed = 1;
nodes = (
"245.12 380.86 LINE",
"257.81 437.5 LINE",
"218.26 437.5 LINE",
"287.6 741.7 LINE",
"257.81 741.7 LINE",
"138.67 683.59 LINE",
"121.58 613.77 LINE",
"200.2 650.39 LINE",
"149.9 437.5 LINE",
"108.89 437.5 LINE",
"96.68 380.86 LINE"
);
},
{
closed = 1;
nodes = (
"816.89 0 LINE",
"833.01 68.85 LINE",
"699.22 68.85 LINE",
"836.91 184.08 LINE",
"873.05 213.38 OFFCURVE",
"880.86 234.38 OFFCURVE",
"880.86 273.93 CURVE",
"880.86 329.1 OFFCURVE",
"833.01 367.19 OFFCURVE",
"773.93 367.19 CURVE",
"704.1 367.19 OFFCURVE",
"638.67 325.2 OFFCURVE",
"623.05 250 CURVE",
"699.22 250 LINE",
"705.57 277.83 OFFCURVE",
"730.47 298.83 OFFCURVE",
"762.21 298.83 CURVE",
"789.06 298.83 OFFCURVE",
"802.25 283.69 OFFCURVE",
"802.25 264.16 CURVE",
"802.25 241.21 OFFCURVE",
"780.76 216.8 OFFCURVE",
"750 193.85 CURVE",
"584.96 59.08 LINE",
"571.29 0 LINE"
);
}
);
width = 911;
}
);
unicode = 00BD;
},
{
color = 4;
glyphname = threequarters;
lastChange = "2016-08-15 22:06:17 +0000";
layers = (
{
background = {
paths = (
{
closed = 1;
nodes = (
"80 -30 LINE",
"208 -30 LINE",
"816 770 LINE",
"691 770 LINE"
);
},
{
closed = 1;
nodes = (
"569 89 LINE",
"904 89 LINE",
"904 167 LINE",
"636 167 LINE",
"656 143 LINE",
"810 373 LINE",
"705 373 LINE",
"568 170 LINE"
);
},
{
closed = 1;
nodes = (
"754 0 LINE",
"853 0 LINE",
"853 248 LINE",
"754 248 LINE"
);
},
{
closed = 1;
nodes = (
"235 637 OFFCURVE",
"230 623 OFFCURVE",
"214 623 CURVE SMOOTH",
"159 623 LINE",
"159 558 LINE",
"209 558 LINE SMOOTH",
"236 558 OFFCURVE",
"242 541 OFFCURVE",
"242 531 CURVE SMOOTH",
"242 515 OFFCURVE",
"230 496 OFFCURVE",
"207 496 CURVE SMOOTH",
"183 496 OFFCURVE",
"170 517 OFFCURVE",
"170 536 CURVE",
"63 536 LINE",
"63 459 OFFCURVE",
"114 400 OFFCURVE",
"210 400 CURVE SMOOTH",
"294 400 OFFCURVE",
"355 461 OFFCURVE",
"355 523 CURVE SMOOTH",
"355 553 OFFCURVE",
"339 588 OFFCURVE",
"320 598 CURVE",
"320 589 LINE",
"331 601 OFFCURVE",
"348 624 OFFCURVE",
"348 659 CURVE SMOOTH",
"348 724 OFFCURVE",
"283 775 OFFCURVE",
"211 775 CURVE SMOOTH",
"116 775 OFFCURVE",
"68 718 OFFCURVE",
"71 643 CURVE",
"178 643 LINE",
"178 669 OFFCURVE",
"192 678 OFFCURVE",
"206 678 CURVE SMOOTH",
"230 678 OFFCURVE",
"235 665 OFFCURVE",
"235 652 CURVE SMOOTH"
);
}
);
};
layerId = "8956C7A5-95B5-4256-B2D2-E489185594C4";
paths = (
{
closed = 1;
nodes = (
"167.97 -29.79 LINE",
"960.94 770.02 LINE",
"813.96 770.02 LINE",
"18.07 -29.79 LINE"
);
},
{
closed = 1;
nodes = (
"295.9 385.74 OFFCURVE",
"377.93 453.61 OFFCURVE",
"377.93 522.46 CURVE",
"377.93 542.48 OFFCURVE",
"371.58 564.45 OFFCURVE",
"361.82 574.71 CURVE",
"378.91 588.87 OFFCURVE",
"400.88 615.23 OFFCURVE",
"400.88 652.34 CURVE",
"400.88 707.52 OFFCURVE",
"352.54 750.49 OFFCURVE",
"288.09 750.49 CURVE",
"193.36 750.49 OFFCURVE",
"131.35 693.36 OFFCURVE",
"118.16 618.65 CURVE",
"225.1 618.65 LINE",
"230.96 644.53 OFFCURVE",
"247.07 653.32 OFFCURVE",
"266.11 653.32 CURVE",
"279.79 653.32 OFFCURVE",
"285.16 644.53 OFFCURVE",
"285.16 634.28 CURVE",
"285.16 624.02 OFFCURVE",
"278.81 598.63 OFFCURVE",
"255.86 598.63 CURVE",
"201.17 598.63 LINE",
"186.04 533.69 LINE",
"235.84 533.69 LINE",
"257.81 533.69 OFFCURVE",
"264.16 523.44 OFFCURVE",
"264.16 513.67 CURVE",
"264.16 498.54 OFFCURVE",
"246.09 476.56 OFFCURVE",
"221.19 476.56 CURVE",
"196.29 476.56 OFFCURVE",
"188.96 497.56 OFFCURVE",
"192.87 516.6 CURVE",
"85.94 516.6 LINE",
"68.85 442.38 OFFCURVE",
"106.93 385.74 OFFCURVE",
"203.12 385.74 CURVE"
);
},
{
closed = 1;
nodes = (
"821.29 0 LINE",
"841.31 88.87 LINE",
"893.07 88.87 LINE",
"911.13 166.99 LINE",
"858.89 166.99 LINE",
"877.93 248.05 LINE",
"779.3 248.05 LINE",
"760.25 166.99 LINE",
"678.22 166.99 LINE",
"864.26 373.05 LINE",
"759.28 373.05 LINE",
"575.2 169.92 LINE",
"558.11 88.87 LINE",
"742.19 88.87 LINE",
"722.17 0 LINE"
);
}
);
width = 971;
},
{
background = {
paths = (
{
closed = 1;
nodes = (
"113 -30 LINE",
"210 -30 LINE",
"833 770 LINE",
"736 770 LINE"
);
},
{
closed = 1;
nodes = (
"613 95 LINE",
"898 95 LINE",
"898 149 LINE",
"668 149 LINE",
"677 131 LINE",
"821 371 LINE",
"749 371 LINE",
"612 148 LINE"
);
},
{
closed = 1;
nodes = (
"777 0 LINE",
"843 0 LINE",
"843 229 LINE",
"777 229 LINE"
);
},
{
closed = 1;
nodes = (
"298 614 OFFCURVE",
"279 595 OFFCURVE",
"247 595 CURVE SMOOTH",
"214 595 LINE",
"214 540 LINE",
"246 540 LINE SMOOTH",
"281 540 OFFCURVE",
"303 520 OFFCURVE",
"303 492 CURVE SMOOTH",
"303 465 OFFCURVE",
"279 442 OFFCURVE",
"248 442 CURVE SMOOTH",
"215 442 OFFCURVE",
"194 460 OFFCURVE",
"190 489 CURVE",
"116 489 LINE",
"116 419 OFFCURVE",
"176 376 OFFCURVE",
"246 376 CURVE SMOOTH",
"320 376 OFFCURVE",
"377 428 OFFCURVE",
"377 491 CURVE SMOOTH",
"377 529 OFFCURVE",
"354 561 OFFCURVE",
"327 571 CURVE",
"327 567 LINE",
"356 582 OFFCURVE",
"372 610 OFFCURVE",
"372 643 CURVE SMOOTH",
"372 699 OFFCURVE",
"318 749 OFFCURVE",
"245 749 CURVE SMOOTH",
"173 749 OFFCURVE",
"124 699 OFFCURVE",
"122 638 CURVE",
"195 638 LINE",
"195 670 OFFCURVE",
"225 683 OFFCURVE",
"245 683 CURVE SMOOTH",
"280 683 OFFCURVE",
"298 658 OFFCURVE",
"298 639 CURVE SMOOTH"
);
}
);
};
layerId = "EEC59083-BA83-4EFB-8B50-D01213A5FD15";
paths = (
{
closed = 1;
nodes = (
"67 -30 LINE",
"865 770 LINE",
"758 770 LINE",
"-40 -30 LINE"
);
},
{
closed = 1;
nodes = (
"204 385 OFFCURVE",
"271 437 OFFCURVE",
"270.51 509.77 CURVE",
"270.51 538.09 OFFCURVE",
"258.3 559.08 OFFCURVE",
"233.89 572.27 CURVE",
"276.37 589.84 OFFCURVE",
"297.85 617.68 OFFCURVE",
"297.85 655.76 CURVE",
"298.83 707.03 OFFCURVE",
"251.46 752.93 OFFCURVE",
"190.43 750.98 CURVE",
"123 751 OFFCURVE",
"61 706 OFFCURVE",
"50.78 645.02 CURVE",
"117.68 645.02 LINE",
"126.46 676.76 OFFCURVE",
"148.93 692.87 OFFCURVE",
"184.57 692.87 CURVE",
"215.33 692.87 OFFCURVE",
"233.89 673.83 OFFCURVE",
"233.89 650.88 CURVE",
"233.89 621.09 OFFCURVE",
"204.1 598.14 OFFCURVE",
"162.6 598.14 CURVE",
"135.74 598.14 LINE",
"123.54 545.9 LINE",
"151.86 545.9 LINE",
"186.52 545.9 OFFCURVE",
"203.61 531.74 OFFCURVE",
"203.61 503.91 CURVE",
"204 467 OFFCURVE",
"170 444 OFFCURVE",
"129.88 443.85 CURVE",
"95.21 443.85 OFFCURVE",
"77.64 459.96 OFFCURVE",
"77.64 492.19 CURVE",
"12.7 492.19 LINE",
"13 423 OFFCURVE",
"57 385 OFFCURVE",
"123.54 384.77 CURVE"
);
},
{
closed = 1;
nodes = (
"688 0 LINE",
"710 95 LINE",
"765 95 LINE",
"777 149 LINE",
"722 149 LINE",
"741 229 LINE",
"675 229 LINE",
"656 149 LINE",
"567 149 LINE",
"752 371 LINE",
"680 371 LINE",
"491 148 LINE",
"480 95 LINE",
"644 95 LINE",
"622 0 LINE"
);
}
);
width = 831;
}
);
unicode = 00BE;
},
